<svg width="21" height="21" viewBox="0 0 21 21" fill="none" xmlns="http://www.w3.org/2000/svg">
<path fill-rule="evenodd" clip-rule="evenodd" d="M4.18399 16.1679C4.34598 18.6588 5.42514 20.1435 7.42147 20.6247C6.22904 18.8171 5.81126 17.3311 6.16691 16.1679H7.08408C6.44827 15.0657 5.81126 13.9633 5.17424 12.8598C4.53844 13.9633 3.90142 15.0656 3.26441 16.1679H4.18399ZM16.408 4.45672C16.246 1.96586 15.1668 0.481121 13.1705 0C14.3629 1.80752 14.7807 3.29351 14.425 4.45672H13.5079C14.1437 5.55904 14.7807 6.66132 15.4177 7.76484C16.0535 6.66132 16.6905 5.55904 17.3275 4.45672H16.408ZM19.0888 12.8549C19.3567 13.2837 19.5455 13.7477 19.6563 14.2276H20.6246V16.2702H19.6563C19.5455 16.7501 19.3567 17.2142 19.0888 17.6429L19.7733 18.3275L18.3275 19.7732L17.643 19.0887C17.2143 19.3566 16.749 19.5455 16.2703 19.6563V20.6246H14.2265V19.6563C13.7478 19.5454 13.2838 19.3566 12.8538 19.0887L12.1705 19.7732L10.7247 18.3275L11.4093 17.6429C11.1413 17.2142 10.9525 16.7501 10.8417 16.2702H9.87339V14.2276H10.8417C10.9513 13.7477 11.1413 13.2836 11.4093 12.8549L10.7247 12.1704L12.1705 10.7246L12.855 11.4091C13.2838 11.1412 13.7478 10.9524 14.2265 10.8416V9.87323H16.2703V10.8416C16.7502 10.9524 17.2143 11.1412 17.643 11.4091L18.3275 10.7246L19.7733 12.1704L19.0888 12.8549ZM13.3398 14.9487C13.5054 14.9487 13.6406 15.0827 13.6406 15.2483C13.6406 15.4152 13.5054 15.5492 13.3398 15.5492H12.4652C12.6053 16.8573 13.6406 17.8914 14.9475 18.0327V17.1582C14.9475 16.9925 15.0827 16.8573 15.2484 16.8573C15.4152 16.8573 15.5492 16.9925 15.5492 17.1582V18.0327C16.8574 17.8914 17.8914 16.8573 18.0327 15.5492H17.1582C16.9925 15.5492 16.8573 15.4152 16.8573 15.2483C16.8573 15.0827 16.9925 14.9487 17.1582 14.9487H18.0327C17.8914 13.6406 16.8574 12.6065 15.5492 12.4652V13.3397C15.5492 13.5054 15.4152 13.6406 15.2484 13.6406C15.0828 13.6406 14.9475 13.5054 14.9475 13.3397V12.4652C13.6406 12.6065 12.6053 13.6406 12.4652 14.9487H13.3398ZM11.8477 15.2483C11.8477 13.3702 13.3702 11.8476 15.2484 11.8476C17.1266 11.8476 18.6503 13.3702 18.6503 15.2483C18.6503 17.1265 17.1266 18.6502 15.2484 18.6502C13.3702 18.6502 11.8477 17.1277 11.8477 15.2483ZM14.9476 15.2483V14.1667C14.9476 14.0011 15.0828 13.8658 15.2484 13.8658C15.4153 13.8658 15.5493 14.001 15.5493 14.1667V14.9487H16.1217C16.2886 14.9487 16.4226 15.0826 16.4226 15.2483C16.4226 15.4151 16.2886 15.5491 16.1217 15.5491H15.2484C15.0828 15.5491 14.9476 15.4152 14.9476 15.2483V15.2483ZM5.34354 2.40316C6.45557 2.40316 7.35693 3.30447 7.35693 4.41654C7.35693 5.52862 6.45562 6.43113 5.34354 6.43113C4.23147 6.43113 3.32895 5.52857 3.32895 4.41654C3.32895 3.30451 4.23151 2.40316 5.34354 2.40316ZM6.66389 6.67472C7.80638 7.11322 8.66632 8.09858 8.93912 9.2959C6.90382 11.1509 3.78206 11.1509 1.74676 9.2959C2.01961 8.09982 2.87705 7.11322 4.022 6.67472C4.83685 7.15219 5.85027 7.15219 6.66389 6.67472ZM1.26198 8.79282C-0.516321 6.69303 -0.415216 3.54565 1.56526 1.56518C3.65173 -0.521297 7.03535 -0.521297 9.12183 1.56518C11.1023 3.54565 11.2034 6.69303 9.4239 8.79287C9.06214 7.67718 8.25339 6.75877 7.20589 6.25333C7.67116 5.78076 7.95862 5.13275 7.95862 4.41659C7.95862 2.97202 6.78811 1.80151 5.34354 1.80151C3.89898 1.80151 2.72726 2.97202 2.72726 4.41659C2.72726 5.13279 3.01592 5.78076 3.48119 6.25333C2.43249 6.76002 1.62494 7.67718 1.26198 8.79287V8.79282Z" fill="url(#paint0_linear_394_19250)"/>
<defs>
<linearGradient id="paint0_linear_394_19250" x1="3.2581" y1="17.3575" x2="17.3412" y2="3.27443" gradientUnits="userSpaceOnUse">
<stop stop-color="#00A7D8"/>
<stop offset="1" stop-color="#8E6AAE"/>
</linearGradient>
</defs>
</svg>
