<svg width="195" height="135" viewBox="0 0 195 135" fill="none" xmlns="http://www.w3.org/2000/svg">
<g filter="url(#filter0_d_1045_22083)">
<rect x="8.8999" y="8.8999" width="177" height="117" rx="20.5" stroke="#CDCDCD" shape-rendering="crispEdges"/>
<mask id="mask0_1045_22083" style="mask-type:alpha" maskUnits="userSpaceOnUse" x="21" y="-7" width="153" height="153">
<path d="M173.4 -6.6001H21.3999V145.4H173.4V-6.6001Z" fill="#D9D9D9"/>
</mask>
<g mask="url(#mask0_1045_22083)">
<path d="M58.5601 88.6147C60.0372 92.129 59.4744 97.4764 62.4535 98.0592C65.1032 98.602 66.5107 97.4763 65.7716 94.3803C65.4011 92.3448 62.2888 89.3144 58.5601 88.6147Z" fill="black"/>
<path d="M50.9956 100.249C54.3025 99.0783 61.4444 96.9133 63.5904 98.7968C64.8218 100.291 63.5911 101.902 62.4646 102.568C59.0776 104.569 52.2099 101.173 50.9956 100.249Z" fill="black"/>
<path d="M39.2185 96.7347C44.4022 95.2781 44.6592 90.0875 53.3098 94.3388C49.4778 101.559 41.3125 98.9504 39.2185 96.7347Z" fill="black"/>
<path d="M47.5679 83.9668C48.1695 89.1452 46.2457 91.8473 53.5707 93.8003C56.3778 86.5 48.9659 85.8803 47.5679 83.9668Z" fill="black"/>
<path d="M30.2141 86.6681C34.7059 87.7417 37.0661 83.9603 41.7712 90.7582C35.8852 94.5665 30.8575 89.2026 30.2141 86.6681Z" fill="black"/>
<path d="M41.8008 80.5894C40.0889 84.7198 37.5192 85.9406 42.1911 90.4628C47.3429 86.166 42.0491 82.6066 41.8008 80.5894Z" fill="black"/>
<path d="M26.4897 78.1704C30.2528 79.9514 33.0371 77.0547 35.9252 83.9247C30.0255 86.1912 26.5866 80.5255 26.4897 78.1704Z" fill="black"/>
<path d="M37.8388 74.9604C35.5614 78.2862 33.0679 78.886 36.3492 83.7426C41.692 80.9093 37.6832 76.7858 37.8388 74.9604Z" fill="black"/>
<path d="M24.9589 70.4556C27.6557 72.2752 30.1483 70.3657 31.569 76.0136C26.7443 77.0684 24.7559 72.2865 24.9589 70.4556Z" fill="black"/>
<path d="M34.1042 69.3145C31.9526 71.6149 29.9556 71.7842 31.9176 75.923C36.379 74.3643 33.7686 70.7063 34.1042 69.3145Z" fill="black"/>
<path d="M25.117 62.0161C27.1368 64.3765 29.9166 63.2525 29.7885 68.8123C25.0793 68.5569 24.4648 63.6495 25.117 62.0161Z" fill="black"/>
<path d="M33.8272 63.2905C31.2618 64.8609 29.3807 64.5091 30.1345 68.8177C34.6373 68.5172 33.1645 64.4861 33.8272 63.2905Z" fill="black"/>
<path d="M26.6495 53.9229C28.0294 56.7066 30.9998 56.2975 29.5134 61.6566C25.0104 60.2552 25.6169 55.3469 26.6495 53.9229Z" fill="black"/>
<path d="M34.7815 57.293C31.9095 58.1872 30.172 57.385 29.8472 61.747C34.2864 62.5587 33.846 58.2901 34.7815 57.293Z" fill="black"/>
<path d="M29.5726 47.3833C30.6177 50.138 33.4594 50.0268 31.5609 54.9481C27.4399 53.2088 28.4662 48.6319 29.5726 47.3833Z" fill="black"/>
<path d="M36.9362 51.3159C34.1425 51.8948 32.5766 50.9767 31.8667 55.0642C35.982 56.2407 35.9609 52.1706 36.9362 51.3159Z" fill="black"/>
<path d="M33.521 40.5723C34.0545 43.3161 36.7292 43.67 34.1616 47.9651C30.5888 45.6756 32.2855 41.5616 33.521 40.5723Z" fill="black"/>
<path d="M39.7726 45.4355C37.0674 45.5267 35.7512 44.4163 34.4292 48.1238C38.0873 49.8865 38.7232 46.0779 39.7726 45.4355Z" fill="black"/>
<path d="M38.7495 36.0083C38.8353 38.2715 40.9325 38.8873 38.343 42.0063C35.7676 39.7289 37.6374 36.6466 38.7495 36.0083Z" fill="black"/>
<path d="M45.8465 34.8578C44.181 36.3925 45.0745 38.3875 41.0208 38.4431C41.0806 35.0059 44.639 34.4265 45.8465 34.8578Z" fill="black"/>
<path d="M43.1504 40.6793C40.9735 40.4161 40.0579 39.3634 38.5386 42.1667C41.2478 44.0329 42.2304 41.0628 43.1504 40.6793Z" fill="black"/>
<path d="M136.117 88.6147C134.64 92.129 135.203 97.4764 132.224 98.0592C129.574 98.602 128.167 97.4763 128.906 94.3803C129.276 92.3448 132.389 89.3144 136.117 88.6147Z" fill="black"/>
<path d="M143.681 100.249C140.375 99.0783 133.233 96.9133 131.086 98.7968C129.855 100.291 131.086 101.902 132.213 102.568C135.599 104.569 142.467 101.173 143.681 100.249Z" fill="black"/>
<path d="M155.458 96.7347C150.274 95.2781 150.017 90.0875 141.367 94.3388C145.199 101.559 153.364 98.9504 155.458 96.7347Z" fill="black"/>
<path d="M147.108 83.9668C146.507 89.1452 148.43 91.8473 141.105 93.8003C138.298 86.5 145.71 85.8803 147.108 83.9668Z" fill="black"/>
<path d="M164.461 86.6681C159.969 87.7417 157.609 83.9603 152.904 90.7582C158.79 94.5665 163.817 89.2026 164.461 86.6681Z" fill="black"/>
<path d="M152.875 80.5894C154.587 84.7198 157.156 85.9406 152.485 90.4628C147.333 86.166 152.627 82.6066 152.875 80.5894Z" fill="black"/>
<path d="M168.187 78.1704C164.424 79.9514 161.639 77.0547 158.751 83.9247C164.651 86.1912 168.09 80.5255 168.187 78.1704Z" fill="black"/>
<path d="M156.838 74.9604C159.116 78.2862 161.61 78.886 158.328 83.7426C152.985 80.9093 156.994 76.7858 156.838 74.9604Z" fill="black"/>
<path d="M169.718 70.4556C167.022 72.2752 164.529 70.3657 163.109 76.0136C167.933 77.0684 169.922 72.2865 169.718 70.4556Z" fill="black"/>
<path d="M160.573 69.3145C162.724 71.6149 164.721 71.7842 162.759 75.923C158.298 74.3643 160.908 70.7063 160.573 69.3145Z" fill="black"/>
<path d="M169.558 62.0161C167.538 64.3765 164.758 63.2525 164.887 68.8123C169.596 68.5569 170.211 63.6495 169.558 62.0161Z" fill="black"/>
<path d="M160.849 63.2905C163.414 64.8609 165.295 64.5091 164.542 68.8177C160.039 68.5172 161.512 64.4861 160.849 63.2905Z" fill="black"/>
<path d="M168.027 53.9229C166.647 56.7066 163.677 56.2975 165.163 61.6566C169.666 60.2552 169.06 55.3469 168.027 53.9229Z" fill="black"/>
<path d="M159.896 57.293C162.768 58.1872 164.506 57.385 164.83 61.747C160.391 62.5587 160.831 58.2901 159.896 57.293Z" fill="black"/>
<path d="M165.105 47.3833C164.059 50.138 161.218 50.0268 163.116 54.9481C167.237 53.2088 166.211 48.6319 165.105 47.3833Z" fill="black"/>
<path d="M157.742 51.3159C160.535 51.8948 162.101 50.9767 162.812 55.0642C158.696 56.2407 158.717 52.1706 157.742 51.3159Z" fill="black"/>
<path d="M161.157 40.5723C160.623 43.3161 157.948 43.67 160.516 47.9651C164.089 45.6756 162.392 41.5616 161.157 40.5723Z" fill="black"/>
<path d="M154.904 45.4355C157.609 45.5267 158.925 44.4163 160.247 48.1238C156.589 49.8865 155.953 46.0779 154.904 45.4355Z" fill="black"/>
<path d="M155.927 36.0083C155.841 38.2715 153.744 38.8873 156.334 42.0063C158.909 39.7289 157.039 36.6466 155.927 36.0083Z" fill="black"/>
<path d="M148.83 34.8578C150.495 36.3925 149.602 38.3875 153.655 38.4431C153.596 35.0059 150.037 34.4265 148.83 34.8578Z" fill="black"/>
<path d="M151.527 40.6793C153.703 40.4161 154.619 39.3634 156.139 42.1667C153.429 44.0329 152.447 41.0628 151.527 40.6793Z" fill="black"/>
<path d="M61.0059 58.0997C61.0059 58.5765 60.9472 59.0082 60.83 59.3951C60.7127 59.7782 60.5349 60.1087 60.2965 60.3862C60.062 60.6598 59.7669 60.8708 59.4112 61.0194C59.0555 61.1679 58.6412 61.2421 58.1682 61.2421C57.9533 61.2421 57.7403 61.2287 57.5292 61.2013C57.322 61.1779 57.1032 61.1383 56.8726 61.0836C56.8882 60.9117 56.9038 60.7397 56.9195 60.5677C56.9351 60.3957 56.9507 60.2237 56.9664 60.0518C56.9781 59.958 57.0152 59.8837 57.0778 59.829C57.1403 59.7704 57.2302 59.7413 57.3474 59.7413C57.4139 59.7413 57.4979 59.753 57.5996 59.7764C57.7051 59.7999 57.8341 59.8116 57.9865 59.8116C58.1976 59.8116 58.3813 59.7821 58.5376 59.7234C58.694 59.6648 58.8249 59.5693 58.9304 59.4364C59.036 59.3035 59.1141 59.1315 59.1649 58.9205C59.2197 58.7055 59.247 58.4453 59.247 58.1405V52.6411H61.0059V58.0997ZM64.707 61.1483H62.9364V52.6411H64.707V61.1483ZM66.2694 60.298C66.2694 60.169 66.2929 60.0479 66.3398 59.9345C66.3906 59.8173 66.4588 59.7178 66.5448 59.6357C66.6307 59.5497 66.7306 59.4833 66.844 59.4364C66.9612 59.3856 67.088 59.36 67.2248 59.36C67.3577 59.36 67.4828 59.3856 67.6001 59.4364C67.7173 59.4833 67.8189 59.5497 67.9049 59.6357C67.9909 59.7178 68.0574 59.8173 68.1043 59.9345C68.1551 60.0479 68.1807 60.169 68.1807 60.298C68.1807 60.4309 68.1551 60.5542 68.1043 60.6676C68.0574 60.7809 67.9909 60.8804 67.9049 60.9664C67.8189 61.0484 67.7173 61.1132 67.6001 61.1601C67.4828 61.207 67.3577 61.2304 67.2248 61.2304C67.088 61.2304 66.9612 61.207 66.844 61.1601C66.7306 61.1132 66.6307 61.0484 66.5448 60.9664C66.4588 60.8804 66.3906 60.7809 66.3398 60.6676C66.2929 60.5542 66.2694 60.4309 66.2694 60.298ZM77.0367 52.6411V61.1483H75.2661V57.4838H71.5199V61.1483H69.7493V52.6411H71.5199V56.2526H75.2661V52.6411H77.0367ZM84.1008 59.7178V61.1483H79.0526V52.6411H80.8115V59.7178H84.1008ZM89.9045 57.9181L88.9839 55.3146C88.9291 55.1778 88.8705 55.0175 88.808 54.8338C88.7493 54.6501 88.6929 54.4508 88.6382 54.2358C88.5834 54.4547 88.5248 54.6579 88.4623 54.8455C88.4037 55.0293 88.3468 55.1895 88.292 55.3263L87.3774 57.9181H89.9045ZM92.8594 61.1483H91.4932C91.3407 61.1483 91.2157 61.1132 91.1179 61.0428C91.0241 60.9685 90.9538 60.8747 90.9069 60.7614L90.3323 59.1372H86.9436L86.369 60.7614C86.3299 60.8591 86.2618 60.949 86.164 61.0311C86.0663 61.1093 85.943 61.1483 85.7945 61.1483H84.4169L87.7409 52.6411H89.5411L92.8594 61.1483ZM100.64 52.6411L97.2162 61.1483H95.6215L92.1976 52.6411H93.6164C93.7688 52.6411 93.8917 52.6785 93.9855 52.7527C94.0832 52.8231 94.1558 52.9147 94.2027 53.0281L96.0436 57.9294C96.114 58.1131 96.1821 58.3146 96.2486 58.5335C96.3189 58.7485 96.3837 58.9752 96.4423 59.2136C96.4931 58.9752 96.5478 58.7485 96.6064 58.5335C96.669 58.3146 96.7354 58.1131 96.8058 57.9294L98.635 53.0281C98.6741 52.9304 98.7423 52.8426 98.84 52.7645C98.9416 52.6824 99.0667 52.6411 99.2152 52.6411H100.64ZM105.466 57.9181L104.545 55.3146C104.49 55.1778 104.432 55.0175 104.369 54.8338C104.311 54.6501 104.254 54.4508 104.199 54.2358C104.145 54.4547 104.086 54.6579 104.024 54.8455C103.965 55.0293 103.908 55.1895 103.853 55.3263L102.939 57.9181H105.466ZM108.421 61.1483H107.054C106.902 61.1483 106.777 61.1132 106.679 61.0428C106.585 60.9685 106.515 60.8747 106.468 60.7614L105.894 59.1372H102.505L101.93 60.7614C101.891 60.8591 101.823 60.949 101.725 61.0311C101.628 61.1093 101.504 61.1483 101.356 61.1483H99.9782L103.302 52.6411H105.102L108.421 61.1483ZM113.829 61.1483H112.059V52.6411H113.829V61.1483ZM123.471 56.8919C123.471 57.5134 123.365 58.0858 123.154 58.6095C122.947 59.1293 122.652 59.5771 122.269 59.9523C121.89 60.3275 121.432 60.6207 120.897 60.8317C120.361 61.0428 119.767 61.1483 119.115 61.1483H115.843V52.6411H119.115C119.767 52.6411 120.361 52.7466 120.897 52.9577C121.432 53.1688 121.89 53.4641 122.269 53.8432C122.652 54.2184 122.947 54.6658 123.154 55.1856C123.365 55.7054 123.471 56.2744 123.471 56.8919ZM121.665 56.8919C121.665 56.4463 121.607 56.0455 121.489 55.6898C121.372 55.3341 121.204 55.0332 120.985 54.7869C120.766 54.5407 120.498 54.3513 120.182 54.2184C119.869 54.0855 119.513 54.0191 119.115 54.0191H117.614V59.7703H119.115C119.513 59.7703 119.869 59.7061 120.182 59.5771C120.498 59.4442 120.766 59.2544 120.985 59.0082C121.204 58.758 121.372 58.4553 121.489 58.0997C121.607 57.744 121.665 57.3414 121.665 56.8919ZM126.768 54.0191V56.3699H129.829V57.7535H126.768V61.1483H124.998V52.6411H130.415V54.0191H126.768ZM133.645 54.0191V56.3699H136.705V57.7535H133.645V61.1483H131.874V52.6411H137.291V54.0191H133.645Z" fill="black"/>
<path d="M65.232 76.7707C65.2007 76.8254 65.1668 76.8658 65.1303 76.8918C65.0965 76.9153 65.0535 76.927 65.0013 76.927C64.9466 76.927 64.8867 76.9075 64.8216 76.8684C64.7591 76.8267 64.6835 76.7811 64.5949 76.7316C64.5063 76.6821 64.4021 76.6378 64.2823 76.5987C64.165 76.557 64.0256 76.5362 63.864 76.5362C63.7181 76.5362 63.5904 76.5544 63.481 76.5909C63.3716 76.6247 63.2791 76.673 63.2035 76.7355C63.1305 76.798 63.0758 76.8736 63.0393 76.9622C63.0028 77.0482 62.9846 77.1433 62.9846 77.2475C62.9846 77.3804 63.0211 77.4912 63.094 77.5797C63.1696 77.6683 63.2686 77.7439 63.3911 77.8064C63.5136 77.869 63.653 77.925 63.8093 77.9745C63.9657 78.024 64.1259 78.0774 64.2901 78.1348C64.4542 78.1895 64.6145 78.2546 64.7708 78.3302C64.9271 78.4031 65.0665 78.497 65.189 78.6116C65.3114 78.7236 65.4091 78.8618 65.4821 79.0259C65.5577 79.1901 65.5954 79.3894 65.5954 79.6239C65.5954 79.8793 65.5511 80.119 65.4626 80.3431C65.3766 80.5646 65.2489 80.7587 65.0795 80.9255C64.9127 81.0896 64.7083 81.2199 64.466 81.3163C64.2236 81.4101 63.9461 81.457 63.6334 81.457C63.4536 81.457 63.2764 81.4388 63.1019 81.4023C62.9273 81.3684 62.7592 81.3189 62.5977 81.2538C62.4387 81.1887 62.2889 81.1105 62.1482 81.0193C62.0075 80.9281 61.8824 80.8265 61.7729 80.7144L62.0817 80.2102C62.1078 80.1737 62.1417 80.1438 62.1834 80.1203C62.225 80.0943 62.2693 80.0812 62.3162 80.0812C62.3814 80.0812 62.4517 80.1086 62.5273 80.1633C62.6029 80.2154 62.6928 80.274 62.797 80.3392C62.9012 80.4043 63.0224 80.4643 63.1605 80.519C63.3012 80.5711 63.4693 80.5972 63.6647 80.5972C63.9644 80.5972 64.1963 80.5268 64.3604 80.3861C64.5246 80.2428 64.6067 80.0382 64.6067 79.7725C64.6067 79.6239 64.5689 79.5028 64.4933 79.409C64.4204 79.3151 64.3226 79.237 64.2002 79.1744C64.0777 79.1093 63.9383 79.0546 63.782 79.0103C63.6256 78.966 63.4667 78.9178 63.3051 78.8657C63.1436 78.8135 62.9846 78.751 62.8283 78.678C62.6719 78.6051 62.5325 78.51 62.41 78.3927C62.2876 78.2755 62.1886 78.1295 62.113 77.955C62.04 77.7778 62.0036 77.5602 62.0036 77.3022C62.0036 77.0964 62.0439 76.8957 62.1247 76.7003C62.2081 76.5049 62.328 76.3316 62.4843 76.1805C62.6407 76.0293 62.8335 75.9082 63.0628 75.817C63.2921 75.7258 63.5553 75.6802 63.8523 75.6802C64.1858 75.6802 64.4933 75.7323 64.7747 75.8365C65.0561 75.9407 65.2958 76.0867 65.4938 76.2743L65.232 76.7707ZM68.506 78.5842C68.6989 78.5842 68.8669 78.5608 69.0102 78.5139C69.1535 78.4644 69.2721 78.3953 69.3659 78.3067C69.4623 78.2155 69.534 78.1061 69.5809 77.9784C69.6278 77.8481 69.6512 77.7035 69.6512 77.5446C69.6512 77.3934 69.6278 77.2566 69.5809 77.1342C69.534 77.0117 69.4636 76.9075 69.3698 76.8215C69.276 76.7355 69.1575 76.6704 69.0141 76.6261C68.8708 76.5792 68.7015 76.5557 68.506 76.5557H67.7204V78.5842H68.506ZM68.506 75.7427C68.8839 75.7427 69.2109 75.787 69.4871 75.8756C69.7633 75.9642 69.9913 76.088 70.1711 76.2469C70.3509 76.4059 70.4838 76.5961 70.5698 76.8176C70.6583 77.0391 70.7026 77.2814 70.7026 77.5446C70.7026 77.8182 70.657 78.0696 70.5658 78.2989C70.4746 78.5256 70.3378 78.721 70.1554 78.8852C69.973 79.0494 69.7437 79.177 69.4675 79.2682C69.1939 79.3594 68.8734 79.405 68.506 79.405H67.7204V81.3945H66.669V75.7427H68.506ZM72.7208 76.5792V78.1465H74.6985V78.9556H72.7208V80.5542H75.2301V81.3945H71.6655V75.7427H75.2301V76.5792H72.7208ZM80.0771 80.0617C80.1345 80.0617 80.1853 80.0838 80.2296 80.1281L80.6439 80.5776C80.4146 80.8616 80.1319 81.0792 79.7957 81.2303C79.4622 81.3815 79.0609 81.457 78.5919 81.457C78.1724 81.457 77.7945 81.3854 77.4584 81.2421C77.1249 81.0988 76.8395 80.8994 76.6024 80.6441C76.3653 80.3887 76.1829 80.0838 76.0552 79.7295C75.9301 79.3751 75.8676 78.9881 75.8676 78.5686C75.8676 78.1439 75.9354 77.7556 76.0709 77.4039C76.2064 77.0495 76.3966 76.7446 76.6415 76.4893C76.889 76.2339 77.1835 76.0359 77.5248 75.8951C77.8662 75.7518 78.244 75.6802 78.6583 75.6802C79.07 75.6802 79.4348 75.7479 79.7527 75.8834C80.0732 76.0189 80.3455 76.1961 80.5696 76.415L80.2178 76.9036C80.197 76.9348 80.1696 76.9622 80.1358 76.9856C80.1045 77.0091 80.0602 77.0208 80.0029 77.0208C79.9638 77.0208 79.9234 77.0104 79.8817 76.9895C79.84 76.9661 79.7944 76.9387 79.7449 76.9075C79.6954 76.8736 79.6381 76.8371 79.5729 76.798C79.5078 76.7589 79.4322 76.7238 79.3462 76.6925C79.2602 76.6586 79.1599 76.6313 79.0453 76.6104C78.9332 76.587 78.8029 76.5752 78.6544 76.5752C78.4017 76.5752 78.1698 76.6208 77.9587 76.712C77.7502 76.8006 77.5704 76.9309 77.4193 77.1029C77.2682 77.2723 77.1509 77.4807 77.0675 77.7283C76.9842 77.9732 76.9425 78.2533 76.9425 78.5686C76.9425 78.8865 76.9868 79.1692 77.0754 79.4168C77.1666 79.6643 77.289 79.8728 77.4428 80.0421C77.5965 80.2115 77.7776 80.3418 77.9861 80.433C78.1945 80.5216 78.4186 80.5659 78.6583 80.5659C78.8016 80.5659 78.9306 80.5581 79.0453 80.5424C79.1625 80.5268 79.2694 80.502 79.3658 80.4682C79.4648 80.4343 79.5573 80.3913 79.6433 80.3392C79.7319 80.2845 79.8192 80.218 79.9052 80.1399C79.9312 80.1164 79.9586 80.0982 79.9872 80.0851C80.0159 80.0695 80.0459 80.0617 80.0771 80.0617ZM82.5756 81.3945H81.5203V75.7427H82.5756V81.3945ZM86.9836 79.2604L86.2957 77.3804C86.2618 77.297 86.2266 77.198 86.1901 77.0834C86.1537 76.9687 86.1172 76.8449 86.0807 76.712C86.0468 76.8449 86.0117 76.97 85.9752 77.0873C85.9387 77.2019 85.9035 77.3022 85.8696 77.3882L85.1856 79.2604H86.9836ZM88.8402 81.3945H88.0272C87.936 81.3945 87.8617 81.3724 87.8044 81.3281C87.7471 81.2812 87.7041 81.2238 87.6754 81.1561L87.2533 80.0031H84.912L84.4899 81.1561C84.4691 81.216 84.4287 81.2707 84.3688 81.3202C84.3088 81.3698 84.2346 81.3945 84.146 81.3945H83.3252L85.5491 75.7427H86.6201L88.8402 81.3945ZM92.892 80.5268V81.3945H89.5815V75.7427H90.6329V80.5268H92.892ZM101.748 75.7427V81.3945H100.822V77.7439C100.822 77.598 100.83 77.4403 100.846 77.271L99.1375 80.4799C99.0567 80.6336 98.933 80.7105 98.7662 80.7105H98.6177C98.4509 80.7105 98.3271 80.6336 98.2463 80.4799L96.5188 77.2592C96.5266 77.3452 96.5331 77.4299 96.5383 77.5133C96.5435 77.5967 96.5461 77.6735 96.5461 77.7439V81.3945H95.6198V75.7427H96.4132C96.4601 75.7427 96.5005 75.744 96.5344 75.7466C96.5683 75.7492 96.5982 75.7557 96.6243 75.7662C96.653 75.7766 96.6777 75.7935 96.6986 75.817C96.722 75.8404 96.7442 75.8717 96.765 75.9108L98.4574 79.0494C98.5017 79.1327 98.5421 79.2187 98.5786 79.3073C98.6177 79.3959 98.6554 79.4871 98.6919 79.5809C98.7284 79.4845 98.7662 79.392 98.8053 79.3034C98.8444 79.2122 98.8861 79.1249 98.9304 79.0415L100.599 75.9108C100.62 75.8717 100.642 75.8404 100.666 75.817C100.689 75.7935 100.714 75.7766 100.74 75.7662C100.769 75.7557 100.8 75.7492 100.834 75.7466C100.868 75.744 100.908 75.7427 100.955 75.7427H101.748ZM104.221 76.5792V78.1465H106.199V78.9556H104.221V80.5542H106.73V81.3945H103.166V75.7427H106.73V76.5792H104.221ZM112.583 75.7427V81.3945H112.044C111.96 81.3945 111.89 81.3815 111.833 81.3554C111.778 81.3268 111.724 81.2799 111.672 81.2147L108.721 77.4469C108.737 77.6188 108.745 77.7778 108.745 77.9237V81.3945H107.818V75.7427H108.37C108.414 75.7427 108.452 75.7453 108.483 75.7505C108.517 75.7531 108.545 75.761 108.569 75.774C108.595 75.7844 108.62 75.8013 108.643 75.8248C108.667 75.8456 108.693 75.8743 108.721 75.9108L111.684 79.6943C111.676 79.6031 111.67 79.5132 111.664 79.4246C111.659 79.336 111.657 79.2539 111.657 79.1784V75.7427H112.583ZM117.007 76.7707C116.976 76.8254 116.942 76.8658 116.906 76.8918C116.872 76.9153 116.829 76.927 116.777 76.927C116.722 76.927 116.662 76.9075 116.597 76.8684C116.535 76.8267 116.459 76.7811 116.37 76.7316C116.282 76.6821 116.178 76.6378 116.058 76.5987C115.94 76.557 115.801 76.5362 115.639 76.5362C115.494 76.5362 115.366 76.5544 115.256 76.5909C115.147 76.6247 115.055 76.673 114.979 76.7355C114.906 76.798 114.851 76.8736 114.815 76.9622C114.778 77.0482 114.76 77.1433 114.76 77.2475C114.76 77.3804 114.797 77.4912 114.87 77.5797C114.945 77.6683 115.044 77.7439 115.167 77.8064C115.289 77.869 115.428 77.925 115.585 77.9745C115.741 78.024 115.901 78.0774 116.066 78.1348C116.23 78.1895 116.39 78.2546 116.546 78.3302C116.703 78.4031 116.842 78.497 116.964 78.6116C117.087 78.7236 117.185 78.8618 117.258 79.0259C117.333 79.1901 117.371 79.3894 117.371 79.6239C117.371 79.8793 117.327 80.119 117.238 80.3431C117.152 80.5646 117.024 80.7587 116.855 80.9255C116.688 81.0896 116.484 81.2199 116.241 81.3163C115.999 81.4101 115.722 81.457 115.409 81.457C115.229 81.457 115.052 81.4388 114.877 81.4023C114.703 81.3684 114.535 81.3189 114.373 81.2538C114.214 81.1887 114.064 81.1105 113.924 81.0193C113.783 80.9281 113.658 80.8265 113.548 80.7144L113.857 80.2102C113.883 80.1737 113.917 80.1438 113.959 80.1203C114 80.0943 114.045 80.0812 114.092 80.0812C114.157 80.0812 114.227 80.1086 114.303 80.1633C114.378 80.2154 114.468 80.274 114.572 80.3392C114.677 80.4043 114.798 80.4643 114.936 80.519C115.077 80.5711 115.245 80.5972 115.44 80.5972C115.74 80.5972 115.972 80.5268 116.136 80.3861C116.3 80.2428 116.382 80.0382 116.382 79.7725C116.382 79.6239 116.344 79.5028 116.269 79.409C116.196 79.3151 116.098 79.237 115.976 79.1744C115.853 79.1093 115.714 79.0546 115.557 79.0103C115.401 78.966 115.242 78.9178 115.081 78.8657C114.919 78.8135 114.76 78.751 114.604 78.678C114.447 78.6051 114.308 78.51 114.186 78.3927C114.063 78.2755 113.964 78.1295 113.888 77.955C113.815 77.7778 113.779 77.5602 113.779 77.3022C113.779 77.0964 113.819 76.8957 113.9 76.7003C113.984 76.5049 114.103 76.3316 114.26 76.1805C114.416 76.0293 114.609 75.9082 114.838 75.817C115.068 75.7258 115.331 75.6802 115.628 75.6802C115.961 75.6802 116.269 75.7323 116.55 75.8365C116.832 75.9407 117.071 76.0867 117.269 76.2743L117.007 76.7707ZM119.5 81.3945H118.445V75.7427H119.5V81.3945ZM126.312 78.5686C126.312 78.9829 126.243 79.3673 126.104 79.7216C125.969 80.0734 125.776 80.3783 125.526 80.6362C125.276 80.8942 124.975 81.0962 124.623 81.2421C124.271 81.3854 123.881 81.457 123.451 81.457C123.023 81.457 122.634 81.3854 122.282 81.2421C121.93 81.0962 121.628 80.8942 121.375 80.6362C121.125 80.3783 120.931 80.0734 120.793 79.7216C120.655 79.3673 120.586 78.9829 120.586 78.5686C120.586 78.1543 120.655 77.7713 120.793 77.4195C120.931 77.0651 121.125 76.7589 121.375 76.501C121.628 76.243 121.93 76.0424 122.282 75.8991C122.634 75.7531 123.023 75.6802 123.451 75.6802C123.737 75.6802 124.007 75.7141 124.26 75.7818C124.512 75.8469 124.744 75.9407 124.955 76.0632C125.166 76.1831 125.355 76.3303 125.522 76.5049C125.691 76.6769 125.835 76.8697 125.952 77.0834C126.069 77.297 126.158 77.5289 126.218 77.7791C126.28 78.0292 126.312 78.2924 126.312 78.5686ZM125.237 78.5686C125.237 78.2585 125.195 77.981 125.112 77.7361C125.028 77.4885 124.91 77.2788 124.756 77.1068C124.602 76.9348 124.415 76.8032 124.193 76.712C123.974 76.6208 123.727 76.5752 123.451 76.5752C123.174 76.5752 122.926 76.6208 122.704 76.712C122.485 76.8032 122.298 76.9348 122.141 77.1068C121.987 77.2788 121.869 77.4885 121.785 77.7361C121.702 77.981 121.66 78.2585 121.66 78.5686C121.66 78.8787 121.702 79.1575 121.785 79.405C121.869 79.65 121.987 79.8584 122.141 80.0304C122.298 80.1998 122.485 80.3301 122.704 80.4213C122.926 80.5125 123.174 80.5581 123.451 80.5581C123.727 80.5581 123.974 80.5125 124.193 80.4213C124.415 80.3301 124.602 80.1998 124.756 80.0304C124.91 79.8584 125.028 79.65 125.112 79.405C125.195 79.1575 125.237 78.8787 125.237 78.5686ZM132.156 75.7427V81.3945H131.616C131.533 81.3945 131.463 81.3815 131.405 81.3554C131.351 81.3268 131.297 81.2799 131.245 81.2147L128.294 77.4469C128.31 77.6188 128.318 77.7778 128.318 77.9237V81.3945H127.391V75.7427H127.942C127.987 75.7427 128.024 75.7453 128.056 75.7505C128.09 75.7531 128.118 75.761 128.142 75.774C128.168 75.7844 128.193 75.8013 128.216 75.8248C128.239 75.8456 128.265 75.8743 128.294 75.9108L131.257 79.6943C131.249 79.6031 131.243 79.5132 131.237 79.4246C131.232 79.336 131.229 79.2539 131.229 79.1784V75.7427H132.156Z" fill="black"/>
<path d="M89.5923 98.7378C89.7369 98.7378 89.8511 98.7795 89.9341 98.8624C90.0209 98.9424 90.0643 99.0488 90.0643 99.1829V99.9864H84.6792V99.5412C84.6792 99.4505 84.6974 99.3567 84.7335 99.2589C84.7734 99.1573 84.8351 99.067 84.9181 98.9875L87.3014 96.5989C87.5003 96.3961 87.6779 96.2024 87.8334 96.0179C87.9928 95.8333 88.1248 95.6505 88.2295 95.4698C88.3346 95.2887 88.4141 95.1059 88.4683 94.9213C88.5265 94.7333 88.5552 94.5361 88.5552 94.3298C88.5552 94.1413 88.5283 93.9767 88.474 93.8356C88.4197 93.691 88.342 93.5698 88.2403 93.4721C88.1426 93.3744 88.0232 93.3018 87.8821 93.2549C87.7448 93.2041 87.5889 93.179 87.4152 93.179C87.2563 93.179 87.1077 93.2024 86.9701 93.2493C86.8363 93.2927 86.7169 93.3561 86.6118 93.4395C86.5071 93.519 86.4185 93.6132 86.346 93.7218C86.2735 93.8304 86.2192 93.9498 86.1831 94.0801C86.1215 94.2464 86.042 94.3567 85.9443 94.411C85.8466 94.4653 85.7054 94.4779 85.5208 94.4492L84.8151 94.3242C84.8694 93.9481 84.9745 93.6184 85.13 93.3362C85.2855 93.0504 85.4792 92.8133 85.7106 92.6252C85.946 92.4333 86.214 92.2904 86.5141 92.1962C86.8181 92.0984 87.1438 92.0498 87.4912 92.0498C87.8534 92.0498 88.1843 92.1041 88.4848 92.2127C88.7854 92.3173 89.042 92.4676 89.2557 92.663C89.4694 92.8584 89.6357 93.0938 89.7551 93.3687C89.8746 93.6441 89.9341 93.9498 89.9341 94.2864C89.9341 94.5756 89.8906 94.8436 89.8038 95.0898C89.7208 95.3356 89.6066 95.571 89.462 95.7955C89.3208 96.0196 89.1545 96.2368 88.9626 96.4469C88.7706 96.6567 88.57 96.8704 88.3598 97.0875L86.5901 98.895C86.7603 98.8446 86.9288 98.8064 87.0951 98.7812C87.2654 98.7521 87.4261 98.7378 87.5781 98.7378H89.5923ZM96.8075 96.0613C96.8075 96.7453 96.7337 97.3407 96.5851 97.8475C96.4405 98.3504 96.2377 98.7665 95.9771 99.0961C95.72 99.4253 95.4143 99.6715 95.0595 99.8344C94.7086 99.9933 94.3286 100.073 93.9195 100.073C93.5108 100.073 93.1308 99.9933 92.7795 99.8344C92.4321 99.6715 92.1302 99.4253 91.8731 99.0961C91.616 98.7665 91.4154 98.3504 91.2704 97.8475C91.1257 97.3407 91.0532 96.7453 91.0532 96.0613C91.0532 95.3738 91.1257 94.7784 91.2704 94.2755C91.4154 93.7722 91.616 93.3561 91.8731 93.0269C92.1302 92.6973 92.4321 92.4533 92.7795 92.2939C93.1308 92.131 93.5108 92.0498 93.9195 92.0498C94.3286 92.0498 94.7086 92.131 95.0595 92.2939C95.4143 92.4533 95.72 92.6973 95.9771 93.0269C96.2377 93.3561 96.4405 93.7722 96.5851 94.2755C96.7337 94.7784 96.8075 95.3738 96.8075 96.0613ZM95.4234 96.0613C95.4234 95.4933 95.3817 95.0229 95.2984 94.6499C95.2154 94.2773 95.1029 93.9806 94.9618 93.7596C94.8245 93.539 94.6652 93.3852 94.4841 93.2984C94.3034 93.2076 94.1149 93.1624 93.9195 93.1624C93.728 93.1624 93.5417 93.2076 93.3606 93.2984C93.1834 93.3852 93.0257 93.539 92.8881 93.7596C92.7508 93.9806 92.6405 94.2773 92.5571 94.6499C92.4777 95.0229 92.4377 95.4933 92.4377 96.0613C92.4377 96.6298 92.4777 97.1001 92.5571 97.4727C92.6405 97.8458 92.7508 98.1424 92.8881 98.363C93.0257 98.5841 93.1834 98.7395 93.3606 98.8299C93.5417 98.9167 93.728 98.9602 93.9195 98.9602C94.1149 98.9602 94.3034 98.9167 94.4841 98.8299C94.6652 98.7395 94.8245 98.5841 94.9618 98.363C95.1029 98.1424 95.2154 97.8458 95.2984 97.4727C95.3817 97.1001 95.4234 96.6298 95.4234 96.0613ZM102.623 98.7378C102.767 98.7378 102.881 98.7795 102.964 98.8624C103.051 98.9424 103.095 99.0488 103.095 99.1829V99.9864H97.7095V99.5412C97.7095 99.4505 97.7277 99.3567 97.7638 99.2589C97.8037 99.1573 97.8654 99.067 97.9484 98.9875L100.332 96.5989C100.531 96.3961 100.708 96.2024 100.864 96.0179C101.023 95.8333 101.155 95.6505 101.26 95.4698C101.365 95.2887 101.444 95.1059 101.499 94.9213C101.557 94.7333 101.586 94.5361 101.586 94.3298C101.586 94.1413 101.559 93.9767 101.504 93.8356C101.45 93.691 101.372 93.5698 101.271 93.4721C101.173 93.3744 101.054 93.3018 100.912 93.2549C100.775 93.2041 100.619 93.179 100.446 93.179C100.287 93.179 100.138 93.2024 100 93.2493C99.8666 93.2927 99.7472 93.3561 99.6421 93.4395C99.5374 93.519 99.4488 93.6132 99.3763 93.7218C99.3038 93.8304 99.2495 93.9498 99.2134 94.0801C99.1518 94.2464 99.0723 94.3567 98.9746 94.411C98.8769 94.4653 98.7357 94.4779 98.5512 94.4492L97.8454 94.3242C97.8997 93.9481 98.0048 93.6184 98.1603 93.3362C98.3158 93.0504 98.5095 92.8133 98.7409 92.6252C98.9763 92.4333 99.2443 92.2904 99.5444 92.1962C99.8484 92.0984 100.174 92.0498 100.522 92.0498C100.884 92.0498 101.215 92.1041 101.515 92.2127C101.816 92.3173 102.072 92.4676 102.286 92.663C102.5 92.8584 102.666 93.0938 102.785 93.3687C102.905 93.6441 102.964 93.9498 102.964 94.2864C102.964 94.5756 102.921 94.8436 102.834 95.0898C102.751 95.3356 102.637 95.571 102.492 95.7955C102.351 96.0196 102.185 96.2368 101.993 96.4469C101.801 96.6567 101.6 96.8704 101.39 97.0875L99.6204 98.895C99.7906 98.8446 99.9591 98.8064 100.125 98.7812C100.296 98.7521 100.456 98.7378 100.608 98.7378H102.623ZM106.016 94.9864C106.19 94.9504 106.357 94.9252 106.516 94.9104C106.675 94.8926 106.829 94.8835 106.977 94.8835C107.39 94.8835 107.753 94.9448 108.068 95.0681C108.383 95.191 108.647 95.3612 108.861 95.5784C109.074 95.7955 109.235 96.0504 109.344 96.3436C109.453 96.6333 109.507 96.9464 109.507 97.2829C109.507 97.699 109.433 98.079 109.284 98.4229C109.139 98.7665 108.937 99.0618 108.676 99.3076C108.416 99.5504 108.106 99.7384 107.748 99.8722C107.393 100.006 107.006 100.073 106.586 100.073C106.34 100.073 106.107 100.048 105.886 99.9972C105.665 99.9464 105.457 99.8795 105.262 99.7962C105.07 99.7093 104.891 99.6116 104.724 99.503C104.561 99.391 104.415 99.2733 104.285 99.1504L104.697 98.5802C104.784 98.4573 104.898 98.3956 105.039 98.3956C105.13 98.3956 105.222 98.4247 105.316 98.4824C105.41 98.5406 105.517 98.6036 105.636 98.6727C105.759 98.7413 105.902 98.8047 106.065 98.8624C106.231 98.9206 106.43 98.9493 106.662 98.9493C106.908 98.9493 107.125 98.9098 107.314 98.8299C107.502 98.7504 107.657 98.6401 107.781 98.499C107.907 98.3539 108.001 98.1841 108.063 97.9887C108.128 97.7893 108.161 97.5744 108.161 97.3424C108.161 96.9155 108.036 96.5824 107.786 96.3436C107.54 96.1013 107.174 95.9801 106.689 95.9801C106.317 95.9801 105.935 96.0487 105.544 96.1864L104.708 95.9475L105.359 92.1367H109.235V92.7064C109.235 92.8984 109.176 93.0539 109.056 93.1733C108.937 93.2927 108.734 93.3527 108.448 93.3527H106.293L106.016 94.9864Z" fill="black"/>
</g>
</g>
<defs>
<filter id="filter0_d_1045_22083" x="-9.72748e-05" y="-9.72748e-05" width="194.8" height="134.8" filterUnits="userSpaceOnUse" color-interpolation-filters="sRGB">
<feFlood flood-opacity="0" result="BackgroundImageFix"/>
<feColorMatrix in="SourceAlpha" type="matrix" values="0 0 0 0 0 0 0 0 0 0 0 0 0 0 0 0 0 0 127 0" result="hardAlpha"/>
<feOffset/>
<feGaussianBlur stdDeviation="4.2"/>
<feComposite in2="hardAlpha" operator="out"/>
<feColorMatrix type="matrix" values="0 0 0 0 0 0 0 0 0 0 0 0 0 0 0 0 0 0 0.25 0"/>
<feBlend mode="normal" in2="BackgroundImageFix" result="effect1_dropShadow_1045_22083"/>
<feBlend mode="normal" in="SourceGraphic" in2="effect1_dropShadow_1045_22083" result="shape"/>
</filter>
</defs>
</svg>
