<svg width="1440" height="574" viewBox="0 0 1440 574" fill="none" xmlns="http://www.w3.org/2000/svg">
<g opacity="0.5" clip-path="url(#clip0_862_4990)">
<g filter="url(#filter0_f_862_4990)">
<ellipse cx="664.985" cy="673.184" rx="664.985" ry="673.184" transform="matrix(0.621948 -0.783059 -0.783059 -0.621948 1622.83 1314.4)" fill="url(#paint0_linear_862_4990)"/>
</g>
<g filter="url(#filter1_f_862_4990)">
<ellipse cx="449.681" cy="454.849" rx="449.681" ry="454.849" transform="matrix(-1 0 0 1 1685.74 -694.523)" fill="#00A0EF"/>
</g>
<g filter="url(#filter2_f_862_4990)">
<ellipse cx="367.337" cy="371.793" rx="367.337" ry="371.793" transform="matrix(-1 0 0 1 1814.42 -707)" fill="#58AEF2"/>
</g>
<g filter="url(#filter3_f_862_4990)">
<path d="M658.633 677.535C518.225 327.215 740.059 -104.066 1375.14 -223.195C785.873 17.2066 779.626 415.712 834.37 712.696L658.633 677.535Z" fill="white" fill-opacity="0.85"/>
</g>
<g filter="url(#filter4_f_862_4990)">
<path d="M516.566 512.432C361.606 296.29 440.937 -36.1339 855.532 -224.389C492.67 39.1586 555.366 312.923 642.739 506.961L516.566 512.432Z" fill="white" fill-opacity="0.85"/>
</g>
<g filter="url(#filter5_f_862_4990)">
<path d="M993.119 662.495C885.229 383.019 1065.68 42.9573 1570.96 -45.1547C1100.81 139.677 1091.81 455.912 1132.25 692.185L993.119 662.495Z" fill="url(#paint1_linear_862_4990)" fill-opacity="0.7"/>
</g>
<g filter="url(#filter6_f_862_4990)">
<path d="M1209.51 703.957C1165.3 407.661 1415.68 115.242 1928.01 139.658C1428.83 217.301 1845.53 615.79 1833.37 855.19L1209.51 703.957Z" fill="white" fill-opacity="0.8"/>
</g>
<g filter="url(#filter7_f_862_4990)">
<ellipse cx="-144.272" cy="463.994" rx="664.985" ry="673.184" transform="rotate(-128.459 -144.272 463.994)" fill="url(#paint2_linear_862_4990)"/>
</g>
<g filter="url(#filter8_f_862_4990)">
<ellipse cx="128.942" cy="-150.674" rx="449.681" ry="454.849" fill="#00A0EF"/>
</g>
<g filter="url(#filter9_f_862_4990)">
<ellipse cx="-82.0865" cy="-246.207" rx="367.337" ry="371.793" fill="#58AEF2"/>
</g>
<g filter="url(#filter10_f_862_4990)">
<path d="M706.367 766.535C846.775 416.215 624.941 -15.0659 -10.1448 -134.195C579.127 106.207 585.374 504.712 530.63 801.696L706.367 766.535Z" fill="white" fill-opacity="0.85"/>
</g>
<g filter="url(#filter11_f_862_4990)">
<path d="M848.434 601.432C1003.39 385.29 924.063 52.8661 509.468 -135.389C872.33 128.159 809.634 401.923 722.261 595.961L848.434 601.432Z" fill="white" fill-opacity="0.85"/>
</g>
<g filter="url(#filter12_f_862_4990)">
<path d="M371.881 751.495C479.771 472.019 299.324 131.957 -205.958 43.8453C264.191 228.677 273.192 544.912 232.754 781.185L371.881 751.495Z" fill="url(#paint3_linear_862_4990)" fill-opacity="0.7"/>
</g>
<g filter="url(#filter13_f_862_4990)">
<path d="M155.485 792.957C199.705 496.661 -50.6825 204.241 -563.008 228.658C-63.8339 306.301 -480.531 704.79 -468.369 944.19L155.485 792.957Z" fill="white" fill-opacity="0.8"/>
</g>
</g>
<defs>
<filter id="filter0_f_862_4990" x="482.753" y="-649.663" width="2053.04" height="2049.31" filterUnits="userSpaceOnUse" color-interpolation-filters="sRGB">
<feFlood flood-opacity="0" result="BackgroundImageFix"/>
<feBlend mode="normal" in="SourceGraphic" in2="BackgroundImageFix" result="shape"/>
<feGaussianBlur stdDeviation="178.232" result="effect1_foregroundBlur_862_4990"/>
</filter>
<filter id="filter1_f_862_4990" x="429.912" y="-1050.99" width="1612.29" height="1622.63" filterUnits="userSpaceOnUse" color-interpolation-filters="sRGB">
<feFlood flood-opacity="0" result="BackgroundImageFix"/>
<feBlend mode="normal" in="SourceGraphic" in2="BackgroundImageFix" result="shape"/>
<feGaussianBlur stdDeviation="178.232" result="effect1_foregroundBlur_862_4990"/>
</filter>
<filter id="filter2_f_862_4990" x="723.285" y="-1063.46" width="1447.6" height="1456.52" filterUnits="userSpaceOnUse" color-interpolation-filters="sRGB">
<feFlood flood-opacity="0" result="BackgroundImageFix"/>
<feBlend mode="normal" in="SourceGraphic" in2="BackgroundImageFix" result="shape"/>
<feGaussianBlur stdDeviation="178.232" result="effect1_foregroundBlur_862_4990"/>
</filter>
<filter id="filter3_f_862_4990" x="439.947" y="-401.428" width="1113.43" height="1292.36" filterUnits="userSpaceOnUse" color-interpolation-filters="sRGB">
<feFlood flood-opacity="0" result="BackgroundImageFix"/>
<feBlend mode="normal" in="SourceGraphic" in2="BackgroundImageFix" result="shape"/>
<feGaussianBlur stdDeviation="89.1162" result="effect1_foregroundBlur_862_4990"/>
</filter>
<filter id="filter4_f_862_4990" x="264.775" y="-402.622" width="768.989" height="1093.29" filterUnits="userSpaceOnUse" color-interpolation-filters="sRGB">
<feFlood flood-opacity="0" result="BackgroundImageFix"/>
<feBlend mode="normal" in="SourceGraphic" in2="BackgroundImageFix" result="shape"/>
<feGaussianBlur stdDeviation="89.1162" result="effect1_foregroundBlur_862_4990"/>
</filter>
<filter id="filter5_f_862_4990" x="838.313" y="-169.917" width="857.407" height="986.866" filterUnits="userSpaceOnUse" color-interpolation-filters="sRGB">
<feFlood flood-opacity="0" result="BackgroundImageFix"/>
<feBlend mode="normal" in="SourceGraphic" in2="BackgroundImageFix" result="shape"/>
<feGaussianBlur stdDeviation="62.3814" result="effect1_foregroundBlur_862_4990"/>
</filter>
<filter id="filter6_f_862_4990" x="990.644" y="-75.6504" width="1151.24" height="1144.72" filterUnits="userSpaceOnUse" color-interpolation-filters="sRGB">
<feFlood flood-opacity="0" result="BackgroundImageFix"/>
<feBlend mode="normal" in="SourceGraphic" in2="BackgroundImageFix" result="shape"/>
<feGaussianBlur stdDeviation="106.94" result="effect1_foregroundBlur_862_4990"/>
</filter>
<filter id="filter7_f_862_4990" x="-1170.79" y="-560.663" width="2053.04" height="2049.31" filterUnits="userSpaceOnUse" color-interpolation-filters="sRGB">
<feFlood flood-opacity="0" result="BackgroundImageFix"/>
<feBlend mode="normal" in="SourceGraphic" in2="BackgroundImageFix" result="shape"/>
<feGaussianBlur stdDeviation="178.232" result="effect1_foregroundBlur_862_4990"/>
</filter>
<filter id="filter8_f_862_4990" x="-677.203" y="-961.988" width="1612.29" height="1622.63" filterUnits="userSpaceOnUse" color-interpolation-filters="sRGB">
<feFlood flood-opacity="0" result="BackgroundImageFix"/>
<feBlend mode="normal" in="SourceGraphic" in2="BackgroundImageFix" result="shape"/>
<feGaussianBlur stdDeviation="178.232" result="effect1_foregroundBlur_862_4990"/>
</filter>
<filter id="filter9_f_862_4990" x="-805.889" y="-974.465" width="1447.6" height="1456.52" filterUnits="userSpaceOnUse" color-interpolation-filters="sRGB">
<feFlood flood-opacity="0" result="BackgroundImageFix"/>
<feBlend mode="normal" in="SourceGraphic" in2="BackgroundImageFix" result="shape"/>
<feGaussianBlur stdDeviation="178.232" result="effect1_foregroundBlur_862_4990"/>
</filter>
<filter id="filter10_f_862_4990" x="-188.377" y="-312.428" width="1113.43" height="1292.36" filterUnits="userSpaceOnUse" color-interpolation-filters="sRGB">
<feFlood flood-opacity="0" result="BackgroundImageFix"/>
<feBlend mode="normal" in="SourceGraphic" in2="BackgroundImageFix" result="shape"/>
<feGaussianBlur stdDeviation="89.1162" result="effect1_foregroundBlur_862_4990"/>
</filter>
<filter id="filter11_f_862_4990" x="331.236" y="-313.622" width="768.989" height="1093.29" filterUnits="userSpaceOnUse" color-interpolation-filters="sRGB">
<feFlood flood-opacity="0" result="BackgroundImageFix"/>
<feBlend mode="normal" in="SourceGraphic" in2="BackgroundImageFix" result="shape"/>
<feGaussianBlur stdDeviation="89.1162" result="effect1_foregroundBlur_862_4990"/>
</filter>
<filter id="filter12_f_862_4990" x="-330.72" y="-80.9174" width="857.407" height="986.866" filterUnits="userSpaceOnUse" color-interpolation-filters="sRGB">
<feFlood flood-opacity="0" result="BackgroundImageFix"/>
<feBlend mode="normal" in="SourceGraphic" in2="BackgroundImageFix" result="shape"/>
<feGaussianBlur stdDeviation="62.3814" result="effect1_foregroundBlur_862_4990"/>
</filter>
<filter id="filter13_f_862_4990" x="-776.887" y="13.3496" width="1151.24" height="1144.72" filterUnits="userSpaceOnUse" color-interpolation-filters="sRGB">
<feFlood flood-opacity="0" result="BackgroundImageFix"/>
<feBlend mode="normal" in="SourceGraphic" in2="BackgroundImageFix" result="shape"/>
<feGaussianBlur stdDeviation="106.94" result="effect1_foregroundBlur_862_4990"/>
</filter>
<linearGradient id="paint0_linear_862_4990" x1="490.852" y1="1021.09" x2="664.985" y2="1346.37" gradientUnits="userSpaceOnUse">
<stop stop-color="white"/>
<stop offset="1" stop-color="#0E26F9"/>
</linearGradient>
<linearGradient id="paint1_linear_862_4990" x1="1063.17" y1="438.585" x2="1975.44" y2="-413.301" gradientUnits="userSpaceOnUse">
<stop stop-color="white"/>
<stop offset="1" stop-color="white" stop-opacity="0"/>
</linearGradient>
<linearGradient id="paint2_linear_862_4990" x1="-318.405" y1="811.904" x2="-144.272" y2="1137.18" gradientUnits="userSpaceOnUse">
<stop stop-color="white"/>
<stop offset="1" stop-color="#0E26F9"/>
</linearGradient>
<linearGradient id="paint3_linear_862_4990" x1="301.831" y1="527.585" x2="-610.438" y2="-324.301" gradientUnits="userSpaceOnUse">
<stop stop-color="white"/>
<stop offset="1" stop-color="white" stop-opacity="0"/>
</linearGradient>
<clipPath id="clip0_862_4990">
<rect width="1440" height="768" fill="white" transform="translate(0 -194)"/>
</clipPath>
</defs>
</svg>
