<svg width="185" height="56" viewBox="0 0 185 56" fill="none" xmlns="http://www.w3.org/2000/svg">
<path d="M66.1953 34.9999H69.7143V18.4399H66.1953V34.9999Z" fill="#747474"/>
<path d="M76.9333 35.3679C80.6133 35.3679 83.0283 32.9989 83.0283 28.8129C83.0283 24.7649 80.6823 22.2349 76.9333 22.2349C73.2533 22.2349 70.8613 24.6039 70.8613 28.8129C70.8613 32.8839 73.1843 35.3679 76.9333 35.3679ZM76.9333 32.5159C75.3463 32.5159 74.4723 31.2049 74.4723 28.8129C74.4723 26.3979 75.3233 25.0869 76.9333 25.0869C78.5433 25.0869 79.4173 26.4209 79.4173 28.8129C79.4173 31.2279 78.5663 32.5159 76.9333 32.5159Z" fill="#747474"/>
<path d="M88.7529 35.0229C90.0869 35.0229 91.1909 34.4709 91.9729 33.3899V35.4599C91.9729 37.1849 91.1219 37.7599 89.8569 37.7599C88.6379 37.7599 87.6949 37.1619 87.5569 36.0579H84.0379C84.4749 39.0709 86.7519 40.4509 89.9029 40.4509C93.1459 40.4509 95.4919 38.7259 95.4919 35.4139V22.6259H91.9729V23.7759C91.2139 22.7639 90.1329 22.2349 88.7529 22.2349C85.6709 22.2349 83.6699 24.5349 83.6699 28.6519C83.6699 32.5849 85.6249 35.0229 88.7529 35.0229ZM89.6039 32.1709C88.0859 32.1709 87.2809 30.9059 87.2809 28.6519C87.2809 26.3289 88.0859 25.0869 89.6039 25.0869C91.1449 25.0869 91.9729 26.3519 91.9729 28.6289C91.9729 30.9289 91.1679 32.1709 89.6039 32.1709Z" fill="#747474"/>
<path d="M102.732 35.3679C106.412 35.3679 108.827 32.9989 108.827 28.8129C108.827 24.7649 106.481 22.2349 102.732 22.2349C99.0522 22.2349 96.6602 24.6039 96.6602 28.8129C96.6602 32.8839 98.9832 35.3679 102.732 35.3679ZM102.732 32.5159C101.145 32.5159 100.271 31.2049 100.271 28.8129C100.271 26.3979 101.122 25.0869 102.732 25.0869C104.342 25.0869 105.216 26.4209 105.216 28.8129C105.216 31.2279 104.365 32.5159 102.732 32.5159Z" fill="#747474"/>
<path d="M109.998 21.3839H113.517V18.4399H109.998V21.3839ZM109.998 34.9999H113.517V22.6259H109.998V34.9999Z" fill="#747474"/>
<path d="M118.71 40.0829V33.7579C119.446 34.8159 120.504 35.3679 121.815 35.3679C124.966 35.3679 127.013 32.9989 127.013 28.7899C127.013 24.7419 125.012 22.2349 121.815 22.2349C120.527 22.2349 119.469 22.8329 118.71 23.9139V22.6259H115.191V40.0829H118.71ZM121.079 25.0869C122.574 25.0869 123.402 26.3979 123.402 28.7899C123.402 31.2049 122.597 32.5159 121.079 32.5159C119.538 32.5159 118.71 31.1819 118.71 28.7899C118.71 26.3979 119.515 25.0869 121.079 25.0869Z" fill="#747474"/>
<path d="M131.239 26.0529C131.239 25.3859 131.837 24.9259 132.757 24.9259C133.999 24.9259 134.735 25.4549 134.942 26.7199H138.438C138.093 23.5919 135.839 22.2349 132.872 22.2349C129.56 22.2349 127.881 24.1669 127.881 26.2369C127.881 31.2049 135.379 29.0659 135.379 31.4579C135.379 32.2169 134.758 32.6999 133.516 32.6999C132.205 32.6999 131.262 32.0789 131.101 30.9289H127.582C128.042 33.9879 130.296 35.3679 133.424 35.3679C136.644 35.3679 138.898 33.6889 138.898 31.2509C138.898 26.3519 131.239 28.4909 131.239 26.0529Z" fill="#747474"/>
<path d="M147.569 29.733C147.569 31.32 146.695 32.516 145.338 32.516C144.096 32.516 143.498 31.734 143.498 30.147V22.626H139.979V30.86C139.979 33.942 141.704 35.368 144.05 35.368C145.545 35.368 146.764 34.724 147.569 33.344V35H151.088V22.626H147.569V29.733Z" fill="#747474"/>
<path d="M152.787 34.9999H156.306V27.8929C156.306 26.3059 157.111 25.0869 158.33 25.0869C159.457 25.0869 160.009 25.8919 160.009 27.4559V34.9999H163.505V27.8929C163.505 26.3059 164.333 25.0869 165.552 25.0869C166.679 25.0869 167.208 25.8919 167.208 27.4559V34.9999H170.727V26.7429C170.727 23.6839 169.025 22.2349 166.725 22.2349C165.184 22.2349 163.873 22.8789 163.022 24.2819C162.401 22.9019 161.159 22.2349 159.687 22.2349C158.261 22.2349 157.088 22.8559 156.306 24.1899V22.6259H152.787V34.9999Z" fill="#747474"/>
<path d="M52.8504 40.0526C56.6624 36.6486 59 32.0548 59 27C59 16.5066 48.9264 8 36.5 8C24.0736 8 14 16.5066 14 27C14 37.4934 24.0736 46 36.5 46C40.0253 46 43.3613 45.3154 46.3316 44.0949C49.8208 46.2486 54.0957 47.7967 58.8169 47.4702C56.3227 46.8362 54.1773 44.2679 52.8504 40.0526Z" fill="#7F7F7F"/>
<path d="M53 27C53 34.732 45.6127 41 36.5 41C27.3873 41 20 34.732 20 27C20 19.268 27.3873 13 36.5 13C45.6127 13 53 19.268 53 27Z" fill="#6C6C6C"/>
<path d="M47 27C47 31.9706 42.299 36 36.5 36C30.701 36 26 31.9706 26 27C26 22.0294 30.701 18 36.5 18C42.299 18 47 22.0294 47 27Z" fill="#747474"/>
</svg>
