<svg width="138" height="152" viewBox="0 0 138 152" fill="none" xmlns="http://www.w3.org/2000/svg">
<path d="M127.62 1.21582H12.2129V120.384L70.8324 149.568L127.62 120.384V1.21582Z" fill="url(#paint0_linear_1045_22242)" stroke="#DADADA" stroke-width="2"/>
<path d="M0 97.8878L5.49558 87.5518H131.283L138 97.8878L131.283 107.008H5.49558L0 97.8878Z" fill="#FF492C"/>
<path d="M56.2055 91.9589L53.3478 102.144H50.9298L49.01 94.8919L47.0023 102.144L44.5989 102.159L41.8438 91.9589H44.042L45.8445 99.8678L47.9255 91.9589H50.2117L52.1754 99.824L53.9926 91.9589H56.2055ZM59.5969 91.9589V102.144H57.5452V91.9589H59.5969ZM70.3729 102.144H68.3212L63.6756 95.1546V102.144H61.6239V91.9443H63.6756L68.3212 98.9485V91.9443H70.3729V102.144ZM79.3614 91.9589V93.6078H76.6356V102.144H74.5839V93.6078H71.8581V91.9589H79.3614ZM82.9101 93.6078V96.1614H86.354V97.7811H82.9101V100.481H86.7936V102.144H80.8584V91.9443H86.7936V93.6078H82.9101ZM93.9339 102.144L91.677 98.1751H90.7098V102.144H88.6581V91.9589H92.4977C93.2891 91.9589 93.9632 92.1 94.5201 92.3821C95.0769 92.6545 95.4922 93.029 95.7657 93.5057C96.0491 93.9726 96.1907 94.4979 96.1907 95.0816C96.1907 95.7529 95.9953 96.3608 95.6045 96.9056C95.2137 97.4407 94.6324 97.8103 93.8606 98.0146L96.308 102.144H93.9339ZM90.7098 96.643H92.4244C92.9813 96.643 93.3965 96.5116 93.6701 96.249C93.9436 95.9766 94.0804 95.6021 94.0804 95.1254C94.0804 94.6584 93.9436 94.2985 93.6701 94.0456C93.3965 93.7829 92.9813 93.6516 92.4244 93.6516H90.7098V96.643Z" fill="white"/>
<path d="M35.1244 76.6103H40.1803V79.0399H32.0469V63.7621H35.1244V76.6103ZM53.4573 72.7143C53.4573 73.152 53.428 73.546 53.3693 73.8962H44.4665C44.5398 74.7717 44.8475 75.4576 45.3898 75.9537C45.932 76.4498 46.5988 76.6979 47.3902 76.6979C48.5332 76.6979 49.3466 76.209 49.8302 75.2314H53.1495C52.7978 76.3987 52.1237 77.3618 51.1271 78.1206C50.1306 78.8648 48.9069 79.2369 47.4561 79.2369C46.2837 79.2369 45.2286 78.9815 44.2906 78.4708C43.3674 77.9455 42.642 77.2086 42.1144 76.2601C41.6015 75.3116 41.345 74.2172 41.345 72.9769C41.345 71.722 41.6015 70.6203 42.1144 69.6718C42.6273 68.7234 43.3454 67.9937 44.2687 67.483C45.1919 66.9723 46.2544 66.717 47.4561 66.717C48.6138 66.717 49.647 66.965 50.5556 67.4611C51.4789 67.9573 52.1896 68.665 52.6879 69.5843C53.2008 70.489 53.4573 71.5323 53.4573 72.7143ZM50.2698 71.8387C50.2552 71.0508 49.9694 70.4233 49.4125 69.9564C48.8556 69.4748 48.1742 69.2341 47.3682 69.2341C46.6061 69.2341 45.9613 69.4675 45.4337 69.9345C44.9208 70.3868 44.6057 71.0216 44.4885 71.8387H50.2698ZM54.9123 72.9331C54.9123 71.7074 55.1541 70.6203 55.6377 69.6718C56.1359 68.7234 56.8027 67.9937 57.6381 67.483C58.488 66.9723 59.4333 66.717 60.4738 66.717C61.3824 66.717 62.1737 66.8994 62.8479 67.2642C63.5366 67.629 64.0862 68.0886 64.4965 68.6431V66.9139H67.596V79.0399H64.4965V77.267C64.1009 77.8361 63.5513 78.3103 62.8479 78.6897C62.1591 79.0545 61.3604 79.2369 60.4518 79.2369C59.4259 79.2369 58.488 78.9742 57.6381 78.4489C56.8027 77.9236 56.1359 77.1867 55.6377 76.2382C55.1541 75.2752 54.9123 74.1735 54.9123 72.9331ZM64.4965 72.9769C64.4965 72.2327 64.35 71.598 64.0569 71.0727C63.7638 70.5328 63.3681 70.1242 62.8698 69.8469C62.3716 69.5551 61.8367 69.4092 61.2651 69.4092C60.6936 69.4092 60.166 69.5478 59.6824 69.825C59.1988 70.1023 58.8031 70.5109 58.4954 71.0508C58.2023 71.5761 58.0557 72.2035 58.0557 72.9331C58.0557 73.6627 58.2023 74.3048 58.4954 74.8593C58.8031 75.3992 59.1988 75.8151 59.6824 76.1069C60.1807 76.3987 60.7083 76.5447 61.2651 76.5447C61.8367 76.5447 62.3716 76.406 62.8698 76.1288C63.3681 75.8369 63.7638 75.4284 64.0569 74.9031C64.35 74.3632 64.4965 73.7211 64.4965 72.9769ZM69.8104 72.9331C69.8104 71.7074 70.0522 70.6203 70.5358 69.6718C71.0341 68.7234 71.7082 67.9937 72.5582 67.483C73.4082 66.9723 74.3534 66.717 75.3939 66.717C76.1853 66.717 76.94 66.8921 77.6581 67.2423C78.3762 67.5779 78.9477 68.0302 79.3727 68.5993V62.8428H82.4942V79.0399H79.3727V77.2451C78.9917 77.8433 78.4568 78.3249 77.768 78.6897C77.0792 79.0545 76.2805 79.2369 75.3719 79.2369C74.3461 79.2369 73.4082 78.9742 72.5582 78.4489C71.7082 77.9236 71.0341 77.1867 70.5358 76.2382C70.0522 75.2752 69.8104 74.1735 69.8104 72.9331ZM79.3947 72.9769C79.3947 72.2327 79.2481 71.598 78.955 71.0727C78.6619 70.5328 78.2662 70.1242 77.768 69.8469C77.2697 69.5551 76.7348 69.4092 76.1633 69.4092C75.5917 69.4092 75.0642 69.5478 74.5805 69.825C74.0969 70.1023 73.7013 70.5109 73.3935 71.0508C73.1004 71.5761 72.9539 72.2035 72.9539 72.9331C72.9539 73.6627 73.1004 74.3048 73.3935 74.8593C73.7013 75.3992 74.0969 75.8151 74.5805 76.1069C75.0788 76.3987 75.6064 76.5447 76.1633 76.5447C76.7348 76.5447 77.2697 76.406 77.768 76.1288C78.2662 75.8369 78.6619 75.4284 78.955 74.9031C79.2481 74.3632 79.3947 73.7211 79.3947 72.9769ZM96.8208 72.7143C96.8208 73.152 96.7915 73.546 96.7328 73.8962H87.83C87.9033 74.7717 88.211 75.4576 88.7533 75.9537C89.2955 76.4498 89.9623 76.6979 90.7537 76.6979C91.8967 76.6979 92.7101 76.209 93.1937 75.2314H96.513C96.1613 76.3987 95.4872 77.3618 94.4906 78.1206C93.4941 78.8648 92.2704 79.2369 90.8196 79.2369C89.6472 79.2369 88.5921 78.9815 87.6542 78.4708C86.7309 77.9455 86.0055 77.2086 85.4779 76.2601C84.965 75.3116 84.7085 74.2172 84.7085 72.9769C84.7085 71.722 84.965 70.6203 85.4779 69.6718C85.9908 68.7234 86.7089 67.9937 87.6322 67.483C88.5554 66.9723 89.6179 66.717 90.8196 66.717C91.9773 66.717 93.0105 66.965 93.9191 67.4611C94.8424 67.9573 95.5531 68.665 96.0514 69.5843C96.5643 70.489 96.8208 71.5323 96.8208 72.7143ZM93.6333 71.8387C93.6187 71.0508 93.3329 70.4233 92.776 69.9564C92.2191 69.4748 91.5377 69.2341 90.7317 69.2341C89.9696 69.2341 89.3248 69.4675 88.7972 69.9345C88.2843 70.3868 87.9692 71.0216 87.852 71.8387H93.6333ZM102.145 68.7963C102.54 68.1543 103.053 67.6508 103.683 67.286C104.328 66.9212 105.061 66.7388 105.882 66.7388V69.9564H105.068C104.101 69.9564 103.368 70.1826 102.87 70.6349C102.386 71.0873 102.145 71.8752 102.145 72.9988V79.0399H99.0671V66.9139H102.145V68.7963Z" fill="#242424"/>
<path d="M54.9187 119.679C55.7003 119.03 56.3232 118.491 56.7872 118.062C57.2513 117.624 57.6381 117.17 57.9474 116.7C58.2568 116.23 58.4115 115.767 58.4115 115.313C58.4115 114.9 58.3138 114.576 58.1184 114.341C57.923 114.106 57.6217 113.988 57.2147 113.988C56.8076 113.988 56.4941 114.126 56.2743 114.401C56.0545 114.669 55.9406 115.038 55.9324 115.508H54.2715C54.3041 114.535 54.593 113.798 55.1386 113.295C55.6922 112.792 56.3924 112.541 57.2391 112.541C58.1672 112.541 58.8796 112.788 59.3763 113.283C59.8729 113.769 60.1212 114.414 60.1212 115.216C60.1212 115.849 59.9502 116.453 59.6083 117.028C59.2664 117.604 58.8756 118.106 58.4359 118.536C57.9963 118.957 57.4223 119.468 56.714 120.068H60.3166V121.479H54.2837V120.214L54.9187 119.679ZM61.394 117.052C61.394 115.65 61.6464 114.551 62.1512 113.757C62.6641 112.963 63.5108 112.565 64.6913 112.565C65.8719 112.565 66.7146 112.963 67.2193 113.757C67.7322 114.551 67.9887 115.65 67.9887 117.052C67.9887 118.463 67.7322 119.569 67.2193 120.372C66.7146 121.175 65.8719 121.576 64.6913 121.576C63.5108 121.576 62.6641 121.175 62.1512 120.372C61.6464 119.569 61.394 118.463 61.394 117.052ZM66.3034 117.052C66.3034 116.453 66.2627 115.95 66.1813 115.545C66.108 115.131 65.9532 114.795 65.7172 114.535C65.4892 114.276 65.1472 114.146 64.6913 114.146C64.2355 114.146 63.8894 114.276 63.6533 114.535C63.4253 114.795 63.2707 115.131 63.1892 115.545C63.1159 115.95 63.0793 116.453 63.0793 117.052C63.0793 117.669 63.1159 118.187 63.1892 118.609C63.2625 119.022 63.4172 119.359 63.6533 119.618C63.8894 119.869 64.2355 119.995 64.6913 119.995C65.1472 119.995 65.4933 119.869 65.7294 119.618C65.9655 119.359 66.1202 119.022 66.1935 118.609C66.2667 118.187 66.3034 117.669 66.3034 117.052ZM69.8264 119.679C70.608 119.03 71.2308 118.491 71.6949 118.062C72.159 117.624 72.5457 117.17 72.8551 116.7C73.1645 116.23 73.3191 115.767 73.3191 115.313C73.3191 114.9 73.2215 114.576 73.0261 114.341C72.8307 114.106 72.5295 113.988 72.1223 113.988C71.7153 113.988 71.4018 114.126 71.182 114.401C70.9622 114.669 70.8482 115.038 70.84 115.508H69.1791C69.2118 114.535 69.5008 113.798 70.0462 113.295C70.5999 112.792 71.3001 112.541 72.1468 112.541C73.0749 112.541 73.7874 112.788 74.2839 113.283C74.7806 113.769 75.0289 114.414 75.0289 115.216C75.0289 115.849 74.8579 116.453 74.516 117.028C74.174 117.604 73.7832 118.106 73.3436 118.536C72.9039 118.957 72.3299 119.468 71.6216 120.068H75.2243V121.479H69.1914V120.214L69.8264 119.679ZM82.2857 114.207H78.3289V116.286C78.4999 116.076 78.7441 115.905 79.0617 115.776C79.3792 115.638 79.7171 115.569 80.0753 115.569C80.7267 115.569 81.2599 115.711 81.6751 115.994C82.0903 116.278 82.3916 116.643 82.5788 117.089C82.7662 117.527 82.8597 117.997 82.8597 118.499C82.8597 119.432 82.591 120.182 82.0537 120.749C81.5245 121.317 80.7674 121.6 79.7822 121.6C78.854 121.6 78.1132 121.369 77.5595 120.907C77.0059 120.445 76.6925 119.841 76.6192 119.095H78.2801C78.3533 119.42 78.5163 119.679 78.7686 119.873C79.0292 120.068 79.3589 120.165 79.7578 120.165C80.2382 120.165 80.6004 120.015 80.8447 119.715C81.0889 119.415 81.211 119.018 81.211 118.524C81.211 118.021 81.0849 117.64 80.8325 117.381C80.5882 117.113 80.226 116.979 79.7456 116.979C79.4036 116.979 79.1187 117.065 78.8907 117.235C78.6628 117.405 78.4999 117.632 78.4022 117.916H76.7657V112.711H82.2857V114.207Z" fill="#242424"/>
<path d="M87.9287 1.21582H50.0703L70.2208 27.9678L87.9287 1.21582Z" fill="#FF492A"/>
<defs>
<linearGradient id="paint0_linear_1045_22242" x1="20.7616" y1="1.21582" x2="114.22" y2="149.931" gradientUnits="userSpaceOnUse">
<stop stop-color="white"/>
<stop offset="0.264423" stop-color="#D2D2D2"/>
<stop offset="0.699519" stop-color="#AEAEAE"/>
<stop offset="0.971154" stop-color="white"/>
</linearGradient>
</defs>
</svg>
