<svg width="20" height="21" viewBox="0 0 20 21" fill="none" xmlns="http://www.w3.org/2000/svg">
<path d="M3.71985 17.7862C3.73231 17.7982 3.74576 17.8111 3.75861 17.8237C3.74198 17.8417 3.72032 17.864 3.69213 17.8915L1.77246 19.7619C1.45252 20.0736 0.819414 19.9834 0.389984 19.565C0.145793 19.3271 0 19.0122 0 18.7226C0 18.5859 0.0326133 18.3912 0.187902 18.2399L2.10762 16.3696C2.14169 16.3364 2.1679 16.3124 2.18797 16.2949C2.20898 16.3145 2.23051 16.3355 2.24477 16.3494L3.67361 17.7416L3.71981 17.7862L3.71985 17.7862ZM3.89877 15.1976L2.91173 16.1593L3.89688 17.1189L4.88284 16.1582C4.70061 16.0259 4.52581 15.8795 4.36047 15.7184C4.1922 15.5545 4.03812 15.3804 3.89877 15.1976ZM18.0462 20.0217H19.5707V12.9411H18.0462V20.0217ZM14.7074 20.0217H16.2319V15.6814H14.7074V20.0217ZM7.71491 12.4052C7.70129 12.4052 7.68973 12.4208 7.68973 12.4392C7.68973 12.4577 7.70129 12.4733 7.71491 12.4733C7.72853 12.4733 7.74009 12.4577 7.74009 12.4392C7.74009 12.4208 7.72853 12.4052 7.71491 12.4052ZM11.7622 13.3207C11.5935 14.0599 11.2128 14.7388 10.6495 15.2876C9.03139 16.8641 6.39835 16.8641 4.78023 15.2876C4.55761 15.0707 4.36365 14.8334 4.19985 14.5802C4.19732 14.5759 4.19469 14.5718 4.1919 14.5677C3.78602 13.935 3.5686 13.2033 3.5686 12.4392C3.5686 11.3637 3.99889 10.3522 4.78019 9.59093C5.58925 8.80262 6.65204 8.40847 7.71482 8.40847C8.77761 8.40847 9.8404 8.80262 10.6495 9.59093C10.8363 9.77298 11.0029 9.96952 11.1485 10.1777C11.149 10.1785 11.1496 10.1793 11.1502 10.1801C11.3874 10.5198 11.5684 10.8906 11.6884 11.2818C11.691 11.2927 11.6942 11.3035 11.698 11.3141C11.8053 11.6752 11.8611 12.053 11.8611 12.4392C11.8611 12.7298 11.8294 13.0157 11.7681 13.2932C11.7657 13.3023 11.7637 13.3114 11.7621 13.3207H11.7622ZM11.0937 12.4392C11.0937 11.5564 10.7413 10.7268 10.1013 10.1032C8.78539 8.8211 6.64434 8.8211 5.32843 10.1032C4.68841 10.7268 4.33598 11.5564 4.33598 12.4392C4.33598 13.3221 4.68841 14.1517 5.32843 14.7753C5.98636 15.4163 6.85064 15.7368 7.71487 15.7368C8.5791 15.7368 9.44337 15.4163 10.1013 14.7753C10.7413 14.1517 11.0937 13.3221 11.0937 12.4392ZM9.36031 12.4392C8.96156 12.9045 8.36726 13.1695 7.71482 13.1695C7.06239 13.1695 6.46886 12.9048 6.06942 12.4392C6.46826 11.9741 7.06333 11.709 7.71487 11.709C8.3664 11.709 8.96152 11.9741 9.36031 12.4392ZM8.29125 12.4392C8.29125 12.1263 8.03266 11.8717 7.71487 11.8717C7.39707 11.8717 7.13848 12.1263 7.13848 12.4392C7.13848 12.7521 7.39707 13.0068 7.71487 13.0068C8.03266 13.0068 8.29125 12.7522 8.29125 12.4392ZM8.02974 20.0217H9.55423V18.4221H8.02974V20.0217ZM11.3685 15.3985V20.0217H12.893V13.6715H12.2937C12.1168 14.302 11.8034 14.8889 11.3685 15.3985ZM9.6815 10.5341C10.2042 11.0434 10.4922 11.7201 10.4922 12.4393C10.4922 13.1584 10.2043 13.8351 9.6815 14.3445C8.59706 15.4011 6.83263 15.4011 5.74819 14.3445C5.22543 13.8351 4.93754 13.1585 4.93754 12.4393C4.93754 11.7201 5.22543 11.0434 5.74819 10.5341C6.29041 10.0058 7.00262 9.7417 7.71487 9.7417C8.42712 9.7417 9.13928 10.0058 9.68155 10.5341H9.6815ZM9.8823 12.127C9.36938 11.4791 8.5794 11.1074 7.71487 11.1074C6.85034 11.1074 6.06031 11.479 5.54744 12.127C5.54619 12.1286 5.54494 12.1302 5.54374 12.1318C5.38037 12.3468 5.42588 12.5971 5.53648 12.7376C6.0491 13.3944 6.84303 13.7711 7.71482 13.7711C8.58653 13.7711 9.38064 13.3943 9.89244 12.7386C10.0039 12.5971 10.0493 12.3469 9.88599 12.1318C9.88479 12.1302 9.88354 12.1286 9.8823 12.127V12.127ZM9.92922 6.03707C8.55001 4.65781 8.55001 2.41364 9.92922 1.03439C10.6189 0.344781 11.5247 0 12.4306 0C13.3364 0 14.2423 0.344781 14.9319 1.03439C15.6001 1.70251 15.968 2.59084 15.968 3.53573C15.968 4.48061 15.6001 5.3689 14.9319 6.03707C13.5526 7.41628 11.3085 7.41628 9.92922 6.03707ZM10.1734 3.53573C10.1734 3.70184 10.3081 3.83651 10.4742 3.83651H12.4306C12.5967 3.83651 12.7314 3.70184 12.7314 3.53573V1.06159C12.7314 0.895469 12.5967 0.760805 12.4306 0.760805C12.2645 0.760805 12.1298 0.895469 12.1298 1.06159V3.2349H10.4742C10.3081 3.2349 10.1734 3.36961 10.1734 3.53573ZM19.3123 7.15262H17.2094C17.0097 7.15262 16.9256 7.20156 16.9086 7.21897C16.909 7.24251 16.9349 7.33287 17.0721 7.47007L17.7176 8.11564C17.8351 8.23307 17.8351 8.42351 17.7176 8.54094L15.2189 11.0397C15.1015 11.1572 14.911 11.1572 14.7936 11.0397L13.0283 9.27455C12.9001 9.14637 12.6916 9.14646 12.5635 9.27455L11.7862 10.0519C11.9078 10.2485 12.0137 10.4531 12.1034 10.6642L12.5833 10.1844C12.6397 10.1279 12.7162 10.0962 12.796 10.0962C12.8757 10.0962 12.9522 10.1279 13.0086 10.1843L14.7456 11.9213C14.8216 11.9972 14.9132 12.0415 15.0037 12.046C15.0913 12.0502 15.1702 12.018 15.2387 11.9496L18.1825 9.00569C18.2389 8.94927 18.3154 8.91756 18.3952 8.91756C18.4749 8.91756 18.5515 8.94923 18.6079 9.00569L19.2534 9.65121C19.3905 9.78837 19.4809 9.81432 19.5045 9.81466C19.5219 9.79765 19.5708 9.71369 19.5708 9.51393V7.41091C19.5708 7.25884 19.4645 7.15258 19.3124 7.15258L19.3123 7.15262Z" fill="url(#paint0_linear_394_19245)"/>
<defs>
<linearGradient id="paint0_linear_394_19245" x1="3.05143" y1="22.2266" x2="19.5878" y2="5.69022" gradientUnits="userSpaceOnUse">
<stop stop-color="#001E3D"/>
<stop offset="1" stop-color="#00BCE2"/>
</linearGradient>
</defs>
</svg>
