<svg width="22" height="22" viewBox="0 0 22 22" fill="none" xmlns="http://www.w3.org/2000/svg">
<path d="M16.529 13.1825C14.6495 13.1825 13.1258 14.7062 13.1258 16.5856C13.1258 18.465 14.6495 19.9876 16.529 19.9876C18.4084 19.9876 19.9309 18.465 19.9309 16.5856C19.9309 14.7062 18.4084 13.1825 16.529 13.1825ZM18.2658 17.9876C18.2658 18.3396 17.9784 18.627 17.6264 18.627H15.4315C15.0795 18.627 14.7921 18.3396 14.7921 17.9876V16.5686C14.7921 16.2556 15.0211 15.9912 15.3243 15.9389V15.7489C15.3243 14.688 16.6179 14.1362 17.3803 14.8987C17.5984 15.1167 17.7335 15.4176 17.7335 15.7489V15.9389C18.0368 15.9912 18.2658 16.2556 18.2658 16.5686V17.9876H18.2658ZM13.8956 12.2519C13.2208 11.6746 12.367 11.28 11.5071 11.0351C12.1271 10.3896 12.5071 9.51264 12.5071 8.54674C12.5071 6.56137 10.8981 4.95116 8.9115 4.95116C6.92488 4.95116 5.31716 6.56137 5.31716 8.54674C5.31716 9.51264 5.69718 10.3896 6.31713 11.0351C4.91764 11.4322 3.53886 12.2276 2.91276 13.5601C1.76906 10.8805 1.4755 7.71607 1.60462 4.587C4.11249 4.13269 6.77019 3.29837 8.91146 1.93054C11.0539 3.29837 13.7104 4.13269 16.2195 4.587C16.3182 6.98285 16.1696 9.40057 15.5801 11.604C14.9735 11.7197 14.4047 11.9414 13.8956 12.2519H13.8956ZM11.6338 17.9084C10.8518 18.5174 9.94928 19.0387 8.91154 19.4541C6.14298 18.3469 4.34035 16.4833 3.21492 14.2142C3.63876 12.7757 5.06992 11.8537 6.78613 11.4456C8.0504 12.375 9.77392 12.375 11.0382 11.4456C11.9639 11.6661 12.8068 12.0352 13.4536 12.5553C11.8397 13.7879 11.0882 15.8877 11.6338 17.9084L11.6338 17.9084ZM8.91154 11.6259C7.21118 11.6259 5.8324 10.2471 5.8324 8.54674C5.8324 6.84638 7.21118 5.4664 8.91154 5.4664C10.6119 5.4664 11.9919 6.84518 11.9919 8.54674C11.9919 10.2483 10.6131 11.6259 8.91154 11.6259ZM11.8043 18.4285C11.9371 18.7671 12.104 19.0887 12.3037 19.3883C11.3257 20.0972 10.2002 20.6879 8.91154 21.1398C1.52306 18.5478 -0.511033 11.414 0.102861 3.22528C3.79465 2.73075 6.92372 1.56024 8.91154 0C10.8994 1.56028 14.0296 2.73079 17.7214 3.22532C17.9443 6.19846 17.8176 9.0328 17.2123 11.5614C16.853 11.5127 16.4937 11.5029 16.1295 11.531C16.6885 9.32757 16.8322 6.93296 16.7348 4.56513L16.7178 4.15345L16.3122 4.07915C13.8762 3.63825 11.2854 2.83555 9.1892 1.49699L8.9115 1.31914L8.63499 1.49699C6.5376 2.83559 3.94809 3.63825 1.51206 4.07915L1.10648 4.15345L1.08942 4.56513C0.829978 10.861 2.27334 17.3543 8.72029 19.9328L8.9115 20.0095L9.10395 19.9328C10.1246 19.5247 11.0211 19.0169 11.8043 18.4285L11.8043 18.4285ZM16.529 12.0315C14.0138 12.0315 11.9736 14.0705 11.9736 16.5856C11.9736 19.1008 14.0138 21.1398 16.529 21.1398C19.0442 21.1398 21.0831 19.1008 21.0831 16.5856C21.0831 14.0705 19.0442 12.0315 16.529 12.0315ZM16.529 20.504C14.3646 20.504 12.6107 18.7489 12.6107 16.5857C12.6107 14.4225 14.3646 12.6674 16.529 12.6674C18.6934 12.6674 20.4473 14.4213 20.4473 16.5857C20.4473 18.7501 18.6922 20.504 16.529 20.504ZM17.2184 15.9304H15.8396V15.7489C15.8396 15.146 16.5777 14.8244 17.015 15.2629C17.2269 15.4748 17.2184 15.6734 17.2184 15.9304ZM17.6264 16.4456H15.4316C15.3634 16.4456 15.3073 16.5016 15.3073 16.5686V17.9876C15.3073 18.0546 15.3633 18.1106 15.4316 18.1106H17.6264C17.6934 18.1106 17.7494 18.0546 17.7494 17.9876V16.5686C17.7494 16.5016 17.6934 16.4456 17.6264 16.4456ZM16.786 17.4906C16.786 17.6319 16.6715 17.7476 16.529 17.7476C16.3865 17.7476 16.2708 17.6319 16.2708 17.4906V17.0668C16.2708 16.9243 16.3865 16.8086 16.529 16.8086C16.6715 16.8086 16.786 16.9243 16.786 17.0668V17.4906Z" fill="url(#paint0_linear_394_19242)"/>
<defs>
<linearGradient id="paint0_linear_394_19242" x1="15.5323" y1="1.96135" x2="5.45032" y2="19.4238" gradientUnits="userSpaceOnUse">
<stop stop-color="#00BEF1"/>
<stop offset="0.42" stop-color="#3382C4"/>
<stop offset="0.73" stop-color="#4168B1"/>
<stop offset="1" stop-color="#4168B1"/>
</linearGradient>
</defs>
</svg>
