<svg width="615" height="593" viewBox="0 0 615 593" fill="none" xmlns="http://www.w3.org/2000/svg">
<path d="M280.741 300.372C280.741 310.647 262.016 318.978 238.918 318.978C215.82 318.978 197.096 310.647 197.096 300.372C197.096 290.095 215.82 281.767 238.918 281.767C262.016 281.767 280.741 290.095 280.741 300.372Z" fill="#9EABD3"/>
<path d="M253.005 296.201C255.959 299.173 260.829 300.759 260.829 300.763C264.935 301.805 267.35 299.074 267.35 299.074C268.232 297.842 267.16 297.164 267.16 297.164C258.502 290.584 255.911 288.719 255.911 288.719H247.965C247.576 291.913 247.792 293.202 247.792 293.202C248.481 294.143 249.937 295.473 252.151 295.843C252.314 295.872 252.62 295.631 252.775 295.695L253.005 296.201Z" fill="#17181C"/>
<path d="M267.197 297.192C267.163 297.377 267.113 297.56 267.03 297.735C266.359 299.175 264.489 299.769 263.008 299.748C261.227 299.722 259.61 298.853 258.059 298.069C256.563 297.313 255.251 296.357 253.961 295.29C253.066 294.548 251.921 294.2 250.862 293.74C249.669 293.22 248.769 292.41 247.736 291.635C247.733 292.492 247.792 293.203 247.792 293.203C248.481 294.144 249.937 295.474 252.151 295.844C252.314 295.873 252.62 295.632 252.774 295.696L253.004 296.201C255.958 299.173 260.828 300.76 260.828 300.763C264.935 301.805 267.349 299.075 267.349 299.075C268.133 297.98 267.376 297.325 267.197 297.192Z" fill="black"/>
<path d="M247.09 224.277C255.927 234.034 259.43 223.713 259.43 223.713L260.526 163.748C260.64 164.639 260.933 157.699 249.777 159.202C238.651 160.7 235.834 165.036 235.834 165.036C235.834 165.036 241.955 206.457 247.09 224.277Z" fill="#E59375"/>
<path d="M259.486 222.953C259.486 222.953 255.001 286.106 254.636 288.322C254.636 288.322 249.185 289.527 249.16 288.272C249.099 285.247 242.874 248.291 242.795 243.538C242.591 231.504 245.694 229.229 248.789 221.121C248.789 221.121 259.508 213.198 259.486 222.953Z" fill="#E59375"/>
<path d="M245.049 224.675C239.915 206.855 235.834 165.036 235.834 165.036C235.834 165.036 238.651 160.7 249.777 159.202C260.933 157.699 260.64 164.639 260.526 163.748C260.526 163.748 262.582 193.4 259.487 222.954C259.487 222.954 251.901 229.007 245.049 224.675Z" fill="#0B152A"/>
<path d="M247.09 224.277C255.928 234.034 259.43 223.713 259.43 223.713L247.09 224.277Z" fill="#0B152A"/>
<path d="M257.716 288.173C259.019 286.343 259.486 222.953 259.486 222.953C259.508 213.198 247.496 217.695 247.496 217.695C244.4 225.803 242.592 231.504 242.795 243.538C242.874 248.291 246.051 286.016 246.113 289.041C246.113 289.041 253.986 293.412 257.716 288.173Z" fill="#0B152A"/>
<path d="M236.279 151.225C236.279 151.225 230.303 160.867 236.279 171.674C242.255 182.484 260.499 178.544 260.553 164.544C260.606 150.714 248.018 145.426 236.279 151.225Z" fill="#0B152A"/>
<path d="M227.566 131.583C225.988 137.194 219.482 158.607 219.482 158.607C242.774 186.47 260.323 162.089 260.555 159.548C260.833 156.507 257.436 144.891 256.82 132.363C256.82 132.363 250.469 122.587 227.566 131.583Z" fill="#F7A483"/>
<path d="M260.418 166.52C261.523 159.017 259.234 151.447 258.055 143.863H223.935C221.751 151.136 219.482 158.606 219.482 158.606C219.482 158.606 218.022 175.808 232.634 177.87C232.634 177.87 258.098 182.283 260.418 166.52Z" fill="#0B152A"/>
<path d="M221.604 225.589C228.899 236.548 233.892 226.862 233.892 226.862L245.725 168.444C245.707 169.342 245.37 160.834 234.114 160.667C222.888 160.503 219.46 164.373 219.46 164.373C219.46 164.373 219.166 207.206 221.604 225.589Z" fill="#F7A483"/>
<path d="M234.061 226.119C234.061 226.119 222.343 292.665 221.654 294.803C221.654 294.803 216.084 295.188 216.246 293.942C216.633 290.942 215.628 248.977 216.254 244.266C217.837 232.334 219.491 230.281 223.754 222.723C223.754 222.723 235.528 216.472 234.061 226.119Z" fill="#F7A483"/>
<path d="M222.185 293.517L225.481 303.567C225.481 303.567 224.801 312.564 217.584 306.988L215.436 304.905C214.338 303.976 214.659 302.697 214.659 302.697L215.301 298.846L216.067 293.516C216.067 293.516 220.588 290.449 222.185 293.517Z" fill="#17181C"/>
<path d="M217.584 305.704L215.436 303.623C215.007 303.261 214.796 302.844 214.697 302.472L214.659 302.697C214.659 302.697 214.338 303.977 215.436 304.905L217.584 306.988C224.801 312.564 225.481 303.567 225.481 303.567L225.353 303.175C224.948 305.299 223.358 310.165 217.584 305.704Z" fill="black"/>
<path d="M220.047 225.817C217.61 207.434 219.482 158.607 219.482 158.607C219.482 158.607 222.398 154.274 233.624 154.441C244.88 154.607 247.186 167.421 247.204 166.521C247.204 166.521 237.734 216.53 233.624 228.592C233.624 228.592 226.672 234.531 220.047 225.817Z" fill="#152035"/>
<path d="M224.432 294.201C225.121 292.063 234.327 225.68 234.327 225.68C234.44 216.662 222.574 218.875 222.574 218.875C218.312 226.433 217.323 229.965 215.74 241.896C215.114 246.609 213.907 290.195 213.52 293.196C213.52 293.196 218.497 296.655 224.432 294.201Z" fill="#152035"/>
<path d="M253.221 89.344C253.221 89.344 257.323 118.476 261.354 129.821C261.354 129.821 267.993 131.241 270.145 127.48C270.145 127.48 269.406 102.578 268.542 87.5756C268.542 87.5756 260.364 78.3545 253.221 89.344Z" fill="#E59375"/>
<path d="M270.145 127.479C270.145 127.479 271.572 151.517 272.969 160.936C272.969 160.936 271.807 163.565 270.235 161.614C267.607 158.35 259.738 128.762 261.245 126.913C268.27 118.278 270.145 127.479 270.145 127.479Z" fill="#E59375"/>
<path d="M265.488 94.152C262.08 96.7329 257.223 96.0926 254.64 92.7216C252.058 89.3514 252.727 84.5291 256.135 81.9483C259.544 79.368 264.4 80.0094 266.982 83.381C269.565 86.7509 268.896 91.5732 265.488 94.152Z" fill="#E59375"/>
<path d="M270.367 165.772L271.522 169.114L270.38 174.05C270.38 174.05 271.368 174.645 272.023 172.975L273.098 168.88L272.119 165.057L270.367 165.772Z" fill="#E59375"/>
<path d="M271.502 166.762L272.843 170.036L271.977 175.026C271.977 175.026 272.996 175.567 273.558 173.863L274.403 169.713L273.212 165.95L271.502 166.762Z" fill="#E59375"/>
<path d="M275.487 166.801L274.114 162.924L272.497 158.093L269.312 158.247L269.23 163.676L269.486 166.47L269.879 170.278L269.941 171.52C269.941 171.52 270.971 171.652 271.365 169.581L271.491 165.898L273.359 168.423L273.138 173.518C273.138 173.518 273.908 176.01 274.493 174.906L275.77 167.574L275.487 166.801Z" fill="#E59375"/>
<path d="M262.977 80.3369C262.977 80.3369 269.993 81.9597 270.367 90.0915L271.501 119.357C271.501 119.357 264.498 124.006 255.42 123.217C255.42 123.217 244.95 84.1351 262.977 80.3369Z" fill="#00BAC5"/>
<path d="M257.683 55.4121C258.583 54.615 260.336 52.181 260.248 50.9316C260.223 50.5579 259.852 50.2629 259.852 49.7939C259.852 49.3099 260.064 49.1227 260.238 48.7308C260.605 47.9051 260.678 47.4603 260.681 46.4801C260.683 45.7983 260.809 44.4578 260.344 43.9163C259.652 43.1082 258.274 43.7706 257.548 44.2037C256.039 45.1023 255.189 46.5617 253.627 47.4236C252.301 48.1561 251.871 49.041 251.126 50.3192C250.188 51.9286 249.404 54.9141 251.41 56.1291C253.257 57.2468 256.151 56.7705 257.683 55.4121Z" fill="#3C2415"/>
<path d="M239.251 72.2792C239.251 72.2792 237.88 69.6411 234.852 64.577C234.852 64.577 228.411 57.9624 232.021 49.6504C232.021 49.6504 234.002 42.6983 246.159 43.7088C246.159 43.7088 247.323 62.8418 239.251 72.2792Z" fill="#F8A07D"/>
<path d="M238.77 61.4453C238.77 61.4453 240.816 80.5152 236.453 81.9579L252.007 81.0325C252.007 81.0325 249.563 75.2693 252.406 71.0198L238.77 61.4453Z" fill="#F7A483"/>
<path d="M251.152 77.7013C250.894 73.3437 251.442 72.4605 252.405 71.0201L238.77 61.4453C238.77 61.4453 239.429 67.6075 239.199 73.1906C243.148 76.9256 246.408 77.8043 251.152 77.7013Z" fill="#E1876F"/>
<path d="M262.978 80.3378C266.442 82.8683 266.84 88.9186 265.603 92.6989C264.183 97.0382 263.62 102.578 262.199 108.855C260.273 117.362 258.967 123.915 256.82 132.363C255.043 139.35 226.963 133.72 226.963 133.72L216.899 99.3331C216.899 99.3331 215.166 90.357 223.299 87.3698C223.299 87.3698 231.867 82.7459 238.139 80.6218C243.678 78.7449 245.685 78.5693 251.37 78.919C251.37 78.919 258.99 79.1985 262.978 80.3378Z" fill="#F7A483"/>
<path d="M255.571 73.7376L256.218 71.5807C256.218 71.5807 257.856 63.6088 257.856 63.6073C258.061 62.6057 257.981 61.2903 257.728 60.2949C257.453 59.2116 257.244 58.0723 257.446 56.8925C258.427 51.1748 255.316 48.1999 255.316 48.1999C251.753 43.1369 243.932 43.5347 243.932 43.5347C234.285 44.4967 233.942 53.8962 233.942 53.8962C232.684 60.199 237.897 65.1331 237.908 65.1425C238.324 65.5354 238.224 67.5956 238.373 68.1718C239.008 70.63 241.462 72.0382 243.621 72.9835C245.994 74.0213 248.854 75.1105 251.454 75.2178C252.44 75.259 255.2 74.9745 255.571 73.7376Z" fill="#F8A07D"/>
<path d="M241.959 53.922C244.849 50.3839 250.415 53.582 254.002 51.4006C255.675 50.3842 255.65 48.5586 257.834 48.5552C262.5 48.5463 261.949 43.5349 259.358 42.074C258.833 42.0373 258.297 42.0811 257.785 42.14C256.492 42.2899 255.654 42.8514 254.352 42.3839C252.988 41.8919 251.822 40.9694 250.535 40.322C248.872 39.484 247.185 38.3874 245.276 38.2997C242.926 38.1924 242.179 39.9074 240.441 41.0345C239.272 41.7909 237.844 41.6987 236.571 42.1582C234.663 42.8462 232.97 44.0234 231.233 45.0444C230.019 45.7586 228.362 46.7144 228.534 48.3599C228.695 49.921 230.283 50.2767 229.798 51.9706C228.96 54.9034 229.563 57.9316 230.607 60.7256C231.244 62.4317 231.89 64.1658 232.874 65.7086C233.88 67.283 235.206 68.6158 236.607 69.8397C237.092 70.2614 238.627 71.3703 239.25 72.2794C239.341 68.4357 238.568 68.7521 239.576 66.8386C239.966 66.0945 239.534 65.4696 239.258 64.7329C238.983 63.9976 238.339 63.3853 238.437 62.5848C238.935 62.7453 239.408 62.8122 239.679 62.582C240.154 62.1825 239.766 60.8502 239.846 60.3284C240.119 58.5627 240.373 56.6358 241.226 55.0431C241.457 54.6118 241.699 54.2399 241.959 53.922Z" fill="#3C2415"/>
<path d="M239.406 66.8538C239.085 67.1682 238.65 67.3802 238.081 67.4391C236.544 67.6024 235.098 66.3197 234.85 64.5774C234.604 62.838 235.648 61.2934 237.183 61.1329C237.911 61.0561 238.62 61.3042 239.189 61.7715C240.019 62.4538 240.214 63.8712 240.157 64.8725C240.113 65.6724 239.887 66.382 239.406 66.8538Z" fill="#F8A07D"/>
<path d="M237.999 62.6818C237.798 61.777 236.05 62.8753 236.392 63.3576C236.591 63.6362 236.941 63.8129 237.222 63.9919C237.607 64.2363 237.809 64.4759 237.913 64.9232C237.926 64.9761 237.955 65.1349 237.907 65.1787C237.687 65.3739 236.793 64.5724 236.597 64.4056C236.213 64.0761 236.09 63.4453 236.197 62.9672C236.312 62.4576 236.606 62.187 237.134 62.1563C237.552 62.1307 237.979 62.1079 238.017 62.628C238.017 62.6409 238.009 62.7285 237.999 62.6818Z" fill="#E98B6F"/>
<path d="M237.522 63.7056C237.692 63.4877 237.894 63.6257 238.109 63.7452C238.308 63.857 238.434 64.0357 238.506 64.246C238.669 64.709 238.682 65.3546 238.46 65.8039C238.279 66.1656 237.933 66.4151 237.527 66.453C236.969 66.503 236.742 66.0307 236.665 65.5603C236.644 65.4349 236.596 65.1352 236.711 65.043C236.835 64.9446 236.955 65.1398 237.055 65.2186C237.194 65.3213 237.381 65.3441 237.549 65.3398C237.871 65.3293 238.162 65.1292 238.336 64.8692C238.365 64.8225 238.39 64.7682 238.403 64.7152C238.438 65.0237 238.43 65.0948 238.378 64.9281C238.344 64.8524 238.3 64.7847 238.247 64.7241C238.092 64.5246 237.855 64.4051 237.686 64.219C237.606 64.1325 237.436 63.8161 237.522 63.7056Z" fill="#E98B6F"/>
<path d="M252.797 62.9857L250.168 64.0022C250.168 64.0022 253.715 64.2213 253.851 63.1912C253.851 63.1912 253.314 61.1811 252.733 59.2764C252.733 59.2764 253.187 62.8358 252.797 62.9857Z" fill="#E98B6F"/>
<path d="M248.208 59.2774C248.208 59.8325 247.902 60.2815 247.525 60.2815C247.147 60.2815 246.842 59.8325 246.842 59.2774C246.842 58.7222 247.147 58.2715 247.525 58.2715C247.902 58.2715 248.208 58.7222 248.208 59.2774Z" fill="#3C2415"/>
<path d="M255.792 58.4346C255.792 58.9897 255.486 59.4388 255.109 59.4388C254.731 59.4388 254.426 58.9897 254.426 58.4346C254.426 57.8794 254.731 57.4287 255.109 57.4287C255.486 57.4287 255.792 57.8794 255.792 58.4346Z" fill="#3C2415"/>
<path d="M248.919 57.3254C249.165 57.3766 249.225 57.0468 249.226 57.0468C249.303 56.7278 249.209 56.4572 249.209 56.4572C249.109 56.2316 248.917 56.1605 248.917 56.1605C248.283 56.0714 247.054 56.2288 246.012 56.54C245.436 56.7113 244.5 57.1407 244.44 57.6717C244.422 57.8308 244.407 58.1045 244.587 58.1529C244.587 58.1529 246.572 57.5388 248.919 57.3254Z" fill="#3C2415"/>
<path d="M257.542 56.4622C256.852 56.4744 255.638 56.5393 254.153 56.8173C253.929 56.9323 253.782 56.6329 253.782 56.6329C253.621 56.3455 253.637 56.061 253.637 56.0599C253.67 55.8166 253.837 55.6953 253.837 55.6953C254.423 55.4381 255.264 55.2867 256.351 55.3018C256.676 55.3064 257.238 55.3502 257.613 55.4731C257.613 55.4731 257.687 55.6751 257.542 56.4622Z" fill="#3C2415"/>
<path d="M254.264 66.1973C254.479 66.1956 254.596 66.2957 254.514 66.4497C254.514 66.4497 253.569 68.227 251.912 68.427C250.256 68.6265 248.903 67.1278 248.903 67.1278C248.77 66.9821 248.886 66.8372 249.154 66.8025C249.154 66.8025 252.013 66.4377 254.264 66.1973Z" fill="white"/>
<path d="M221.84 151.797C221.84 151.797 215.864 161.439 221.84 172.247C227.816 183.056 246.059 179.116 246.113 165.116C246.166 151.286 233.578 145.998 221.84 151.797Z" fill="#152035"/>
<path d="M251.37 78.918C251.37 78.918 258.99 79.1974 262.978 80.3367C266.441 82.8672 266.839 88.9176 265.603 92.6978C264.183 97.0372 263.62 102.577 262.199 108.854C260.272 117.361 260.442 123.982 258.296 132.43C256.518 139.417 223.621 133.205 223.621 133.205L216.899 99.3321C216.899 99.3321 215.166 90.356 223.299 87.3688C223.299 87.3688 231.478 82.8795 237.751 80.7559C237.751 80.7559 236.772 87.3688 247.555 85.5431C247.555 85.5431 254.143 83.9531 251.37 78.918Z" fill="#3DC0C6"/>
<path d="M223.62 133.205C222.043 138.817 218.795 156.562 218.795 156.562C223.065 174.273 262.365 161.529 262.596 158.988C262.874 155.946 259.456 142.611 258.84 130.083C258.84 130.083 246.525 124.21 223.62 133.205Z" fill="#3DC0C6"/>
<path d="M231.316 101.928C227.473 106.284 213.773 126.28 209.729 129.491C208.654 130.346 199.458 134.23 199.563 127.12C210.907 101.893 219.215 90.4093 219.215 90.4093C219.215 90.4093 228.258 86.2677 232.599 93.5493C232.599 93.5493 234.01 98.9147 231.316 101.928Z" fill="#F7A483"/>
<path d="M234.283 95.5095C235.128 100.515 231.754 105.257 226.748 106.101C221.742 106.946 216.999 103.572 216.155 98.5667C215.31 93.5615 218.684 88.8192 223.69 87.975C228.696 87.1315 233.44 90.5043 234.283 95.5095Z" fill="#F7A483"/>
<path d="M226.286 85.8018C226.286 85.8018 218.651 88.7713 215.166 94.466L206.064 108.543C206.064 108.543 209.791 119.183 219.062 121.385L233.624 103.692C233.624 103.692 241.861 93.323 226.286 85.8018Z" fill="#3DC0C6"/>
<path d="M210.784 126.511C210.784 126.511 218.183 138.538 226.658 157.011C226.658 157.011 226.693 160.602 224 159.623C221.307 158.65 200.579 132.818 200.423 130.072C200.023 123.013 210.784 126.511 210.784 126.511Z" fill="#F7A483"/>
<path d="M228.833 166.221C225.175 162.899 224.98 162.075 224.502 160.823C222.434 155.454 228.893 157.226 230.435 158.008C231.32 158.458 230.818 160.703 233.045 164.155C233.045 164.155 236.954 167.958 238.128 168.054C238.128 168.054 239.258 168.514 239.046 169.361C239.046 169.361 235.358 170.453 228.833 166.221Z" fill="#F7A483"/>
<path d="M230.825 158.092C230.825 158.092 228.351 158.76 230.532 160.93L234.052 162.118C234.052 162.118 234.972 162.604 235.517 161.843C235.517 161.843 235.734 161.27 234.794 160.768L230.825 158.092Z" fill="#F7A483"/>
<path d="M310.144 445.71C229.499 445.71 164.115 408.444 164.115 362.462C164.115 316.495 229.499 279.221 310.144 279.221C390.796 279.221 456.17 316.495 456.17 362.462C456.17 408.444 390.796 445.71 310.144 445.71Z" fill="#9EABD3"/>
<path d="M46.6328 394.253H69.5529" stroke="#699FD5" stroke-width="10.887" stroke-miterlimit="10"/>
<path d="M72.9688 394.253H84.4303" stroke="#699FD5" stroke-width="10.887" stroke-miterlimit="10"/>
<path d="M534.791 304.206H561.489" stroke="#699FD5" stroke-width="11.7506" stroke-miterlimit="10"/>
<path d="M565.471 304.206H578.82" stroke="#699FD5" stroke-width="11.7506" stroke-miterlimit="10"/>
<path d="M542.794 192.883H519.873" stroke="#699FD5" stroke-width="10.887" stroke-miterlimit="10"/>
<path d="M516.458 192.883H504.998" stroke="#699FD5" stroke-width="10.887" stroke-miterlimit="10"/>
<path d="M301.164 70.6377L304.36 73.8323" stroke="#699FD5" stroke-width="10.887" stroke-miterlimit="10"/>
<path d="M306.613 76.0859L309.809 79.2809" stroke="#699FD5" stroke-width="10.887" stroke-miterlimit="10"/>
<path d="M309.809 70.6377L306.613 73.8323" stroke="#699FD5" stroke-width="10.887" stroke-miterlimit="10"/>
<path d="M304.36 76.0859L301.164 79.2809" stroke="#699FD5" stroke-width="10.887" stroke-miterlimit="10"/>
<path d="M50.5117 203.541L53.7074 206.735" stroke="#699FD5" stroke-width="10.887" stroke-miterlimit="10"/>
<path d="M55.9609 208.988L59.1557 212.183" stroke="#699FD5" stroke-width="10.887" stroke-miterlimit="10"/>
<path d="M59.1557 203.541L55.9609 206.735" stroke="#699FD5" stroke-width="10.887" stroke-miterlimit="10"/>
<path d="M53.7074 208.989L50.5117 212.184" stroke="#699FD5" stroke-width="10.887" stroke-miterlimit="10"/>
<path d="M379.354 198.467L382.549 201.661" stroke="#699FD5" stroke-width="10.887" stroke-miterlimit="10"/>
<path d="M384.803 203.916L387.998 207.11" stroke="#699FD5" stroke-width="10.887" stroke-miterlimit="10"/>
<path d="M387.998 198.467L384.803 201.661" stroke="#699FD5" stroke-width="10.887" stroke-miterlimit="10"/>
<path d="M382.549 203.916L379.354 207.11" stroke="#699FD5" stroke-width="10.887" stroke-miterlimit="10"/>
<path d="M561.146 376.365L564.342 379.56" stroke="#699FD5" stroke-width="10.887" stroke-miterlimit="10"/>
<path d="M566.596 381.814L569.791 385.009" stroke="#699FD5" stroke-width="10.887" stroke-miterlimit="10"/>
<path d="M569.791 376.365L566.596 379.56" stroke="#699FD5" stroke-width="10.887" stroke-miterlimit="10"/>
<path d="M564.342 381.813L561.146 385.008" stroke="#699FD5" stroke-width="10.887" stroke-miterlimit="10"/>
<path d="M515.465 58.2053C515.465 60.3955 513.691 62.1713 511.5 62.1713C509.309 62.1713 507.533 60.3958 507.533 58.2053C507.533 56.0146 509.309 54.2393 511.5 54.2393C513.691 54.2393 515.465 56.0143 515.465 58.2053Z" stroke="#699FD5" stroke-width="10.887" stroke-miterlimit="10"/>
<path d="M157.844 62.8522C157.844 65.0429 156.07 66.8185 153.879 66.8185C151.688 66.8185 149.912 65.0429 149.912 62.8522C149.912 60.662 151.688 58.8867 153.879 58.8867C156.069 58.8867 157.844 60.662 157.844 62.8522Z" stroke="#699FD5" stroke-width="10.887" stroke-miterlimit="10"/>
<path d="M184.509 240.981C184.509 243.173 182.734 244.947 180.543 244.947C178.353 244.947 176.578 243.173 176.578 240.981C176.578 238.791 178.352 237.017 180.543 237.017C182.734 237.017 184.509 238.79 184.509 240.981Z" stroke="#699FD5" stroke-width="10.887" stroke-miterlimit="10"/>
<path d="M411.578 315.05C411.578 325.327 430.303 333.655 453.401 333.655C476.497 333.655 495.222 325.327 495.222 315.05C495.222 304.775 476.497 296.444 453.401 296.444C430.303 296.444 411.578 304.774 411.578 315.05Z" fill="#9EABD3"/>
<path d="M439.312 310.878C436.359 313.852 431.487 315.438 431.487 315.441C427.382 316.484 424.967 313.753 424.967 313.753C424.085 312.521 425.158 311.842 425.158 311.842C433.814 305.262 436.406 303.396 436.406 303.396H444.353C444.741 306.592 444.525 307.88 444.525 307.88C443.835 308.821 442.38 310.151 440.165 310.522C440.002 310.55 439.696 310.31 439.542 310.373L439.312 310.878Z" fill="#17181C"/>
<path d="M425.121 311.87C425.153 312.055 425.205 312.238 425.287 312.413C425.958 313.854 427.828 314.448 429.31 314.427C431.09 314.401 432.707 313.532 434.258 312.748C435.755 311.992 437.066 311.035 438.356 309.968C439.252 309.226 440.396 308.879 441.455 308.419C442.649 307.898 443.548 307.089 444.58 306.313C444.585 307.171 444.526 307.881 444.526 307.881C443.836 308.822 442.381 310.152 440.166 310.523C440.002 310.551 439.697 310.311 439.543 310.374L439.313 310.879C436.359 313.852 431.488 315.439 431.488 315.442C427.383 316.484 424.968 313.754 424.968 313.754C424.184 312.658 424.941 312.004 425.121 311.87Z" fill="black"/>
<path d="M445.229 238.955C436.39 248.711 432.888 238.391 432.888 238.391L431.793 178.426C431.678 179.317 431.384 172.377 442.542 173.88C453.668 175.378 456.484 179.715 456.484 179.715C456.484 179.715 450.363 221.134 445.229 238.955Z" fill="#E59375"/>
<path d="M432.832 237.632C432.832 237.632 437.316 300.785 437.682 303.001C437.682 303.001 443.133 304.206 443.157 302.951C443.219 299.925 449.443 262.969 449.523 258.217C449.726 246.182 446.623 243.907 443.528 235.801C443.528 235.801 432.809 227.877 432.832 237.632Z" fill="#E59375"/>
<path d="M447.89 241.225C453.025 223.405 456.485 179.715 456.485 179.715C456.485 179.715 453.668 175.378 442.542 173.88C431.385 172.377 431.678 179.317 431.793 178.426C431.793 178.426 428.414 210.942 431.509 240.496C431.509 240.496 441.039 245.557 447.89 241.225Z" fill="#104473"/>
<path d="M464.754 146.26C466.33 151.872 472.837 173.285 472.837 173.285C449.543 201.148 431.996 176.767 431.764 174.226C431.486 171.184 434.882 159.569 435.498 147.041C435.498 147.041 441.849 137.265 464.754 146.26Z" fill="#F7A483"/>
<path d="M431.899 181.199C430.794 173.694 433.083 166.125 434.262 158.541H468.382C470.566 165.813 472.836 173.284 472.836 173.284C472.836 173.284 474.295 190.487 459.683 192.547C459.683 192.547 434.219 196.961 431.899 181.199Z" fill="#104473"/>
<path d="M470.714 240.267C463.42 251.226 458.427 241.539 458.427 241.539L446.594 183.121C446.612 184.02 446.948 175.511 458.205 175.345C469.43 175.179 472.858 179.05 472.858 179.05C472.858 179.05 473.152 221.883 470.714 240.267Z" fill="#F7A483"/>
<path d="M458.257 240.796C458.257 240.796 469.976 307.344 470.666 309.481C470.666 309.481 476.235 309.866 476.073 308.62C475.686 305.62 476.69 263.656 476.065 258.943C474.483 247.011 472.828 244.96 468.566 237.4C468.566 237.4 456.792 231.151 458.257 240.796Z" fill="#F7A483"/>
<path d="M470.133 308.196L466.836 318.246C466.836 318.246 467.517 327.243 474.733 321.667L476.883 319.584C477.98 318.656 477.659 317.376 477.659 317.376L477.018 313.525L476.253 308.196C476.253 308.196 471.73 305.127 470.133 308.196Z" fill="#17181C"/>
<path d="M474.733 320.383L476.883 318.301C477.311 317.94 477.521 317.522 477.622 317.15L477.659 317.375C477.659 317.375 477.98 318.655 476.883 319.584L474.733 321.667C467.517 327.243 466.836 318.245 466.836 318.245L466.965 317.854C467.37 319.977 468.96 324.843 474.733 320.383Z" fill="black"/>
<path d="M456.982 243.151C452.871 231.089 445.113 181.2 445.113 181.2C445.131 182.099 447.437 169.286 458.694 169.12C469.919 168.954 472.836 173.285 472.836 173.285C472.836 173.285 476.352 222.113 473.914 240.497C473.914 240.497 466.007 249.626 456.982 243.151Z" fill="#065099"/>
<path d="M437.227 107.883C437.227 107.883 418.166 130.295 408.689 137.72C408.689 137.72 402.319 135.367 402.516 131.039C402.516 131.039 416.471 110.4 425.232 98.1892C425.232 98.1892 437.077 94.7772 437.227 107.883Z" fill="#E59375"/>
<path d="M406.96 128.771C406.96 128.771 382.933 130.409 373.411 130.222C373.411 130.222 370.951 131.707 373.087 133.019C376.659 135.21 407.01 139.254 408.654 137.526C416.326 129.461 406.96 128.771 406.96 128.771Z" fill="#E59375"/>
<path d="M424.29 105.38C425.788 109.383 430.232 111.442 434.219 109.976C438.204 108.512 440.222 104.08 438.724 100.076C437.225 96.0728 432.781 94.0146 428.794 95.4803C424.809 96.9452 422.792 101.376 424.29 105.38Z" fill="#E59375"/>
<path d="M433.806 95.0549C433.806 95.0549 427.012 92.6712 422.341 99.3394L405.717 123.451C405.717 123.451 409.144 131.127 417.234 135.318C417.234 135.318 447 107.911 433.806 95.0549Z" fill="#872952"/>
<path d="M453.067 86.958C453.067 86.958 454.44 84.3193 457.467 79.2558C457.467 79.2558 463.908 72.6406 460.299 64.3281C460.299 64.3281 458.317 57.3765 446.16 58.3864C446.16 58.3864 444.997 77.5195 453.067 86.958Z" fill="#F8A07D"/>
<path d="M453.547 76.125C453.547 76.125 451.502 95.1949 455.865 96.637L440.309 95.7111C440.309 95.7111 442.755 89.949 439.912 85.6992L453.547 76.125Z" fill="#F7A483"/>
<path d="M441.164 92.3804C441.423 88.0231 440.875 87.139 439.912 85.6992L453.547 76.125C453.547 76.125 452.888 82.2866 453.118 87.8698C449.169 91.6053 445.909 92.484 441.164 92.3804Z" fill="#E1876F"/>
<path d="M429.34 95.0149C425.876 97.5451 425.478 103.595 426.715 107.375C428.134 111.716 428.697 117.255 430.119 123.532C432.046 132.039 433.351 138.592 435.498 147.04C437.275 154.026 465.355 148.396 465.355 148.396L475.419 114.01C475.419 114.01 477.152 105.034 469.019 102.047C469.019 102.047 460.451 97.4224 454.178 95.2983C448.639 93.4214 446.633 93.2464 440.947 93.5955C440.947 93.5961 433.328 93.8761 429.34 95.0149Z" fill="#F7A483"/>
<path d="M434.344 59.832C433.542 63.4899 432.631 65.4018 433.642 68.7552C434.551 71.7674 434.341 74.9313 435.656 77.8508C437.532 82.0135 439.973 81.4706 441.84 77.6414C443.751 73.7206 445.742 68.4226 441.429 65.5187C438.658 63.6532 437.66 60.4461 434.344 59.832Z" fill="#271000"/>
<path d="M436.745 88.4156L436.098 86.2593C436.098 86.2593 434.461 78.2879 434.461 78.2862C434.255 77.284 434.335 75.9686 434.588 74.9732C434.863 73.8894 435.072 72.7512 434.871 71.5714C433.889 65.8531 437.001 62.8776 437.001 62.8776C440.564 57.8146 448.383 58.2124 448.383 58.2124C458.031 59.1756 458.374 68.5745 458.374 68.5745C459.632 74.8773 454.418 79.8114 454.407 79.8213C453.992 80.2143 454.092 82.2739 453.943 82.8507C453.308 85.3089 450.854 86.7165 448.695 87.6618C446.323 88.6998 443.462 89.7882 440.862 89.8961C439.875 89.9371 437.116 89.6531 436.745 88.4156Z" fill="#F8A07D"/>
<path d="M434.658 78.1389C435.926 79.2831 437.651 78.7607 439.001 79.589C439.884 80.1291 440.322 80.0969 441.287 79.8129C442.061 79.5867 442.68 79.659 443.468 79.8869C444.273 80.1191 445.735 80.82 446.516 81.1347C447.709 81.6164 449.048 81.4659 449.976 80.3351C450.945 79.1542 451.313 78.9112 451.77 77.4944C452.608 74.8874 455.245 74.7295 457.061 76.1929C455.871 78.4255 454.414 79.8161 454.408 79.8215C453.992 80.2144 454.093 83.9753 453.944 84.5521C453.309 87.0103 450.855 88.418 448.696 89.3633C446.324 90.4013 442.705 90.5453 440.104 90.6526C439.118 90.6938 437.117 89.6526 436.746 88.4151L436.098 86.2588C436.098 86.2588 434.462 78.2875 434.462 78.2858C434.433 78.1475 434.422 77.9918 434.404 77.8433C434.485 77.9452 434.561 78.0507 434.658 78.1389Z" fill="#271000"/>
<path d="M434.483 63.2332C436.668 63.2361 436.642 65.0617 438.315 66.0793C441.902 68.2601 447.468 65.0629 450.359 68.5995C450.619 68.9179 450.861 69.2893 451.091 69.7204C451.945 71.3144 452.199 73.2405 452.471 75.0061C452.551 75.528 452.164 76.8608 452.639 77.2603C452.91 77.49 453.381 77.4225 453.881 77.2632C453.978 78.0631 453.335 78.676 453.06 79.4107C452.782 80.1471 452.352 80.7728 452.742 81.5169C453.749 83.4305 452.976 83.1141 453.067 86.9578C453.69 86.0481 455.226 84.9398 455.71 84.5169C457.112 83.2942 458.437 81.9617 459.443 80.3858C460.428 78.843 461.073 77.1101 461.711 75.4039C462.755 72.6097 463.357 69.5818 462.52 66.6492C462.52 66.6492 461.86 59.834 456.156 59.1021C456.156 59.1021 456.881 54.7132 446.458 53.5517C446.458 53.5517 438.228 53.6806 437.777 50.8408C437.777 50.8408 436.113 52.2613 436.526 54.4554C436.526 54.4554 433.14 55.4881 431.62 51.6156C431.62 51.6156 428.8 61.813 434.483 63.2332Z" fill="#271000"/>
<path d="M452.92 81.4294C453.175 81.7594 453.532 81.9925 454.013 82.0796C455.311 82.3175 456.611 81.1092 456.917 79.3815C457.222 77.6562 456.42 76.0631 455.124 75.8263C454.51 75.7145 453.892 75.927 453.383 76.365C452.641 77.0046 452.396 78.4112 452.389 79.4133C452.384 80.2149 452.537 80.9337 452.92 81.4294Z" fill="#F8A07D"/>
<path d="M454.317 77.3598C454.519 76.4544 456.266 77.5539 455.924 78.0356C455.724 78.3136 455.375 78.4915 455.093 78.6693C454.709 78.9143 454.508 79.1533 454.403 79.6018C454.39 79.6544 454.361 79.8129 454.409 79.857C454.63 80.052 455.523 79.2507 455.719 79.0839C456.103 78.7538 456.226 78.1241 456.119 77.6449C456.004 77.1353 455.71 76.8653 455.182 76.834C454.765 76.8084 454.336 76.7856 454.299 77.3069C454.299 77.3183 454.306 77.4059 454.317 77.3598Z" fill="#E98B6F"/>
<path d="M454.796 78.3832C454.626 78.1652 454.424 78.3038 454.209 78.4233C454.009 78.5346 453.883 78.713 453.811 78.923C453.647 79.3865 453.636 80.0316 453.858 80.4815C454.038 80.8428 454.385 81.0932 454.789 81.1311C455.349 81.1806 455.575 80.7083 455.653 80.2385C455.674 80.113 455.722 79.8133 455.607 79.7211C455.482 79.6227 455.363 79.8173 455.263 79.8956C455.124 79.9994 454.936 80.0222 454.768 80.0168C454.446 80.0063 454.154 79.8074 453.982 79.5467C453.953 79.4995 453.927 79.446 453.915 79.3928C453.879 79.7018 453.886 79.7724 453.94 79.6062C453.974 79.5299 454.018 79.4628 454.071 79.401C454.225 79.2021 454.463 79.0821 454.631 78.896C454.711 78.81 454.881 78.493 454.796 78.3832Z" fill="#E98B6F"/>
<path d="M439.521 77.664L442.15 78.6799C442.15 78.6799 438.603 78.8998 438.467 77.8701C438.467 77.8701 439.004 75.8589 439.585 73.9541C439.585 73.9541 439.131 77.5138 439.521 77.664Z" fill="#E98B6F"/>
<path d="M444.109 73.954C444.109 74.5103 444.416 74.9587 444.793 74.9587C445.17 74.9587 445.475 74.5103 445.475 73.954C445.475 73.3988 445.17 72.9492 444.793 72.9492C444.416 72.9492 444.109 73.3988 444.109 73.954Z" fill="#271000"/>
<path d="M436.525 73.1122C436.525 73.6685 436.832 74.1169 437.209 74.1169C437.586 74.1169 437.891 73.6685 437.891 73.1122C437.891 72.557 437.586 72.1074 437.209 72.1074C436.832 72.1074 436.525 72.557 436.525 73.1122Z" fill="#271000"/>
<path d="M443.399 72.0044C443.154 72.055 443.093 71.725 443.093 71.725C443.016 71.406 443.11 71.136 443.11 71.136C443.209 70.9097 443.401 70.8392 443.401 70.8392C444.035 70.7501 445.263 70.9075 446.306 71.2188C446.883 71.3906 447.818 71.8189 447.878 72.351C447.896 72.51 447.911 72.7835 447.731 72.8316C447.731 72.8316 445.746 72.2172 443.399 72.0044Z" fill="#271000"/>
<path d="M434.775 71.1409C435.465 71.1526 436.679 71.2172 438.165 71.4955C438.387 71.611 438.534 71.3111 438.534 71.3111C438.696 71.0243 438.679 70.7391 438.679 70.7386C438.647 70.4947 438.48 70.3741 438.48 70.3741C437.895 70.1163 437.054 69.9654 435.967 69.9805C435.642 69.9851 435.079 70.0289 434.704 70.1513C434.704 70.1513 434.631 70.3533 434.775 71.1409Z" fill="#271000"/>
<path d="M438.053 80.875C437.838 80.8739 437.722 80.9735 437.804 81.1285C437.804 81.1285 438.749 82.9058 440.406 83.1053C442.062 83.3053 443.414 81.8061 443.414 81.8061C443.546 81.6609 443.431 81.5155 443.164 81.4802C443.164 81.4802 440.304 81.1155 438.053 80.875Z" fill="white"/>
<path d="M470.479 166.474C470.479 166.474 476.455 176.117 470.479 186.925C464.504 197.734 446.258 193.793 446.205 179.794C446.151 165.964 458.739 160.676 470.479 166.474Z" fill="#065099"/>
<path d="M440.947 93.5967C440.947 93.5967 433.328 93.8767 429.34 95.0154C425.876 97.5456 425.478 103.596 426.715 107.376C428.134 111.716 428.697 117.256 430.119 123.533C432.046 132.04 429.617 138.259 431.764 146.707C433.541 153.694 470.699 146.707 470.699 146.707L475.419 114.011C475.419 114.011 477.153 105.034 469.02 102.048C469.02 102.048 460.839 97.5585 454.567 95.4337C454.567 95.4337 455.546 102.048 444.763 100.221C444.763 100.221 438.174 98.6323 440.947 93.5967Z" fill="#872952"/>
<path d="M470.699 146.708C472.275 152.32 473.524 171.24 473.524 171.24C469.251 188.952 429.953 176.208 429.72 173.667C429.443 170.626 430.648 156.151 431.263 143.623C431.263 143.623 447.793 137.712 470.699 146.708Z" fill="#872952"/>
<path d="M459.115 114.85C461.68 120.063 471.197 146.381 474.256 150.541C475.07 151.648 482.914 156.702 484.68 149.813C480.356 122.494 473.816 106.911 473.816 106.911C473.816 106.911 466.177 100.543 460.076 106.429C460.076 106.429 457.306 111.237 459.115 114.85Z" fill="#F7A483"/>
<path d="M458.034 110.187C457.189 115.193 460.563 119.935 465.569 120.779C470.575 121.623 475.318 118.25 476.162 113.245C477.007 108.239 473.633 103.498 468.627 102.653C463.622 101.809 458.878 105.182 458.034 110.187Z" fill="#F7A483"/>
<path d="M467.099 101.043C467.099 101.043 474.999 104.005 476.869 110.414L481.745 127.861C481.745 127.861 475.356 137.15 465.833 136.842L456.424 115.947C456.424 115.947 450.095 104.212 467.099 101.043Z" fill="#872952"/>
<path d="M474.256 150.54C474.256 150.54 473.179 169.782 474.848 190.036C474.848 190.036 476.577 193.182 478.445 191.01C480.314 188.841 485.89 152.283 484.68 149.812C481.569 143.464 474.256 150.54 474.256 150.54Z" fill="#F7A483"/>
<path d="M474.847 190.036L471.441 193.325L466.467 196.19C467.972 197.954 469.95 196.675 469.95 196.675C468.966 200.331 468.612 202.975 468.612 202.975C468.158 204.285 469.403 204.208 469.403 204.208C470.815 202.808 472.664 198.633 472.664 198.633C471.956 201.124 470.185 205.087 470.185 205.087C470.009 206.23 471.161 205.924 471.161 205.924C473.549 204.567 474.417 199.479 474.417 199.479C474.148 201.411 472.558 205.357 472.558 205.357C472.818 206.149 473.205 205.887 473.205 205.887C475.261 205.1 476.083 200.204 476.083 200.204L475.728 202.03C475.018 204.487 476.559 203.875 476.559 203.875L477.131 202.648C478.81 198.876 478.381 195.452 478.381 195.452L478.444 191.01L474.847 190.036Z" fill="#F7A483"/>
<path d="M362.067 130.883L364.277 131.901C364.277 131.901 359.795 130.956 359.15 129.031C359.15 129.031 358.923 128.665 359.661 128.454C359.661 128.454 363.239 130.074 365.006 130.394C365.006 130.394 361.109 129.512 358.753 128.039C358.753 128.039 358.097 126.922 359.43 126.861C358.791 126.165 359.723 125.978 359.723 125.978C359.723 125.978 360.629 125.932 362.545 126.234C362.545 126.234 365.496 126.681 369.023 126.802C369.023 126.802 367.469 124.165 368.928 123.379L371.546 126.995L373.732 130.64L373.086 133.019L368.607 133.687C368.607 133.687 364.723 133.389 362.858 132.544C362.858 132.544 357.687 129.757 362.067 130.883Z" fill="#E59375"/>
<path d="M456.982 243.151L467.203 306.833C467.203 306.833 470.589 310.094 478.445 306.833L479.749 275.716C479.749 275.716 482.056 255.161 473.914 240.497C473.914 240.497 457.875 227.554 456.982 243.151Z" fill="#065099"/>
<path d="M447.889 241.225C447.889 241.225 452.24 247.517 448.342 271.138L444.352 303.396C444.352 303.396 439.764 306.143 434.599 303.521L431.383 239.26C431.383 239.26 434.267 228.351 447.889 241.225Z" fill="#104473"/>
<path d="M110.124 103.016C110.927 108.856 112.979 110.381 111.147 116.471C109.457 122.097 104.801 126.225 104.18 132.292C103.738 136.601 104.852 143.614 107.711 147.085C111.858 152.121 121.311 149.288 126.703 148.416C132.838 147.424 146.523 146.994 150.304 140.944C153.173 136.354 149.533 128.207 148.359 123.518C146.869 117.565 145.309 111.626 143.931 105.646C142.68 100.211 141.102 91.1219 136.81 87.0876C132.521 83.0561 127.683 84.1886 122.279 84.7978C115.8 85.5288 109.122 95.7237 110.124 103.016Z" fill="#3F1901"/>
<path d="M156.613 329.334C156.613 339.611 137.888 347.941 114.79 347.941C91.6934 347.941 72.9688 339.611 72.9688 329.334C72.9688 319.059 91.6934 310.729 114.79 310.729C137.888 310.729 156.613 319.059 156.613 329.334Z" fill="#9EABD3"/>
<path d="M126.047 328.089L126.734 327.961L127.419 322.203L125.617 320.07L126.047 328.089Z" fill="#561136"/>
<path d="M125.221 327.62L126.047 328.089L125.919 318.663L124.463 318.333L125.221 327.62Z" fill="#152035"/>
<path d="M131.561 315.758L133.091 320.812C133.091 320.812 135.173 325.679 136.891 327.601C136.891 327.601 139.99 331.849 134.19 331.566C134.19 331.566 128.004 331.237 128.098 327.269C128.18 323.856 125.044 319.621 125.044 319.621C123.889 317.623 125.056 316.003 125.447 315.548L126.52 314.322L131.723 313.414L131.561 315.758Z" fill="#E59375"/>
<path d="M137.226 329.167C134.669 329.644 132.079 328.694 130.489 327.128C128.881 325.544 127.045 319.748 127.654 321.673C127.907 322.469 126.016 315.422 126.519 314.321L125.446 315.547C125.054 316.003 123.782 317.73 124.935 319.728C124.935 319.728 128.179 323.856 128.097 327.269C128.003 331.236 134.189 331.566 134.189 331.566C137.67 331.736 137.944 330.273 137.608 329.076C137.486 329.111 137.359 329.142 137.226 329.167Z" fill="#152035"/>
<path d="M140.14 330.862C140.14 330.862 141.013 332.512 138.243 332.512C138.243 332.512 127.863 331.853 127.868 327.395L127.863 323.803C127.863 323.803 128.679 328.929 135.089 328.942C135.089 328.942 137.936 328.942 136.466 327.128L140.14 330.862Z" fill="#152035"/>
<path d="M119.87 122.125H133.475C132.856 120.145 131.575 115.018 133.557 111.529L119.812 102.505C119.812 102.505 122.255 117.647 119.87 122.125Z" fill="#F7A483"/>
<path d="M121.395 113.579C122.21 115.661 123.528 116.676 125.678 117.356C128.059 118.108 130.348 118.258 132.587 117.868C132.371 115.779 132.486 113.416 133.557 111.529L119.812 102.505C119.812 102.505 120.557 107.124 120.823 112.014C121.009 112.534 121.19 113.057 121.395 113.579Z" fill="#E1876F"/>
<path d="M136.174 114.68L136.896 112.634L138.658 106.615C138.902 105.66 139.017 104.353 138.688 103.42C138.295 102.298 137.989 100.47 138.408 98.4249C139.53 92.9479 137.097 90.0879 137.097 90.0879C133.9 85.0523 126.356 85.0762 126.356 85.0762C117.026 85.5613 116.265 94.5929 116.265 94.5929C114.766 100.603 119.558 105.591 119.566 105.599C120.174 106.231 120.239 107.254 120.531 108.036C120.843 108.87 121.317 109.648 121.899 110.317C123.212 111.822 124.924 113.262 126.683 114.157C128.35 115.006 131.582 115.877 133.875 115.853C134.826 115.842 135.761 115.854 136.174 114.68Z" fill="#F7A483"/>
<path d="M92.6289 328.872L93.3199 328.97L95.8172 323.737L94.7961 321.139L92.6289 328.872Z" fill="#561136"/>
<path d="M91.998 328.162L92.6296 328.871L95.5321 319.901L94.2588 319.121L91.998 328.162Z" fill="#152035"/>
<path d="M101.805 318.96C101.668 323.172 101.356 327.901 103.056 331.886C103.056 331.886 104.627 336.905 99.2248 334.776C99.2248 334.776 93.4712 332.48 94.833 328.753C96.0041 325.546 94.3927 320.529 94.3927 320.529C93.9414 318.267 95.5667 317.108 96.0826 316.801L97.4928 315.982H102.901L101.805 318.96Z" fill="#F7A483"/>
<path d="M102.872 333.477C100.296 333.109 98.1475 331.38 97.1443 329.385C96.1289 327.37 96.2504 321.291 96.2089 323.309C96.1921 324.144 96.662 316.864 97.4935 315.981L96.0834 316.8C95.5674 317.106 93.8067 318.334 94.2592 320.595C94.2592 320.595 96.0051 325.545 94.834 328.752C93.4723 332.479 99.2258 334.775 99.2258 334.775C102.468 336.053 103.197 334.756 103.262 333.515C103.135 333.509 103.005 333.497 102.872 333.477Z" fill="#152035"/>
<path d="M105.087 336.018C105.087 336.018 105.385 337.862 102.76 336.973C102.76 336.973 93.1409 333.019 94.5756 328.798L95.7239 325.395C95.7239 325.395 94.8516 330.512 100.919 332.581C100.919 332.581 103.615 333.493 102.804 331.302L105.087 336.018Z" fill="#152035"/>
<path d="M107.781 256.027C100.882 268.764 99.6614 273.948 98.4346 283.633C97.7185 289.265 97.9565 312.992 97.2174 316.532C96.9094 318 102.486 317.194 102.486 317.194C103.506 314.712 119.748 260.195 119.748 260.195C119.748 260.195 121.563 254.549 120.056 253.567C112.485 248.634 110.788 250.475 107.781 256.027Z" fill="#F7A483"/>
<path d="M138.75 163.917C138.75 163.917 144.051 186.353 143.34 188.804C141.29 195.863 121.304 212.317 103.961 197.871C103.961 197.871 107.532 172.71 117.123 160.693C117.123 160.693 120.148 163.818 138.75 163.917Z" fill="#F7A483"/>
<path d="M136.047 118.329C136.047 118.329 142.985 131.741 146.083 139.098C144.785 147.724 140.099 160.519 138.213 163.217C134.086 169.13 115.214 163.851 115.214 163.851L109.773 145.692C125.654 139.991 117.291 123.261 117.291 123.261L119.78 121.689C119.78 121.689 122.32 129.912 132.656 129.619C132.656 129.619 136.05 127.409 133.551 118.029C133.551 118.029 135.044 118.077 136.047 118.329Z" fill="#6652A2"/>
<path d="M118.773 194.845C118.773 194.845 120.599 231.039 127.297 250.505C128.294 253.408 139.739 249.551 139.739 249.551C139.739 249.551 145.513 218.409 145.168 205.507C144.971 198.215 142.362 182.49 142.362 182.49C142.362 182.49 120.899 179.684 118.773 194.845Z" fill="#E59375"/>
<path d="M127.625 250.374L139.738 249.55C139.738 249.55 132.295 311.337 131.62 313.934C131.62 313.934 126.412 315.818 126.519 314.321C126.772 310.714 122.427 282.985 122.295 277.309C122.082 268.189 122.439 262.43 127.625 250.374Z" fill="#E59375"/>
<path d="M131.708 125.029C130.932 129.366 133.819 133.513 138.158 134.288C142.495 135.064 152.965 135.481 151.253 131.421C147.951 123.589 144.336 119.526 139.999 118.749C135.658 117.972 132.484 120.692 131.708 125.029Z" fill="#E59375"/>
<path d="M135.404 131.36L139.051 124.186L147.315 124.032C147.315 124.032 157.979 143.657 159.979 149.493C162.111 155.709 157.094 153.374 154.984 152.672C154.984 152.672 137.517 136.042 135.404 131.36Z" fill="#E59375"/>
<path d="M154.982 152.672C154.982 152.672 161.801 161.285 166.343 163.351C166.343 163.351 171.022 160.165 160.303 150.593C160.303 150.593 156.377 146.767 154.982 152.672Z" fill="#E59375"/>
<path d="M103.961 197.872C103.961 197.872 104.1 234.08 108.877 254.104C109.588 257.09 120.499 256.175 120.499 256.175C120.499 256.175 127.619 221.932 128.526 209.057C129.039 201.78 130.494 189.045 130.494 189.045C130.494 189.045 104.953 186.514 103.961 197.872Z" fill="#F7A483"/>
<path d="M109.243 127.614C103.677 131.684 106.522 137.803 106.522 137.803L117.035 163.332C117.035 163.332 134.085 169.13 138.212 163.217C140.097 160.519 141.842 153.362 144.13 143.04C145.686 136.025 145.79 123.771 141.842 120.142C139.563 118.049 132.193 118.092 132.138 117.844L120.195 121.69L109.243 127.614Z" fill="#F7A483"/>
<path d="M131.752 161.247C132.763 161.064 138.211 163.216 138.211 163.216C138.211 163.216 142.137 179.946 142.361 182.489C142.584 185.03 125.088 198.2 105.543 190.702C105.543 190.702 115.413 167.427 116.855 162.56C118.511 156.972 131.752 161.247 131.752 161.247Z" fill="#F7A483"/>
<path d="M141.245 128.676C141.245 128.676 147.014 135.469 147.498 140.514C147.768 143.324 144.219 148.028 142.445 149.762C141.186 150.99 133.735 133.364 141.245 128.676Z" fill="#122B67"/>
<path d="M120.611 109.082C120.565 104.822 120.672 105.083 120.672 105.083C120.772 103.838 123.214 106.522 123.164 104.9C122.932 97.4791 125.63 93.9456 126.684 93.3748C129.548 91.826 132.569 91.3795 134.964 91.8046C138.718 92.4711 138.575 97.4677 138.575 97.4677C141.774 79.1761 121.371 85.0216 121.371 85.0216C111.435 87.6309 112.459 96.9931 112.459 96.9931C111.241 107.045 120.767 112.853 120.767 112.853L120.611 109.082Z" fill="#3F1901"/>
<path d="M121.265 107.632C120.93 107.889 120.504 108.036 119.97 108.026C118.525 108.006 117.325 106.653 117.292 105.009C117.259 103.368 118.398 102.052 119.842 102.073C120.527 102.082 121.156 102.392 121.632 102.889C122.326 103.615 122.348 104.954 122.183 105.876C122.053 106.612 121.762 107.246 121.265 107.632Z" fill="#F8A07D"/>
<path d="M120.426 103.603C120.34 102.739 118.594 103.564 118.857 104.05C119.012 104.33 119.317 104.535 119.558 104.731C119.888 104.999 120.05 105.246 120.095 105.675C120.101 105.724 120.112 105.873 120.06 105.908C119.835 106.065 119.093 105.223 118.932 105.045C118.613 104.695 118.569 104.098 118.722 103.665C118.884 103.205 119.188 102.988 119.679 103.018C120.072 103.041 120.47 103.068 120.447 103.555C120.447 103.566 120.429 103.647 120.426 103.603Z" fill="#E98B6F"/>
<path d="M119.866 104.498C120.049 104.316 120.221 104.468 120.407 104.6C120.579 104.728 120.675 104.906 120.719 105.109C120.82 105.558 120.759 106.158 120.503 106.55C120.294 106.864 119.944 107.058 119.565 107.048C119.04 107.033 118.882 106.569 118.862 106.124C118.856 106.006 118.847 105.724 118.964 105.65C119.091 105.57 119.179 105.766 119.264 105.85C119.382 105.96 119.554 106.004 119.71 106.017C120.008 106.043 120.301 105.891 120.49 105.669C120.524 105.629 120.554 105.582 120.57 105.533C120.57 105.824 120.553 105.888 120.524 105.728C120.501 105.654 120.468 105.587 120.425 105.523C120.302 105.321 120.098 105.184 119.962 104.992C119.898 104.904 119.774 104.592 119.866 104.498Z" fill="#E98B6F"/>
<path d="M129.54 101.278C129.589 101.796 129.346 102.242 128.995 102.276C128.644 102.31 128.32 101.919 128.27 101.402C128.22 100.885 128.464 100.439 128.813 100.405C129.164 100.371 129.49 100.763 129.54 101.278Z" fill="#3C2415"/>
<path d="M136.718 100.311C136.737 100.83 136.468 101.26 136.114 101.274C135.763 101.287 135.462 100.877 135.442 100.358C135.424 99.8394 135.694 99.4086 136.046 99.3958C136.398 99.3827 136.698 99.7922 136.718 100.311Z" fill="#3C2415"/>
<path d="M126.447 100.582C127.796 99.1648 130.97 99.2777 130.97 99.2777C130.97 99.2777 131.181 99.2672 131.124 98.6207C131.124 98.6207 131.107 98.0488 130.65 98.1048C130.65 98.1048 126.614 97.8365 126.447 100.582Z" fill="#3F1901"/>
<path d="M138.575 97.4679C136.917 96.6671 134.54 97.6195 134.54 97.6195C134.084 97.6861 134.217 98.2424 134.217 98.2424C134.332 98.8804 134.54 98.8348 134.54 98.8348C134.54 98.8348 136.789 97.7066 138.466 98.0967C138.548 97.6648 138.52 97.7012 138.575 97.4679Z" fill="#3F1901"/>
<path d="M135.809 107.832L130.698 108.777C130.429 108.828 130.323 108.986 130.466 109.129C130.466 109.129 131.937 110.599 133.593 110.289C135.25 109.98 136.079 108.078 136.079 108.078C136.152 107.912 136.028 107.816 135.809 107.832Z" fill="white"/>
<path d="M132.139 106.222C134.816 106.028 134.963 105.326 134.963 105.326L133.558 102.505C133.558 102.505 133.881 105.326 132.139 106.222Z" fill="#E98B6F"/>
<path d="M169.911 147.839L163.451 173.913C163.451 174.394 163.126 174.483 163.126 174.483L151.7 179.245C151.115 179.345 151.182 178.79 151.182 178.79L157.642 152.856C157.642 152.311 157.999 152.231 157.999 152.231L169.375 147.49C169.375 147.49 169.911 147.265 169.911 147.839Z" fill="#25386F"/>
<path d="M150.297 178.568L151.407 179.311C151.201 179.245 151.188 178.889 151.188 178.889L157.642 152.881L156.674 152.223L150.214 178.365C150.214 178.365 150.197 178.501 150.297 178.568Z" fill="#365195"/>
<path d="M157.896 152.283C157.896 152.283 157.639 152.415 157.642 152.88L156.674 152.229C156.674 151.89 156.843 151.712 156.943 151.636L157.896 152.283Z" fill="#365195"/>
<path d="M156.936 151.642C156.976 151.608 157.016 151.59 157.016 151.59L168.392 146.841C168.392 146.841 168.718 146.651 169.047 146.874L169.74 147.338C169.74 147.338 169.911 147.429 169.898 147.697C169.898 147.697 169.845 147.335 169.383 147.487L157.896 152.283L156.936 151.642Z" fill="#A4DEF6"/>
<path d="M169.911 147.839L163.451 173.913C163.451 174.394 163.126 174.483 163.126 174.483L151.7 179.245C151.115 179.345 151.182 178.79 151.182 178.79L157.642 152.856C157.642 152.311 157.999 152.231 157.999 152.231L169.375 147.49C169.375 147.49 169.911 147.265 169.911 147.839Z" stroke="#365195" stroke-width="0.59" stroke-miterlimit="10"/>
<path d="M167.538 157.537C166.928 158.66 166.274 159.677 165.292 160.457C164.172 161.342 162.302 161.073 161.582 161.72C160.327 162.846 161.218 165.888 163.865 168.938C166.162 171.586 167.855 168.121 168.628 165.99C169.77 162.841 169.694 161.435 168.391 158.894L167.538 157.537Z" fill="#E59375"/>
<path d="M121.334 107.933C121.334 108.421 120.938 108.818 120.449 108.818C119.961 108.818 119.564 108.421 119.564 107.933C119.564 107.445 119.961 107.049 120.449 107.049C120.938 107.049 121.334 107.445 121.334 107.933Z" fill="white"/>
<path d="M145.168 205.506C145.052 201.217 144.409 194.012 143.646 188.804C143.404 184.714 138.749 163.917 138.749 163.917C120.147 163.818 115.949 160.693 115.949 160.693C110.984 169.158 107.562 178.751 105.567 188.348C104.448 193.726 103.896 198.631 104.065 204.058C104.29 211.261 104.568 218.453 105.083 225.641C105.173 226.905 105.856 239.84 106.447 239.896C106.447 239.896 137.649 243.141 143.068 229.03C144.278 220.467 145.32 211.207 145.168 205.506Z" fill="#CC4E7E"/>
<path d="M115.213 163.851C115.213 163.851 134.621 169.831 138.75 163.917C140.633 161.22 144.785 147.724 146.083 139.098C142.984 131.741 136.046 118.329 136.046 118.329C135.043 118.077 133.55 118.029 133.55 118.029C136.049 127.409 132.655 129.619 132.655 129.619C122.319 129.912 119.779 121.689 119.779 121.689L117.29 123.261C117.29 123.261 124.989 139.25 110.13 146.563C110.13 146.563 109.772 163.716 115.213 163.851Z" fill="#122B67"/>
<path d="M118.271 134.374C118.88 138.738 115.836 142.77 111.47 143.377C107.105 143.985 95.5455 142.851 98.0163 139.202C102.871 132.029 105.866 128.387 110.231 127.779C114.597 127.171 117.665 130.011 118.271 134.374Z" fill="#F7A483"/>
<path d="M114.333 140.558L110.968 133.248L102.715 132.774C102.715 132.774 84.2623 151.724 82.038 157.477C79.6685 163.607 84.7712 161.467 86.9076 160.846C86.9076 160.846 112.042 145.155 114.333 140.558Z" fill="#F7A483"/>
<path d="M81.7363 160.915C81.7363 160.915 90.3608 174.291 99.2754 182.543C99.2754 182.543 103.256 182.292 102.076 180.083C100.074 176.333 91.9079 158.817 89.8796 155.052C88.7398 152.937 81.7363 160.915 81.7363 160.915Z" fill="#F7A483"/>
<path d="M102.177 179.983L106.682 181.437L108.764 178.92C108.635 181.787 109.496 183.787 109.496 183.787C111.989 186.639 113.473 188.855 113.473 188.855C114.458 189.829 113.305 190.308 113.305 190.308C111.422 189.673 107.923 186.738 107.923 186.738C109.656 188.664 112.989 191.444 112.989 191.444C113.653 192.39 112.482 192.624 112.482 192.624C109.743 192.456 106.722 188.272 106.722 188.272C107.814 189.887 110.98 192.73 110.98 192.73C111.095 193.556 110.632 193.491 110.632 193.491C108.44 193.69 105.544 189.656 105.544 189.656L106.668 191.139C108.389 193.031 106.735 193.162 106.735 193.162L105.68 192.312C102.513 189.665 101.39 186.401 101.39 186.401L99.375 182.441L102.177 179.983Z" fill="#F7A483"/>
<path d="M133.707 90.2062C127.541 93.5847 124.063 96.6897 125.664 104.191C127.106 110.954 127.597 114.657 123.869 120.691C120.369 126.356 120.055 129.591 123.07 135.665C125.491 140.541 127.87 145.222 121.804 148.152C110.355 153.682 99.7107 144.604 104.003 132.21C105.928 126.654 110.603 122.868 112.828 117.527C115.082 112.117 112.91 107.507 112.429 102.037C111.625 92.8907 124.116 79.6065 131.985 88.4696C132.645 89.2137 133.204 90.1465 133.707 91.0095V90.2062Z" fill="#3F1901"/>
<path d="M182.924 322.209V351.58C182.924 391.638 239.886 424.105 310.144 424.105C380.408 424.105 437.362 391.638 437.362 351.58V322.209H182.924Z" fill="#7C294B"/>
<path d="M310.144 394.733C239.886 394.733 182.924 362.266 182.924 322.207C182.924 282.161 239.886 249.688 310.144 249.688C380.408 249.688 437.362 282.161 437.362 322.207C437.362 362.266 380.408 394.733 310.144 394.733Z" fill="#CC4E7E"/>
<path d="M310.143 379.338C254.797 379.338 209.928 353.764 209.928 322.208C209.928 290.662 254.797 265.082 310.143 265.082C365.491 265.082 410.356 290.662 410.356 322.208C410.356 353.764 365.491 379.338 310.143 379.338Z" fill="white"/>
<path d="M310.143 365.468C268.235 365.468 234.258 346.103 234.258 322.209C234.258 298.32 268.235 278.951 310.143 278.951C352.056 278.951 386.028 298.32 386.028 322.209C386.028 346.103 352.056 365.468 310.143 365.468Z" fill="#CC4E7E"/>
<path d="M310.144 350.594C282.645 350.594 260.352 337.887 260.352 322.209C260.352 306.534 282.645 293.825 310.144 293.825C337.643 293.825 359.935 306.534 359.935 322.209C359.935 337.887 337.643 350.594 310.144 350.594Z" fill="white"/>
<path d="M310.143 336.561C296.24 336.561 284.969 330.136 284.969 322.209C284.969 314.285 296.24 307.859 310.143 307.859C324.046 307.859 335.316 314.284 335.316 322.209C335.316 330.136 324.046 336.561 310.143 336.561Z" fill="#CC4E7E"/>
<path d="M310.144 327.062C305.442 327.062 301.631 324.89 301.631 322.209C301.631 319.531 305.442 317.357 310.144 317.357C314.844 317.357 318.655 319.531 318.655 322.209C318.655 324.89 314.844 327.062 310.144 327.062Z" fill="#7C294B"/>
<path d="M310.145 208.703V153.458L335.706 140.033V192.698L310.145 208.703Z" fill="#447FC1"/>
<path d="M310.144 208.703V153.458L284.582 140.033V192.698L310.144 208.703Z" fill="#3DAFE4"/>
<path d="M310.145 150.617V323.416" stroke="#196EAB" stroke-width="32.6609" stroke-miterlimit="10"/>
<path d="M412.85 326.863C412.85 326.863 411.763 324.028 415.534 323.002C420.881 326.394 428.899 328.004 428.899 328.004C438.131 331.106 457.143 327.152 465.794 325.355C475.511 323.337 480.01 334.321 470.693 337.916C453.258 344.642 425.615 337.333 412.755 327.222" fill="#F8A07D"/>
<path d="M502.217 440.698C498.334 422.564 497.172 380.565 497.172 380.565C497.172 380.565 500.284 376.434 511.487 375.713C522.721 374.99 521.946 381.892 521.893 380.996C521.893 380.996 521.883 410.719 516.739 439.986C516.739 439.986 508.75 445.497 502.217 440.698Z" fill="#053B6B"/>
<path d="M521.782 383.052C522.886 375.548 520.599 367.979 519.419 360.396H485.298C483.114 367.668 480.845 375.138 480.845 375.138C480.845 375.138 479.385 392.341 493.998 394.401C493.998 394.401 519.463 398.814 521.782 383.052Z" fill="#007EA3"/>
<path d="M541.813 514.007C541.813 528.47 515.458 540.194 482.947 540.194C450.437 540.194 424.082 528.47 424.082 514.007C424.082 499.544 450.437 487.819 482.947 487.819C515.458 487.819 541.813 499.544 541.813 514.007Z" fill="#9EABD3"/>
<path d="M448.703 513.059L450.647 512.946C451.31 512.844 451.305 513.886 451.394 513.921C453.428 514.723 455.234 515.35 455.998 515.381C455.998 515.381 459.595 514.914 459.98 513.824L459.472 507.152C455.464 506.815 451.281 506.041 451.281 506.041L442.472 504.802C438.233 504.362 437.463 505.894 437.463 505.894C437.463 505.894 434.868 509.769 448.703 513.059Z" fill="#17181C"/>
<path d="M454.05 512.665C453.407 512.366 452.454 512.043 451.772 511.923C447.426 511.163 443.176 510.731 439.558 507.938C438.675 507.257 438.052 506.408 437.989 505.396C437.587 505.657 437.463 505.894 437.463 505.894C437.463 505.894 434.867 509.769 448.703 513.059L450.647 512.947C451.31 512.845 451.305 513.886 451.394 513.922C453.428 514.723 455.234 515.35 455.998 515.382C455.998 515.382 459.595 514.915 459.98 513.824L459.856 512.199C458.425 513.022 455.897 513.518 454.05 512.665Z" fill="#040308"/>
<path d="M507.555 511.407L509.499 511.295C510.162 511.192 510.157 512.234 510.248 512.269C512.28 513.07 514.086 513.698 514.849 513.729C514.849 513.729 518.446 513.263 518.83 512.171L518.325 505.5C514.315 505.163 510.133 504.389 510.133 504.389L501.323 503.15C497.085 502.708 496.314 504.242 496.314 504.242C496.314 504.242 493.719 508.118 507.555 511.407Z" fill="#17181C"/>
<path d="M512.903 511.012C512.258 510.714 511.305 510.39 510.624 510.271C506.278 509.509 502.029 509.079 498.409 506.285C497.526 505.603 496.903 504.756 496.84 503.743C496.438 504.005 496.314 504.242 496.314 504.242C496.314 504.242 493.719 508.117 507.555 511.406L509.499 511.294C510.162 511.192 510.157 512.233 510.248 512.269C512.28 513.069 514.086 513.697 514.849 513.728C514.849 513.728 518.446 513.262 518.83 512.171L518.707 510.547C517.277 511.37 514.748 511.865 512.903 511.012Z" fill="#040308"/>
<path d="M508.3 505.988C506.858 504.266 502.121 441.005 502.121 441.005C501.337 431.28 517.509 435.364 517.509 435.364C519.864 445.045 519.484 446.867 520.223 458.881C520.516 463.626 519.76 502.925 519.935 505.947C519.935 505.947 512.43 510.92 508.3 505.988Z" fill="#053B6B"/>
<path d="M495.894 369.189C495.894 369.189 486.183 385.72 492.158 396.528C498.135 407.337 523.313 395.573 521.765 383.057C520.068 369.331 507.633 363.389 495.894 369.189Z" fill="#30528B"/>
<path d="M488.929 348.115C487.351 353.726 480.846 375.138 480.846 375.138C498.674 391.95 521.686 378.62 521.918 376.08C522.196 373.037 518.8 361.422 518.183 348.895C518.183 348.895 511.833 339.118 488.929 348.115Z" fill="#F7A483"/>
<path d="M467.477 437.558C469.369 419.11 482.513 372.047 482.513 372.047C482.513 372.047 486.354 368.509 497.236 371.273C508.146 374.045 509.322 388.241 509.549 387.369C509.549 387.369 496.887 417.158 480.039 443.403C480.039 443.403 471.9 447.57 467.477 437.558Z" fill="#30528B"/>
<path d="M451.059 505.282C451.378 503.059 467.786 436.958 467.786 436.958C471.648 428.806 482.74 437.39 482.74 437.39C482.703 443.306 482.545 450.444 478.723 461.856C477.216 466.365 463.266 507.187 462.294 510.052C462.294 510.052 454.051 512.665 451.059 505.282Z" fill="#30528B"/>
<path d="M531.03 305.272C531.03 305.272 532.794 334.961 531.669 346.947C531.669 346.947 531.669 352.395 522.073 355.125C522.073 355.125 518.583 322.069 515.742 307.313C515.742 307.313 521.409 296.368 531.03 305.272Z" fill="#E59375"/>
<path d="M520.316 312.94C524.253 314.607 528.805 312.795 530.481 308.894C532.159 304.993 530.328 300.483 526.391 298.816C522.454 297.151 517.903 298.962 516.225 302.864C514.548 306.764 516.38 311.276 520.316 312.94Z" fill="#E59375"/>
<path d="M524.341 296.869C524.341 296.869 531.355 298.492 531.73 306.624L532.864 335.887C532.864 335.887 525.86 340.538 516.783 339.748C516.783 339.748 506.313 300.667 524.341 296.869Z" fill="#FFD47C"/>
<path d="M497.862 278.291C497.862 278.291 497.799 288.743 496.887 299.154L510.675 296.87C510.675 296.87 508.655 292.115 511.499 287.866L497.862 278.291Z" fill="#F7A483"/>
<path d="M524.339 296.87C527.803 299.4 528.2 305.45 526.965 309.229C525.544 313.57 524.981 319.11 523.56 325.387C521.633 333.893 520.328 340.446 518.181 348.894C516.403 355.881 488.325 350.25 488.325 350.25L478.26 315.865C478.26 315.865 476.528 306.888 484.661 303.902C484.661 303.902 493.228 299.278 499.501 297.152C505.04 295.276 507.046 295.101 512.732 295.45C512.732 295.45 520.352 295.73 524.339 296.87Z" fill="#F7A483"/>
<path d="M483.201 368.328C483.201 368.328 477.225 377.971 483.201 388.778C489.177 399.587 507.421 395.647 507.475 381.647C507.528 367.818 494.939 362.529 483.201 368.328Z" fill="#30528B"/>
<path d="M512.732 295.45C512.732 295.45 520.352 295.73 524.34 296.87C527.944 299.503 527.88 304.672 527.185 308.586C525.856 316.067 524.509 323.625 523.814 331.195C523.505 334.548 522.671 341.373 522.42 344.73C522.177 347.988 521.147 349.782 517.812 351.503C515.278 352.812 513.395 351.774 510.634 351.848C503.612 352.039 496.681 351.271 489.724 350.411C489.43 350.375 478.571 357.7 482.144 352.31L478.26 315.865C478.26 315.865 476.528 306.888 484.661 303.902C484.661 303.902 490.38 300.322 496.653 298.197C496.653 298.197 507.561 298.474 512.732 295.45Z" fill="#FFD47C"/>
<path d="M493.221 290.362L492.633 288.092C492.633 288.092 491.238 279.723 491.238 279.722C491.063 278.671 491.197 277.303 491.5 276.276C491.828 275.158 492.091 273.98 491.928 272.744C491.127 266.749 494.487 263.772 494.487 263.772C498.394 258.637 506.523 259.355 506.526 259.356C510.742 259.994 514.424 261.737 516.521 265.581C518.424 269.068 519.458 273.321 518.33 277.215C517.092 281.481 514.701 284.815 511.536 287.841C509.51 289.778 507.441 290.016 504.79 290.985C502.944 291.659 499.412 292.053 497.451 292.067C496.422 292.07 493.56 291.667 493.221 290.362Z" fill="#F8A07D"/>
<path d="M494.829 267.248L496.124 272.444C497.602 273.091 498.195 273.662 497.992 275.606L497.523 279.897L498.692 280.345C498.595 278.627 500.979 278.603 500.979 278.603C502.721 278.503 503.018 279.987 502.918 281.418C502.66 285.131 504.012 291.028 507.125 292.066C508.355 292.476 510.674 292.903 511.061 291.238C511.537 289.202 515.394 285.157 515.394 285.157C520.028 280.67 521.19 273.011 519 267.161C518.337 265.391 517.032 263.545 515.674 262.246C512.783 259.482 509.146 258.122 505.31 257.622C505.31 257.622 500.027 256.979 497.058 259.063C495.217 260.355 494.009 261.539 493.222 262.571C493.222 262.571 492.096 264.956 494.829 267.248Z" fill="#3F1901"/>
<path d="M499.085 283.992C499.423 284.287 499.869 284.474 500.44 284.5C501.984 284.576 503.356 283.215 503.504 281.462C503.652 279.71 502.523 278.228 500.981 278.153C500.25 278.118 499.555 278.406 499.014 278.904C498.224 279.631 498.109 281.058 498.223 282.054C498.312 282.852 498.578 283.547 499.085 283.992Z" fill="#F8A07D"/>
<path d="M500.254 279.746C500.405 278.83 502.211 279.83 501.897 280.33C501.713 280.619 501.375 280.816 501.104 281.01C500.733 281.276 500.545 281.527 500.467 281.98C500.457 282.034 500.437 282.192 500.488 282.234C500.719 282.416 501.565 281.567 501.751 281.388C502.116 281.038 502.204 280.402 502.071 279.93C501.925 279.427 501.618 279.174 501.09 279.173C500.671 279.171 500.243 279.172 500.234 279.695C500.234 279.706 500.247 279.792 500.254 279.746Z" fill="#E98B6F"/>
<path d="M500.789 280.74C500.608 280.533 500.413 280.683 500.205 280.814C500.013 280.936 499.898 281.121 499.837 281.336C499.7 281.807 499.724 282.453 499.971 282.888C500.172 283.239 500.532 283.47 500.939 283.484C501.5 283.503 501.699 283.019 501.75 282.545C501.764 282.418 501.795 282.116 501.674 282.031C501.545 281.94 501.436 282.141 501.341 282.225C501.208 282.336 501.022 282.369 500.854 282.373C500.532 282.381 500.23 282.198 500.042 281.948C500.011 281.903 499.983 281.851 499.968 281.798C499.949 282.109 499.96 282.179 500.004 282.011C500.033 281.932 500.073 281.862 500.123 281.798C500.267 281.591 500.496 281.458 500.654 281.263C500.729 281.172 500.881 280.847 500.789 280.74Z" fill="#E98B6F"/>
<path d="M406.836 318.582C408.035 318.148 407.854 317.335 409.051 318.148C410.416 319.073 412.088 319.283 412.975 319.965C414.517 321.156 419.457 326.87 412.987 327.371C411.481 327.49 406.235 329.11 405.161 326.718C403.574 323.182 404.082 324.429 405.161 320.04L406.836 318.582Z" fill="#F7A483"/>
<path d="M491.927 310.529C494.503 314.541 493.339 319.882 489.327 322.458C485.315 325.034 479.975 323.872 477.398 319.861C474.82 315.848 475.984 310.508 479.998 307.93C484.008 305.355 489.351 306.518 491.927 310.529Z" fill="#F7A483"/>
<path d="M481.102 342.519C479.982 354.291 479.258 383.117 479.258 383.117C483.436 394.265 523.291 384.856 523.522 382.315C523.8 379.273 522.984 357.851 522.368 345.323C522.368 345.323 504.006 333.524 481.102 342.519Z" fill="#FFD47C"/>
<path d="M491.456 303.937C483.349 301.228 475.444 311.65 475.444 311.65L459.338 325.732C459.338 325.732 463.42 340.395 470.864 342.519C470.864 342.519 489.329 332.849 495.653 321.669C495.653 321.669 500.298 315.198 491.456 303.937Z" fill="#FFD47C"/>
<path d="M492.592 267.127C493.779 268.083 495.289 267.456 496.644 267.142C498.492 269.31 496.279 271.477 499.08 272.527C500.563 273.084 502.758 273.243 504.399 273.508C505.711 273.72 507.037 273.416 507.975 274.396C508.992 275.456 508.029 278.759 509.228 279.392C511.327 280.499 512.974 274.757 515.647 275.213C517.93 275.6 518.333 279.22 517.535 281.001C517.801 280.767 517.991 280.67 518.133 280.595C519.22 277.76 520.609 277.709 521.809 275.694C523.667 272.569 523.354 273.314 523.724 270.313C523.728 270.286 523.358 268.999 523.354 268.983C522.481 265.788 520.988 265.244 520.27 263.889C519.514 262.458 518.346 261.456 517.376 260.195C516.482 259.034 516.033 257.47 515.006 256.432C513.447 254.856 510.892 254.065 508.749 253.783C506.439 253.479 504.242 254.913 501.953 254.512C501.013 254.347 500.135 253.495 499.193 253.547C498.045 253.612 497.249 254.751 496.257 255.198C494.411 256.028 491.504 255.692 489.926 256.992C488.183 258.428 488.558 260.502 489.632 262.261C490.234 263.247 491.454 263.815 491.997 264.838C492.146 265.121 492.554 267.098 492.592 267.127Z" fill="#3F1901"/>
<path d="M409.051 318.148L401.296 313.924C401.296 313.924 399.59 315.519 407.637 319.832L409.051 318.148Z" fill="#F7A483"/>
<path d="M246.016 494.243L284.814 477.917C286.136 478.697 287.698 480.025 287.849 480.22C289.663 482.609 287.323 485.866 290.364 487.919C294.112 490.445 303.327 489.892 310.951 486.685C311.164 486.596 311.373 486.505 311.579 486.414C318.743 483.219 321.616 478.759 317.974 476.304C315.646 474.733 311.636 474.832 308.366 474.229C306.676 473.918 304.936 473.455 303.572 472.832C303.276 472.696 301.813 471.852 300.956 471.128L339.803 454.785L412.968 504.146L319.18 543.606L288.911 523.183C289.03 523.126 289.155 523.069 289.286 523.011C290.783 522.343 292.939 521.623 293.282 521.546C297.796 520.555 303.902 521.757 307.802 520.118C312.58 517.989 311.605 513.163 305.724 509.195C299.777 505.182 291.063 503.565 286.263 505.585C283.283 506.913 283.399 509.003 282.246 510.713C281.638 511.617 280.747 512.546 279.561 513.279C279.419 513.366 278.873 513.64 278.183 513.949C277.612 514.202 276.942 514.479 276.32 514.69L246.016 494.243Z" fill="#9EABD3"/>
<path d="M319.225 457.967C319.217 457.094 318.762 456.3 317.812 455.658C317.66 455.556 317.5 455.465 317.333 455.378C317.282 455.35 317.227 455.326 317.174 455.3C317.055 455.243 316.932 455.187 316.806 455.136C316.775 455.122 316.747 455.107 316.716 455.094C316.689 455.084 316.659 455.077 316.633 455.065C316.431 454.99 316.226 454.917 316.012 454.855C316.009 454.854 316.006 454.853 316.002 454.853C316 454.851 315.999 454.851 315.999 454.851C315.781 454.787 315.559 454.733 315.332 454.68C315.306 454.674 315.282 454.666 315.255 454.66C315.225 454.654 315.191 454.649 315.16 454.642C314.893 454.585 314.62 454.532 314.34 454.486C314.333 454.484 314.327 454.484 314.319 454.482C314.297 454.478 314.272 454.475 314.25 454.471C313.962 454.424 313.672 454.383 313.378 454.344C313.347 454.341 313.316 454.336 313.284 454.332C312.976 454.291 312.666 454.256 312.354 454.22C312.336 454.217 312.318 454.216 312.299 454.213C312.048 454.184 311.796 454.156 311.545 454.127C311.248 454.094 310.953 454.058 310.66 454.021C310.606 454.013 310.553 454.007 310.498 454C310.21 453.962 309.926 453.921 309.646 453.877C309.501 453.852 309.355 453.829 309.212 453.803C308.919 453.748 308.624 453.688 308.33 453.622C308.277 453.61 308.224 453.6 308.171 453.587C307.956 453.539 307.743 453.489 307.531 453.436C307.525 453.434 307.52 453.432 307.514 453.431C307.3 453.376 307.09 453.319 306.879 453.258C306.812 453.239 306.746 453.217 306.68 453.197C306.534 453.155 306.39 453.108 306.248 453.061C306.179 453.038 306.11 453.016 306.041 452.991C305.894 452.942 305.75 452.889 305.61 452.835C305.555 452.813 305.501 452.794 305.448 452.774C305.266 452.703 305.091 452.629 304.922 452.551C304.656 452.429 303.348 451.674 302.58 451.025L302.752 470.545C303.519 471.194 304.829 471.949 305.094 472.071C305.262 472.148 305.439 472.221 305.619 472.294C305.633 472.297 305.645 472.303 305.657 472.309C305.698 472.324 305.74 472.339 305.78 472.353C305.923 472.407 306.067 472.462 306.215 472.512C306.281 472.536 306.35 472.558 306.417 472.58C306.563 472.627 306.711 472.674 306.86 472.719C306.902 472.732 306.941 472.745 306.984 472.757C307.003 472.763 307.026 472.768 307.046 472.775C307.258 472.836 307.471 472.895 307.688 472.951C307.689 472.951 307.69 472.951 307.69 472.951C307.907 473.007 308.126 473.059 308.346 473.108C308.367 473.113 308.387 473.117 308.408 473.122C308.438 473.129 308.468 473.134 308.497 473.14C308.793 473.205 309.089 473.267 309.384 473.321C309.504 473.343 309.625 473.364 309.748 473.385C309.771 473.389 309.796 473.391 309.82 473.395C310.099 473.44 310.381 473.481 310.668 473.519C310.724 473.527 310.781 473.534 310.838 473.54C311.125 473.578 311.415 473.611 311.707 473.646C311.711 473.646 311.713 473.646 311.717 473.647C311.907 473.669 312.099 473.691 312.29 473.712C312.367 473.72 312.444 473.73 312.521 473.738C312.837 473.775 313.153 473.812 313.465 473.852C313.49 473.856 313.513 473.859 313.539 473.863C313.836 473.902 314.131 473.944 314.421 473.991C314.452 473.995 314.484 473.999 314.513 474.005C314.792 474.052 315.064 474.105 315.332 474.162C315.389 474.175 315.447 474.187 315.504 474.2C315.733 474.253 315.957 474.309 316.173 474.372C316.391 474.435 316.6 474.508 316.804 474.585C316.863 474.608 316.92 474.63 316.978 474.653C317.104 474.705 317.228 474.762 317.347 474.82C317.4 474.845 317.453 474.869 317.505 474.896C317.671 474.984 317.831 475.076 317.983 475.176C318.934 475.818 319.388 476.614 319.397 477.486L319.225 457.967Z" fill="#394472"/>
<path d="M290.939 500.952C291.005 500.935 291.073 500.921 291.139 500.907C291.23 500.887 291.319 500.866 291.411 500.848C291.486 500.833 291.562 500.82 291.637 500.809C291.7 500.797 291.764 500.786 291.828 500.775L291.972 517.131L319.062 535.409L318.89 515.89L296.451 500.749C296.779 500.789 297.108 500.835 297.44 500.89C297.517 500.902 297.593 500.916 297.669 500.929C297.793 500.95 297.916 500.971 298.041 500.996C298.13 501.012 298.219 501.031 298.309 501.049C298.427 501.073 298.546 501.097 298.664 501.123C298.748 501.142 298.831 501.161 298.914 501.179C299.107 501.222 299.299 501.27 299.492 501.318C299.546 501.333 299.6 501.345 299.654 501.359C299.894 501.421 300.135 501.488 300.375 501.558C300.422 501.572 300.467 501.586 300.514 501.6C300.844 501.698 301.175 501.803 301.504 501.914C301.521 501.92 301.537 501.926 301.554 501.932C301.882 502.044 302.209 502.165 302.533 502.291C302.559 502.301 302.586 502.311 302.612 502.322C302.984 502.468 303.353 502.624 303.717 502.787C303.735 502.796 303.753 502.803 303.771 502.811C304.14 502.978 304.504 503.154 304.862 503.339C304.873 503.345 304.885 503.352 304.897 503.357C305.26 503.546 305.617 503.743 305.965 503.949C305.971 503.952 305.977 503.955 305.983 503.959C306.337 504.168 306.683 504.385 307.019 504.613C310.009 506.63 311.582 508.895 311.599 510.825C311.542 504.317 311.484 497.812 311.428 491.306C311.41 489.376 309.838 487.111 306.847 485.093C306.511 484.866 306.166 484.648 305.812 484.44C305.806 484.436 305.799 484.432 305.793 484.428C305.445 484.223 305.089 484.026 304.726 483.839C304.714 483.833 304.701 483.826 304.688 483.82C304.331 483.636 303.968 483.458 303.599 483.292C303.581 483.284 303.563 483.278 303.545 483.269C303.182 483.104 302.812 482.949 302.44 482.802C302.433 482.8 302.427 482.796 302.419 482.794C302.401 482.787 302.381 482.781 302.362 482.773C302.035 482.645 301.705 482.523 301.374 482.41C301.361 482.406 301.348 482.4 301.335 482.397C301.003 482.283 300.669 482.178 300.336 482.079C300.31 482.071 300.284 482.062 300.259 482.055C300.242 482.049 300.226 482.045 300.209 482.04C299.966 481.968 299.722 481.903 299.479 481.838C299.429 481.826 299.38 481.814 299.331 481.802C299.133 481.752 298.934 481.704 298.736 481.658C298.699 481.651 298.662 481.64 298.624 481.632C298.584 481.622 298.542 481.614 298.5 481.606C298.376 481.578 298.252 481.552 298.128 481.528C298.043 481.51 297.957 481.494 297.871 481.477C297.746 481.453 297.622 481.432 297.496 481.41C297.435 481.4 297.375 481.387 297.314 481.377C297.299 481.374 297.284 481.373 297.268 481.371C296.932 481.316 296.599 481.268 296.267 481.229C296.242 481.226 296.215 481.222 296.19 481.22C296.171 481.216 296.151 481.216 296.131 481.212C295.842 481.181 295.555 481.155 295.27 481.134C295.247 481.132 295.223 481.13 295.199 481.128C295.168 481.126 295.138 481.126 295.106 481.123C294.576 481.091 294.059 481.08 293.555 481.093C293.525 481.093 293.495 481.091 293.465 481.093C293.439 481.093 293.413 481.096 293.386 481.097C293.141 481.105 292.899 481.117 292.662 481.136C292.657 481.136 292.652 481.136 292.646 481.136C292.633 481.139 292.619 481.142 292.604 481.142C292.356 481.163 292.114 481.191 291.875 481.225C291.85 481.228 291.822 481.229 291.798 481.233C291.78 481.235 291.762 481.239 291.743 481.242C291.645 481.258 291.548 481.275 291.452 481.292C291.383 481.304 291.313 481.315 291.246 481.328C291.145 481.348 291.047 481.371 290.949 481.392C290.896 481.403 290.842 481.413 290.791 481.426C290.783 481.428 290.777 481.43 290.77 481.432C290.559 481.482 290.353 481.542 290.154 481.604C290.107 481.618 290.063 481.634 290.018 481.648C289.817 481.715 289.62 481.786 289.432 481.865C289.282 481.931 289.143 482.002 289.008 482.072C288.969 482.095 288.93 482.118 288.892 482.139C288.844 482.165 288.794 482.191 288.749 482.217C288.71 482.241 288.676 482.266 288.638 482.291C288.589 482.321 288.541 482.352 288.494 482.384C288.42 482.433 288.351 482.484 288.284 482.536C288.243 482.566 288.202 482.598 288.164 482.627C288.15 482.639 288.135 482.649 288.123 482.66C288.042 482.726 287.967 482.795 287.895 482.863C287.886 482.871 287.878 482.881 287.869 482.889C287.811 482.945 287.754 483.002 287.701 483.06C287.686 483.078 287.672 483.096 287.656 483.113C287.63 483.142 287.606 483.172 287.581 483.201C287.53 483.261 287.481 483.323 287.435 483.385C287.414 483.414 287.391 483.442 287.37 483.47C287.359 483.485 287.347 483.501 287.336 483.517C287.314 483.549 287.295 483.582 287.274 483.614C287.233 483.673 287.195 483.733 287.158 483.794C287.131 483.84 287.104 483.888 287.076 483.934C287.043 483.993 287.01 484.053 286.979 484.112C286.968 484.132 286.956 484.153 286.946 484.175C286.933 484.198 286.923 484.221 286.913 484.243C286.861 484.347 286.811 484.453 286.763 484.558C286.752 484.58 286.742 484.604 286.731 484.626C286.67 484.766 286.609 484.907 286.548 485.047C286.503 485.154 286.456 485.262 286.409 485.368C286.391 485.41 286.373 485.45 286.355 485.492C286.297 485.621 286.237 485.748 286.173 485.875C286.139 485.942 286.102 486.008 286.066 486.073C286.048 486.105 286.033 486.138 286.015 486.167C285.96 486.264 285.901 486.359 285.836 486.454C285.796 486.513 285.754 486.571 285.711 486.632C285.649 486.716 285.584 486.802 285.516 486.889C285.487 486.927 285.459 486.963 285.429 487C285.339 487.111 285.245 487.22 285.146 487.33C285.138 487.338 285.131 487.348 285.122 487.358C285.017 487.471 284.905 487.584 284.788 487.696C284.755 487.729 284.72 487.76 284.685 487.793C284.599 487.871 284.513 487.951 284.423 488.028C284.379 488.065 284.333 488.102 284.286 488.139C284.196 488.213 284.102 488.286 284.006 488.357C283.962 488.39 283.918 488.423 283.873 488.456C283.731 488.557 283.586 488.655 283.433 488.749C283.421 488.757 283.403 488.767 283.385 488.777C283.377 488.781 283.372 488.784 283.364 488.789C283.347 488.798 283.324 488.81 283.302 488.823C283.291 488.828 283.28 488.833 283.268 488.84C283.245 488.852 283.22 488.865 283.194 488.878C283.177 488.887 283.161 488.895 283.142 488.904C283.118 488.917 283.091 488.93 283.064 488.943C283.04 488.955 283.018 488.966 282.993 488.978C282.968 488.992 282.939 489.004 282.913 489.016C282.882 489.033 282.853 489.047 282.82 489.063C282.793 489.075 282.761 489.091 282.731 489.104C282.698 489.12 282.666 489.136 282.631 489.152C282.586 489.173 282.537 489.196 282.49 489.217C282.467 489.227 282.446 489.238 282.424 489.249C282.351 489.281 282.277 489.315 282.2 489.349C281.689 489.577 281.09 489.824 280.533 490.013L253.412 471.714L253.583 491.233L280.705 509.531C281.262 509.343 281.86 509.096 282.371 508.868C282.521 508.801 282.661 508.737 282.792 508.677C282.794 508.676 282.796 508.674 282.799 508.673C282.861 508.643 282.918 508.618 282.975 508.589C282.979 508.588 282.985 508.585 282.988 508.583C283.032 508.562 283.073 508.543 283.112 508.524C283.129 508.516 283.147 508.506 283.162 508.499C283.195 508.484 283.224 508.469 283.253 508.453C283.272 508.444 283.294 508.434 283.312 508.425C283.337 508.412 283.358 508.401 283.379 508.389C283.399 508.379 283.42 508.369 283.437 508.361C283.455 508.35 283.469 508.343 283.485 508.335C283.502 508.327 283.519 508.317 283.534 508.309C283.546 508.302 283.555 508.297 283.566 508.291C283.576 508.285 283.588 508.278 283.596 508.273C283.599 508.272 283.602 508.269 283.604 508.268C283.758 508.175 283.904 508.075 284.046 507.974C284.089 507.943 284.131 507.911 284.173 507.879C284.271 507.807 284.368 507.733 284.46 507.658C284.481 507.639 284.506 507.623 284.529 507.604C284.55 507.585 284.57 507.566 284.592 507.548C284.682 507.47 284.77 507.393 284.854 507.314C284.89 507.281 284.926 507.248 284.961 507.214C285.077 507.104 285.187 506.991 285.292 506.878C285.293 506.876 285.295 506.874 285.296 506.872C285.305 506.863 285.312 506.855 285.32 506.846C285.418 506.738 285.511 506.629 285.6 506.52C285.631 506.483 285.659 506.445 285.69 506.407C285.756 506.323 285.819 506.237 285.88 506.153C285.896 506.13 285.915 506.107 285.931 506.084C285.957 506.048 285.982 506.01 286.007 505.974C286.071 505.879 286.13 505.784 286.186 505.687C286.206 505.652 286.224 505.616 286.244 505.581C286.275 505.522 286.309 505.464 286.338 505.406C286.34 505.403 286.341 505.4 286.343 505.397C286.407 505.269 286.468 505.141 286.526 505.011C286.544 504.971 286.561 504.932 286.579 504.891C286.626 504.784 286.672 504.678 286.718 504.57C286.779 504.428 286.84 504.286 286.904 504.142C286.912 504.123 286.923 504.103 286.931 504.083C286.98 503.974 287.032 503.867 287.085 503.76C287.106 503.719 287.127 503.676 287.148 503.635C287.181 503.573 287.215 503.512 287.25 503.451C287.275 503.406 287.301 503.36 287.328 503.315C287.365 503.252 287.405 503.192 287.445 503.131C287.476 503.085 287.506 503.036 287.54 502.989C287.562 502.96 287.583 502.932 287.606 502.902C287.652 502.841 287.7 502.782 287.75 502.721C287.776 502.692 287.8 502.661 287.827 502.632C287.893 502.557 287.963 502.484 288.037 502.412C288.046 502.402 288.055 502.392 288.065 502.383C288.149 502.303 288.24 502.223 288.335 502.147C288.373 502.117 288.412 502.087 288.451 502.058C288.52 502.005 288.591 501.953 288.665 501.903C288.71 501.873 288.758 501.841 288.807 501.811C288.888 501.76 288.973 501.708 289.063 501.657C289.101 501.636 289.138 501.614 289.178 501.593C289.312 501.522 289.452 501.452 289.602 501.385C289.79 501.306 289.987 501.235 290.187 501.169C290.232 501.153 290.278 501.138 290.323 501.125C290.524 501.061 290.727 501.002 290.939 500.952Z" fill="#424888"/>
<path d="M402.825 480.576L402.997 500.095L319.061 535.41L318.889 515.891L402.825 480.576Z" fill="#5860AB"/>
<path d="M253.412 471.713L288.134 457.103C289.318 457.8 290.714 458.987 290.85 459.163C292.474 461.3 290.38 464.216 293.103 466.053C296.455 468.314 304.702 467.819 311.525 464.948C311.716 464.868 311.903 464.788 312.088 464.706C318.499 461.848 321.07 457.856 317.811 455.658C315.728 454.252 312.138 454.34 309.212 453.802C307.7 453.522 306.144 453.107 304.922 452.551C304.657 452.428 303.348 451.674 302.58 451.025L337.346 436.4L402.826 480.576L318.89 515.891L291.801 497.612C291.907 497.563 292.02 497.51 292.136 497.458C293.475 496.861 295.406 496.216 295.712 496.147C299.752 495.26 305.216 496.337 308.706 494.87C312.983 492.965 312.11 488.645 306.847 485.094C301.525 481.503 293.727 480.056 289.431 481.864C286.764 483.052 286.869 484.922 285.836 486.453C285.292 487.262 284.495 488.094 283.433 488.749C283.306 488.826 282.817 489.073 282.2 489.348C281.689 489.576 281.09 489.823 280.533 490.012L253.412 471.713Z" fill="#6174B8"/>
<path d="M170.58 481.698C168.253 480.126 164.239 480.225 160.975 479.625C159.281 479.312 157.541 478.848 156.179 478.227C155.883 478.09 154.417 477.247 153.562 476.521L192.408 460.177L162.14 439.757C162.263 439.697 162.395 439.636 162.531 439.576C164.025 438.91 166.17 438.191 166.511 438.117C171.023 437.126 177.129 438.329 181.188 436.62C185.808 434.561 184.834 429.734 178.951 425.767C173.005 421.753 164.291 420.138 159.347 422.22C156.514 423.484 156.627 425.573 155.474 427.284C154.867 428.189 153.975 429.118 152.788 429.85C152.646 429.937 152.101 430.212 151.411 430.52C150.839 430.775 150.17 431.05 149.547 431.261L119.243 410.814L25.4551 450.275L98.6199 499.636L137.423 483.312C138.739 484.091 140.301 485.418 140.454 485.615C142.267 488.002 139.928 491.26 142.969 493.313C146.717 495.839 155.932 495.286 163.556 492.079C163.77 491.99 163.981 491.897 164.189 491.806C171.351 488.611 174.219 484.152 170.58 481.698Z" fill="#9EABD3"/>
<path d="M178.892 411.416C178.893 411.463 178.889 411.51 178.887 411.558C178.886 411.609 178.885 411.659 178.881 411.709C178.878 411.75 178.872 411.793 178.867 411.833C178.862 411.882 178.857 411.932 178.849 411.98C178.842 412.028 178.832 412.075 178.822 412.12C178.815 412.158 178.809 412.192 178.8 412.229C178.789 412.277 178.775 412.325 178.76 412.372C178.751 412.405 178.742 412.44 178.731 412.473C178.724 412.495 178.716 412.514 178.709 412.533C178.662 412.665 178.609 412.796 178.545 412.923C178.543 412.926 178.542 412.929 178.541 412.932C178.478 413.053 178.404 413.172 178.325 413.288C178.312 413.307 178.3 413.326 178.287 413.346C178.207 413.459 178.118 413.567 178.022 413.674C177.995 413.704 177.968 413.733 177.94 413.762C177.909 413.795 177.878 413.826 177.847 413.856C177.811 413.891 177.773 413.925 177.736 413.96C177.702 413.99 177.668 414.021 177.631 414.052C177.6 414.079 177.566 414.105 177.533 414.132C177.473 414.181 177.409 414.228 177.345 414.275C177.312 414.299 177.277 414.324 177.243 414.347C177.173 414.395 177.1 414.442 177.026 414.488C176.994 414.507 176.962 414.529 176.929 414.549C176.865 414.586 176.798 414.623 176.731 414.658C176.693 414.679 176.657 414.7 176.619 414.72C176.511 414.774 176.401 414.828 176.285 414.879C175.851 415.063 175.388 415.208 174.906 415.325C174.522 415.417 174.126 415.492 173.718 415.55C173.33 415.606 172.933 415.65 172.53 415.683C171.967 415.728 171.392 415.754 170.81 415.77C169.535 415.807 168.23 415.795 166.961 415.831C166.389 415.847 165.824 415.873 165.273 415.918L165.445 435.438C165.996 435.392 166.56 435.366 167.132 435.351C168.402 435.314 169.709 435.326 170.981 435.29C171.564 435.273 172.139 435.248 172.702 435.202C173.105 435.17 173.503 435.125 173.89 435.07C174.297 435.01 174.693 434.936 175.078 434.844C175.56 434.728 176.021 434.583 176.457 434.397C176.572 434.347 176.684 434.293 176.793 434.237C176.824 434.221 176.853 434.204 176.884 434.187C176.958 434.148 177.032 434.107 177.104 434.065C177.111 434.061 177.119 434.057 177.126 434.053C177.148 434.04 177.167 434.025 177.19 434.012C177.266 433.965 177.342 433.916 177.415 433.866C177.45 433.843 177.483 433.818 177.516 433.795C177.581 433.747 177.643 433.7 177.704 433.651C177.722 433.637 177.743 433.623 177.761 433.608C177.776 433.595 177.788 433.583 177.804 433.571C177.838 433.54 177.873 433.509 177.907 433.479C177.944 433.444 177.982 433.411 178.018 433.376C178.05 433.344 178.081 433.311 178.111 433.282C178.13 433.261 178.151 433.242 178.169 433.223C178.177 433.213 178.184 433.204 178.192 433.193C178.289 433.087 178.377 432.977 178.458 432.863C178.463 432.857 178.469 432.85 178.475 432.843C178.483 432.832 178.488 432.821 178.496 432.808C178.576 432.692 178.649 432.573 178.712 432.45L178.713 432.448C178.714 432.446 178.714 432.445 178.715 432.443C178.78 432.314 178.834 432.182 178.882 432.049C178.886 432.037 178.891 432.028 178.894 432.018C178.896 432.01 178.898 432.003 178.9 431.995C178.913 431.957 178.924 431.918 178.935 431.879C178.947 431.836 178.959 431.794 178.97 431.75C178.979 431.711 178.987 431.672 178.995 431.633C179.002 431.601 179.01 431.569 179.015 431.536C179.018 431.523 179.018 431.513 179.02 431.501C179.028 431.449 179.035 431.396 179.039 431.343C179.044 431.307 179.049 431.269 179.052 431.231C179.056 431.175 179.058 431.116 179.059 431.058C179.06 431.029 179.063 431.001 179.063 430.973C179.063 430.959 179.063 430.947 179.063 430.935L178.892 411.416Z" fill="#7C294B"/>
<path d="M163.15 416.219C163.144 416.22 163.137 416.222 163.13 416.224C162.767 416.312 160.898 416.941 159.587 417.525C159.466 417.58 159.348 417.633 159.238 417.687L159.41 437.205C159.52 437.152 159.637 437.098 159.759 437.044C161.069 436.46 162.939 435.832 163.301 435.743C163.308 435.741 163.315 435.739 163.321 435.738C163.628 435.671 163.944 435.614 164.266 435.567C164.649 435.513 165.043 435.47 165.445 435.438L165.273 415.918C164.871 415.95 164.478 415.993 164.093 416.048C163.771 416.096 163.456 416.152 163.15 416.219Z" fill="#7C294B"/>
<path d="M186.498 455.481L186.327 435.962L151.561 450.589L151.704 466.833C147.666 467.316 144.04 466.936 142.082 465.616C140.779 464.736 140.58 463.611 140.548 462.442C140.545 462.12 140.542 461.798 140.539 461.476C140.531 460.515 140.463 459.562 139.829 458.727C139.694 458.551 138.297 457.364 137.118 456.666L102.391 471.277L102.563 490.796L137.289 476.186C138.468 476.882 139.866 478.07 140.001 478.246C140.569 478.993 140.681 479.837 140.705 480.695C140.709 481.016 140.711 481.339 140.714 481.66C140.725 482.936 140.84 484.181 142.253 485.136C145.607 487.396 153.854 486.902 160.676 484.032C160.868 483.95 161.058 483.869 161.243 483.787C165.782 481.763 168.395 479.17 168.376 477.049C168.336 472.419 168.295 467.789 168.254 463.158L186.498 455.481Z" fill="#A1426F"/>
<path d="M176.285 414.879L176.457 434.397C172.824 435.928 167.36 434.85 163.322 435.738C163.017 435.805 161.097 436.448 159.759 437.043C159.637 437.098 159.52 437.152 159.41 437.205L159.238 417.687C159.348 417.632 159.466 417.579 159.587 417.525C160.924 416.928 162.845 416.286 163.15 416.218C167.187 415.331 172.652 416.408 176.285 414.879Z" fill="#7C294B"/>
<path d="M102.391 471.277L36.9121 427.1L37.084 446.619L102.563 490.796L102.391 471.277Z" fill="#7C294B"/>
<path d="M166.791 455.222C164.709 453.816 161.117 453.905 158.195 453.367C156.679 453.087 155.122 452.673 153.904 452.116C153.638 451.993 152.327 451.238 151.561 450.59L186.327 435.963L159.238 417.688C159.348 417.633 159.466 417.58 159.587 417.526C160.924 416.929 162.845 416.287 163.15 416.219C167.188 415.332 172.652 416.409 176.285 414.88C180.421 413.037 179.549 408.717 174.284 405.167C168.963 401.575 161.163 400.13 156.739 401.994C154.204 403.124 154.305 404.993 153.273 406.526C152.729 407.335 151.93 408.167 150.87 408.821C150.742 408.899 150.254 409.146 149.637 409.42C149.125 409.649 148.526 409.895 147.969 410.084L120.848 391.785L36.9121 427.1L102.391 471.277L137.118 456.666C138.297 457.364 139.694 458.552 139.829 458.727C141.453 460.864 139.36 463.779 142.082 465.617C145.434 467.877 153.682 467.383 160.505 464.513C160.698 464.433 160.887 464.349 161.072 464.268C167.482 461.409 170.048 457.418 166.791 455.222Z" fill="#CC4E7E"/>
<path d="M136.297 523.295C136.297 533.571 155.021 541.901 178.121 541.901C201.217 541.901 219.942 533.571 219.942 523.295C219.942 513.02 201.217 504.689 178.121 504.689C155.021 504.689 136.297 513.02 136.297 523.295Z" fill="#9EABD3"/>
<path d="M199.316 522.727C199.316 522.727 203.753 521.916 202.504 525.536C202.504 525.536 192.147 529.983 184.913 528.981C184.913 528.981 179.829 528.809 180.626 523.295L180.541 518.812L187.361 520.103L186.974 524.363L199.316 522.727Z" fill="#E59375"/>
<path d="M180.627 523.294C180.623 524.004 180.844 524.682 181.308 525.216C183.092 527.274 186.602 527.336 189.072 527.18C192.982 526.93 197.053 526.338 200.886 525.527C201.732 525.348 201.966 525.071 201.975 524.824C201.532 523.837 200.738 522.984 199.317 522.727L203.093 522.244C206.578 522.12 208.161 522.92 208.974 523.446C209.939 526.202 205.243 528.042 205.243 528.042C205.243 528.042 200.256 529.93 194.246 531.112C194.246 531.112 180.989 534.237 179.387 530.161L180.627 523.294Z" fill="#4F1531"/>
<path d="M172.98 516.567C172.98 516.567 177.417 515.756 176.168 519.374C176.168 519.374 165.811 523.821 158.577 522.819C158.577 522.819 153.493 522.649 154.29 517.134L154.205 512.652L161.025 513.943L160.638 518.203L172.98 516.567Z" fill="#E59375"/>
<path d="M154.291 517.134C154.287 517.843 154.508 518.52 154.972 519.055C156.757 521.113 160.266 521.176 162.736 521.018C166.646 520.769 170.717 520.177 174.55 519.367C175.396 519.187 175.63 518.91 175.639 518.663C175.196 517.676 174.402 516.823 172.981 516.567L176.757 516.083C180.243 515.959 181.825 516.758 182.638 517.285C183.603 520.042 178.907 521.881 178.907 521.881C178.907 521.881 173.921 523.769 167.91 524.951C167.91 524.951 154.653 528.077 153.051 523.999L154.291 517.134Z" fill="#4F1531"/>
<path d="M174.209 396.87C174.209 403.858 168.541 409.527 161.55 409.527C154.559 409.527 148.891 403.858 148.891 396.87C148.891 389.88 154.559 384.212 161.55 384.212C168.541 384.212 174.209 389.88 174.209 396.87Z" fill="#00468B"/>
<path d="M153.583 457.801C153.583 457.801 153.759 460.984 159.476 461.062C159.476 461.062 164.888 462.908 167.225 455.862C176.432 428.114 173.999 399.158 173.999 399.158C173.999 399.158 160.999 391.918 148.891 396.87C148.891 396.87 150.849 433.292 153.583 457.801Z" fill="#00468B"/>
<path d="M167.224 455.862C167.224 455.862 162.764 515.834 162.348 517.976C157.995 520.74 154.152 517.901 154.152 517.901C154.174 514.959 150.967 490.436 150.636 485.83C150.067 477.914 149.115 467.915 154.118 456.54L167.224 455.862Z" fill="#00468B"/>
<path d="M190.274 459.631C190.274 459.631 191.494 462.576 196.915 460.755C196.915 460.755 202.632 460.704 202.504 453.283C201.997 424.051 189.186 393.758 189.186 393.758C189.186 393.758 174.758 392.379 164.973 401.062C164.973 401.062 179.574 437.412 190.274 459.631Z" fill="#0058A9"/>
<path d="M188.861 392.676C191.178 399.272 187.707 406.496 181.11 408.812C174.514 411.128 167.288 407.659 164.972 401.062C162.656 394.467 166.127 387.244 172.723 384.927C179.32 382.612 186.545 386.081 188.861 392.676Z" fill="#0058A9"/>
<path d="M148.891 395.027C150.421 380.952 157.483 374.419 157.483 374.419L181.953 371.328C181.953 371.328 188.701 383.065 189.405 395.027C186.48 403.005 176.054 405.331 176.054 405.331L168.138 407.679C168.138 407.679 150.197 404.953 148.891 395.027Z" fill="#0058A9"/>
<path d="M201.372 459.105C201.372 459.105 189.234 522.104 188.504 524.161C188.824 524.008 182.767 526.945 180.086 523.153C180.543 520.248 180.799 488.247 181.153 483.643C181.761 475.729 181.677 468.346 188.309 457.837C188.309 457.837 204.88 445.976 201.372 459.105Z" fill="#0058A9"/>
<path d="M147.081 348.795C147.081 348.795 151.538 354.045 160.405 366.715L158.872 369.313C158.872 369.313 143.686 361.664 138.842 353.079L147.081 348.795Z" fill="#E59375"/>
<path d="M159.632 330.016C159.632 330.016 148.201 354.957 141.336 354.009C141.336 354.009 138.966 354.156 138.492 352.372C138.492 352.372 133.643 348.072 153.804 317.06C153.804 317.06 155.773 314.425 159.809 315.105C159.809 315.105 165.932 319.15 159.632 330.016Z" fill="#E59375"/>
<path d="M178.119 310.494H165.762V323.627H178.119V310.494Z" fill="#F4B78E"/>
<path d="M185.763 310.792L186.226 308.693C186.226 308.693 187.152 301.004 187.152 301.002C187.268 300.036 187.056 298.799 186.694 297.879C186.301 296.877 185.97 295.819 186.065 294.684C186.527 289.185 182.985 286.647 182.985 286.647C178.768 282.172 170.642 283.243 170.641 283.243C166.441 284.041 162.842 285.818 160.951 289.426C159.237 292.698 158.439 296.624 159.794 300.11C161.278 303.932 163.869 306.845 167.22 309.437C169.367 311.097 171.459 311.207 174.178 311.954C176.07 312.472 179.64 312.65 181.61 312.561C182.643 312.512 185.497 311.999 185.763 310.792Z" fill="#F7A483"/>
<path d="M180.135 303.675C179.526 302.81 177.306 302.277 177.305 302.277C174.622 302.277 174.972 305.857 174.719 307.408C174.637 307.912 174.539 308.432 174.426 308.947C173.148 313.499 169.322 313.459 166.052 314.011C165.93 313.939 165.803 313.866 165.67 313.793C165.077 311.775 163.195 309.679 163.195 309.679C158.284 305.434 156.682 297.806 158.551 291.803C159.118 289.988 160.325 288.06 161.616 286.678C164.361 283.737 167.939 282.165 171.764 281.445C175.565 280.73 189.166 282.575 185.455 290.834C185.455 290.834 179.859 297.288 180.135 303.675Z" fill="#340E08"/>
<path d="M180.135 303.674C179.652 302.448 178.454 301.503 177.107 301.904C176.119 302.2 175.529 303.07 175.628 304.087C175.647 304.307 175.696 304.525 175.717 304.745C176.106 307.101 178.592 307.999 178.592 307.999" fill="#F8B78F"/>
<path d="M177.358 303.018C177.494 302.919 177.78 302.867 177.955 302.855C178.857 302.799 179.583 304.187 178.682 304.435C178.343 304.766 178.693 305.148 178.693 305.148C179.004 305.484 179.42 305.968 179.327 306.443C179.27 306.724 178.957 306.877 178.674 306.946C178.448 307.002 178.403 306.825 178.583 306.74C178.72 306.675 178.838 306.572 178.926 306.458C178.934 306.442 178.944 306.428 178.953 306.411C178.962 306.402 178.968 306.388 178.974 306.374C179.004 306.307 179.004 306.238 178.984 306.169C178.781 306.313 178.443 306.347 178.285 306.161C178.114 305.955 178.244 305.634 178.186 305.399C178.143 305.236 178.068 305.08 177.978 304.932C177.565 304.245 178.309 304.127 178.309 304.127C178.423 304.131 178.509 304.137 178.582 304.148C178.96 303.952 178.54 303.385 178.309 303.295C178.042 303.19 177.714 303.226 177.523 303.432C177.333 303.64 177.255 303.962 177.273 304.228C177.294 304.555 177.375 304.881 177.517 305.18C177.599 305.351 177.703 305.55 177.785 305.721C177.879 305.913 177.654 305.999 177.56 305.805C177.363 305.398 176.995 304.8 176.917 304.236C176.854 303.767 176.938 303.319 177.358 303.018Z" fill="#DD9D7E"/>
<path d="M180.135 303.675C180.135 303.675 180.028 303.521 179.852 303.243C179.77 303.098 179.617 302.975 179.478 302.811C179.346 302.664 179.108 302.494 178.908 302.369C178.678 302.25 178.424 302.127 178.138 302.09C177.856 302.053 177.554 302.053 177.259 302.151C177.161 302.175 176.931 302.271 176.813 302.339C176.693 302.416 176.574 302.499 176.458 302.611C176.237 302.828 176.064 303.103 175.989 303.412C175.913 303.725 175.912 304.022 175.974 304.406L176.007 304.676L176.01 304.711V304.715C176.009 304.699 176.018 304.755 176.005 304.682L176.007 304.69L176.01 304.707L176.023 304.773L176.05 304.906C176.078 305.093 176.132 305.235 176.178 305.382C176.287 305.678 176.427 305.968 176.597 306.217C176.76 306.471 176.956 306.689 177.137 306.887C177.515 307.272 177.883 307.556 178.155 307.732C178.424 307.91 178.592 307.999 178.592 307.999C178.592 307.999 178.406 307.962 178.099 307.838C177.798 307.707 177.356 307.513 176.899 307.152C176.676 306.969 176.433 306.76 176.226 306.492C176.008 306.231 175.815 305.928 175.668 305.574C175.597 305.392 175.521 305.201 175.487 305.034L175.453 304.904L175.436 304.837L175.432 304.82L175.423 304.768L175.417 304.733L175.377 304.462C175.312 304.124 175.287 303.665 175.389 303.251C175.501 302.836 175.744 302.461 176.05 302.173C176.131 302.106 176.208 302.035 176.294 301.974L176.578 301.815C176.779 301.724 176.886 301.683 177.123 301.624C177.502 301.519 177.896 301.558 178.236 301.64C178.586 301.719 178.867 301.904 179.109 302.077C179.356 302.282 179.516 302.448 179.655 302.665C179.775 302.872 179.907 303.035 179.959 303.19C180.076 303.495 180.135 303.675 180.135 303.675Z" fill="#DD9D7E"/>
<path d="M178.59 307.423C178.59 307.835 178.926 308.172 179.339 308.172C179.752 308.172 180.088 307.835 180.088 307.423C180.088 307.011 179.752 306.676 179.339 306.676C178.926 306.676 178.59 307.011 178.59 307.423Z" fill="white"/>
<path d="M179.159 307.823C179.487 307.823 179.752 307.558 179.752 307.23C179.752 306.967 179.578 306.751 179.339 306.676C179.752 306.676 180.088 307.011 180.088 307.423C180.088 307.835 179.752 308.172 179.339 308.172C178.926 308.172 178.59 307.835 178.59 307.423C178.59 307.405 178.594 307.388 178.596 307.37C178.659 307.628 178.882 307.823 179.159 307.823Z" fill="#E6E7E8"/>
<path d="M145.918 380.286C145.966 380.217 159.56 360.716 159.56 360.716C160.196 357.84 158.761 352.117 158.761 352.117L154.401 322.126C154.918 318.689 155.156 314.325 159.809 315.105C163.091 315.656 163.737 316.114 165.762 316.765C165.169 319.55 169.976 321.34 169.976 321.34C176.59 324.196 178.118 322.313 178.118 322.313C179.879 323.267 185.831 326.24 187.375 327.51C188.981 328.83 189.952 330.886 189.446 334.348L184.687 362.772L185.524 369.833L194.22 391.876C191.531 390.912 188.592 390.522 185.748 390.863C183.044 391.186 180.715 392.781 178.029 393.079C173.972 393.525 170.96 392.061 167.897 390.12C164.176 389.318 160.191 388.027 156.17 386C156.085 386 156.002 385.999 155.916 385.999C152.881 386.015 149.444 385.962 147.204 383.588C146.733 383.087 145.344 381.111 145.918 380.286Z" fill="#4F1531"/>
<path d="M192.996 373.012L192.916 338.483C192.076 329.02 187.375 327.51 187.375 327.51C177.876 326.397 179.339 343.997 179.339 343.997L183.306 373.744" fill="#F7A483"/>
<path d="M215.566 359.23L196.645 351.071L211.534 317.396L231.849 325.552L215.566 359.23Z" fill="#C7EAFB"/>
<path d="M222.085 345.735C221.46 346.887 220.788 347.932 219.784 348.73C218.638 349.638 216.72 349.363 215.982 350.026C214.696 351.181 210.706 356.56 216.462 356.576C217.801 356.581 222.41 356.592 223.201 354.405C224.371 351.175 224.295 349.734 222.959 347.127L222.085 345.735Z" fill="#F7A483"/>
<path d="M186.795 366.74L217.099 351.952C220.742 352.966 220.211 354.603 220.211 354.603L201.601 369.486C193.818 375.953 188.228 376.744 188.228 376.744C188.228 376.744 183.341 378.521 182.894 371.522C182.894 371.522 182.725 368.359 186.795 366.74Z" fill="#F7A483"/>
<path d="M182.762 301.562C181.995 307.288 182.859 314.869 180.006 321.127C178.735 323.914 177.334 325.295 178.095 328.527C178.719 331.172 179.97 333.67 180.649 336.408C182.148 342.455 180.11 348.361 173.063 346.172C169.684 345.122 169.306 345.139 166.229 346.332C163.644 347.334 161.215 347.612 158.646 346.362C154.662 344.422 155.861 341.49 153.629 338.552C151.928 336.315 149.524 336.37 148.242 333.363C146.696 329.733 148.538 327.796 150.423 324.715C152.385 321.507 152.699 319.394 152.053 315.525C151.511 312.275 152.314 310.631 153.389 307.642C154.493 304.58 154.012 301.913 154.535 298.842C155.569 292.77 158.887 284.529 165.249 282.748C168.367 281.875 172.396 281.192 175.396 282.293C179.482 283.792 184.032 285.389 183.855 290.412C183.673 295.58 183.445 296.461 182.762 301.562Z" fill="#340E08"/>
<path d="M215.428 350.602C215.428 350.602 216.928 352.68 218.186 349.872L218.056 346.162C218.056 346.162 218.186 345.129 217.282 344.887C217.282 344.887 216.669 344.887 216.53 345.944L215.428 350.602Z" fill="#F7A483"/>
</svg>
